<?xml version="1.0" encoding="UTF-8" standalone="no"?><!DOCTYPE svg PUBLIC "-//W3C//DTD SVG 1.1//EN" "http://www.w3.org/Graphics/SVG/1.1/DTD/svg11.dtd"><svg width="100%" height="100%" viewBox="0 0 37 25" version="1.1" xmlns="http://www.w3.org/2000/svg" xmlns:xlink="http://www.w3.org/1999/xlink" xml:space="preserve" xmlns:serif="http://www.serif.com/" style="fill-rule:evenodd;clip-rule:evenodd;stroke-linejoin:round;stroke-miterlimit:2;"><g id="chart"><path d="M6.811,12.822l5.53,3.406c-0.42,0.884 -0.655,1.873 -0.655,2.916l-6.475,0c0,-2.288 0.58,-4.442 1.6,-6.322Z"/><path d="M18.584,12.331c-0.028,-0.001 -0.056,-0.001 -0.084,-0.001c-2.181,0 -4.123,1.027 -5.371,2.622l-5.529,-3.406c2.402,-3.439 6.39,-5.69 10.9,-5.69c0.294,0 0.586,0.009 0.875,0.028l-0.791,6.447Z" style="fill:#545454;"/><path d="M20.864,6.066c6.208,1.116 10.925,6.551 10.925,13.078l-6.475,0c0,-3.219 -2.237,-5.92 -5.241,-6.631l0.791,-6.447Z" style="fill:#aaa;"/></g></svg>