<?xml version="1.0" encoding="UTF-8" standalone="no"?><!DOCTYPE svg PUBLIC "-//W3C//DTD SVG 1.1//EN" "http://www.w3.org/Graphics/SVG/1.1/DTD/svg11.dtd"><svg width="100%" height="100%" viewBox="0 0 75 73" version="1.1" xmlns="http://www.w3.org/2000/svg" xmlns:xlink="http://www.w3.org/1999/xlink" xml:space="preserve" xmlns:serif="http://www.serif.com/" style="fill-rule:evenodd;clip-rule:evenodd;stroke-linejoin:round;stroke-miterlimit:2;"><path id="options" d="M29.085,44.466c-18.2,-15.602 -31.532,-12.111 -28.707,-31.991c2.111,-14.854 33.36,-17.22 54.524,-2.875c17.508,11.868 25.76,44.657 12.822,56.293c-21.153,19.025 -26.392,-10.928 -38.639,-21.427Z" style="fill:url(#_Linear1);"/><clipPath id="_clip2"><path d="M29.085,44.466c-18.2,-15.602 -31.532,-12.111 -28.707,-31.991c2.111,-14.854 33.36,-17.22 54.524,-2.875c17.508,11.868 25.76,44.657 12.822,56.293c-21.153,19.025 -26.392,-10.928 -38.639,-21.427Z"/></clipPath><g clip-path="url(#_clip2)"><path d="M35.028,17.245c1.196,0.183 2.392,0.365 3.587,0.548l0.83,3.239c1.298,0.377 2.521,0.909 3.651,1.57l3.003,-1.986l2.726,2.395l-1.164,3.527l-0.109,-0.094c0.622,0.772 1.174,1.601 1.647,2.474l3.548,-0.127c0.36,1.155 0.719,2.309 1.078,3.464l-2.79,2.368c0.128,1.017 0.161,2.056 0.09,3.109l3.042,1.728c-0.3,1.172 -0.6,2.343 -0.9,3.515l-3.624,0.553c-0.475,1.02 -1.05,1.978 -1.712,2.863l1.568,2.887c-0.875,0.836 -1.749,1.672 -2.623,2.508l-3.255,-1.398c-0.761,0.486 -1.564,0.909 -2.399,1.263l0.282,-0.069l-0.141,3.623l-3.535,0.816l-2.185,-3.003l0.529,-0.13c-1.186,0.094 -2.401,0.058 -3.628,-0.12c-8.011,-1.163 -13.814,-7.99 -13.939,-15.834l-0.303,3.361l-3.382,-1.307l0.374,-3.609l3.481,-1.074c0.181,-1.237 0.497,-2.422 0.931,-3.54l-2.298,-2.621c0.668,-1.008 1.337,-2.016 2.005,-3.024l3.391,0.628c0.665,-0.734 1.394,-1.406 2.178,-2.006l-0.743,-3.251c1.067,-0.569 2.135,-1.138 3.202,-1.708l2.813,2.268c1.084,-0.323 2.21,-0.534 3.364,-0.624l1.41,-3.182Zm1.577,7.539c6.529,0.948 11.06,7.018 10.113,13.546c-0.948,6.529 -7.018,11.06 -13.546,10.113c-6.529,-0.948 -11.06,-7.018 -10.113,-13.546c0.948,-6.529 7.018,-11.06 13.546,-10.113Z" style="fill:#fcfcfc;fill-opacity:0.82;"/><path d="M40.336,4.691c9.651,3.758 11.974,7.905 8.939,12.024c-3.32,4.507 -7.355,4.157 -17.006,0.399c-9.651,-3.757 -13.348,-2.949 -11.318,-8.165c2.031,-5.216 9.734,-8.015 19.385,-4.258Z" style="fill:#fff;fill-opacity:0.15;"/></g><defs><linearGradient id="_Linear1" x1="0" y1="0" x2="1" y2="0" gradientUnits="userSpaceOnUse" gradientTransform="matrix(92.0432,-91.0887,91.0887,92.0432,-25.3188,96.8189)"><stop offset="0" style="stop-color:#c87f6d;stop-opacity:1"/><stop offset="1" style="stop-color:#89bec9;stop-opacity:1"/></linearGradient></defs></svg>