<?xml version="1.0" encoding="UTF-8" standalone="no"?><!DOCTYPE svg PUBLIC "-//W3C//DTD SVG 1.1//EN" "http://www.w3.org/Graphics/SVG/1.1/DTD/svg11.dtd"><svg width="100%" height="100%" viewBox="0 0 75 73" version="1.1" xmlns="http://www.w3.org/2000/svg" xmlns:xlink="http://www.w3.org/1999/xlink" xml:space="preserve" xmlns:serif="http://www.serif.com/" style="fill-rule:evenodd;clip-rule:evenodd;stroke-linejoin:round;stroke-miterlimit:2;"><g><clipPath id="_clip1"><path d="M29.085,44.466c-18.2,-15.602 -31.532,-12.111 -28.707,-31.991c2.111,-14.854 33.36,-17.22 54.524,-2.875c17.508,11.868 25.76,44.657 12.822,56.293c-21.153,19.025 -26.392,-10.928 -38.639,-21.427Z"/></clipPath><g clip-path="url(#_clip1)"><path id="settings" d="M29.076,44.453c-18.236,-15.56 -31.56,-12.039 -28.781,-31.925c2.078,-14.858 33.321,-17.297 54.517,-3.001c17.536,11.829 25.863,44.599 12.952,56.264c-21.109,19.073 -26.417,-10.867 -38.688,-21.338Z" style="fill:url(#_Radial2);"/><path d="M39.381,20.995c1.299,0.375 2.523,0.903 3.655,1.562l2.998,-1.993l2.731,2.389l-1.154,3.529l-0.11,-0.094c0.624,0.772 1.178,1.598 1.653,2.47l3.548,-0.135l1.085,3.462l-2.784,2.375c0.13,1.016 0.165,2.055 0.097,3.108l3.047,1.722l-0.893,3.516l-3.623,0.562c-0.472,1.021 -1.046,1.98 -1.705,2.866l1.574,2.884l-2.616,2.514l-3.258,-1.39c-0.761,0.487 -1.562,0.911 -2.397,1.268l0.282,-0.07l-0.133,3.624l-3.533,0.824l-2.192,-2.998l0.53,-0.132c-1.187,0.097 -2.402,0.064 -3.63,-0.111c-8.013,-1.144 -13.831,-7.958 -13.975,-15.801l-0.294,3.361l-3.386,-1.299l0.365,-3.611l3.48,-1.081c0.178,-1.238 0.49,-2.423 0.922,-3.542l-2.304,-2.616l1.998,-3.029l3.392,0.621c0.664,-0.736 1.392,-1.409 2.174,-2.012l-0.75,-3.249l3.197,-1.715l2.818,2.261c1.084,-0.325 2.21,-0.54 3.364,-0.631l1.402,-3.186l3.589,0.54l0.836,3.237Zm-2.83,3.759c6.53,0.933 11.076,6.992 10.143,13.522c-0.932,6.532 -6.991,11.076 -13.523,10.144c-6.53,-0.932 -11.076,-6.991 -10.143,-13.523c0.932,-6.53 6.992,-11.076 13.523,-10.143Z" style="fill:#fcfcfc;fill-opacity:0.82;"/><path d="M40.336,4.691c9.651,3.758 11.974,7.905 8.939,12.024c-3.32,4.507 -7.355,4.157 -17.006,0.399c-9.651,-3.757 -13.348,-2.949 -11.318,-8.165c2.031,-5.216 9.734,-8.015 19.385,-4.258Z" style="fill:#fff;fill-opacity:0.09;"/></g></g><defs><radialGradient id="_Radial2" cx="0" cy="0" r="1" gradientUnits="userSpaceOnUse" gradientTransform="matrix(63.1961,-65.6275,65.6275,63.1961,8.62971,66.7968)"><stop offset="0" style="stop-color:#000;stop-opacity:1"/><stop offset="0.5" style="stop-color:#404040;stop-opacity:1"/><stop offset="1" style="stop-color:#fff;stop-opacity:1"/></radialGradient></defs></svg>