<?xml version="1.0" encoding="UTF-8" standalone="no"?><!DOCTYPE svg PUBLIC "-//W3C//DTD SVG 1.1//EN" "http://www.w3.org/Graphics/SVG/1.1/DTD/svg11.dtd"><svg width="100%" height="100%" viewBox="0 0 42 36" version="1.1" xmlns="http://www.w3.org/2000/svg" xmlns:xlink="http://www.w3.org/1999/xlink" xml:space="preserve" xmlns:serif="http://www.serif.com/" style="fill-rule:evenodd;clip-rule:evenodd;stroke-linejoin:round;stroke-miterlimit:2;"><path d="M11.339,21.224l8.138,8.554c1.157,1.445 0.895,1.941 0.773,2.735c-0.37,2.398 -3.645,3.81 -5.72,1.975c-4.675,-4.638 -9.085,-9.535 -13.625,-14.304c-1.148,-1.276 -1.219,-3.22 -0.125,-4.578c4.494,-4.978 9.262,-9.702 13.895,-14.551c0.708,-0.7 1.188,-1.083 2.64,-1.053c2.697,0.208 4.383,3.478 2.306,5.779l-8.225,8.609c8.837,0.011 17.934,-0.002 26.823,-0.002c3.977,-0 4.311,6.781 -0,6.83c-9.024,0.103 -17.933,0.134 -26.88,0.006Z" style="fill:#505050;"/></svg>