<?xml version="1.0" encoding="UTF-8" standalone="no"?><!DOCTYPE svg PUBLIC "-//W3C//DTD SVG 1.1//EN" "http://www.w3.org/Graphics/SVG/1.1/DTD/svg11.dtd"><svg width="100%" height="100%" viewBox="0 0 23 20" version="1.1" xmlns="http://www.w3.org/2000/svg" xmlns:xlink="http://www.w3.org/1999/xlink" xml:space="preserve" xmlns:serif="http://www.serif.com/" style="fill-rule:evenodd;clip-rule:evenodd;stroke-linejoin:round;stroke-miterlimit:2;"><path d="M16.448,11.641l-4.463,4.691c-0.635,0.793 -0.491,1.065 -0.424,1.501c0.203,1.315 1.999,2.089 3.137,1.083c2.564,-2.544 4.983,-5.23 7.473,-7.846c0.63,-0.699 0.669,-1.766 0.069,-2.511c-2.465,-2.73 -5.08,-5.321 -7.622,-7.98c-0.388,-0.384 -0.651,-0.594 -1.447,-0.578c-1.479,0.114 -2.404,1.908 -1.266,3.17l4.512,4.721c-4.847,0.007 -9.836,-0.001 -14.712,-0.001c-2.181,-0 -2.364,3.72 0,3.747c4.95,0.056 9.836,0.073 14.743,0.003Z" style="fill:#f3f3f3;"/></svg>