<?xml version="1.0" encoding="UTF-8" standalone="no"?><!DOCTYPE svg PUBLIC "-//W3C//DTD SVG 1.1//EN" "http://www.w3.org/Graphics/SVG/1.1/DTD/svg11.dtd"><svg width="100%" height="100%" viewBox="0 0 68 62" version="1.1" xmlns="http://www.w3.org/2000/svg" xmlns:xlink="http://www.w3.org/1999/xlink" xml:space="preserve" xmlns:serif="http://www.serif.com/" style="fill-rule:evenodd;clip-rule:evenodd;stroke-linejoin:round;stroke-miterlimit:2;"><g id="download-presentation" serif:id="download presentation"><path d="M57.302,28.299c5.429,-0 9.836,4.407 9.836,9.836c0,5.429 -4.407,9.837 -9.836,9.837c-5.429,-0 -9.837,-4.408 -9.837,-9.837c0,-5.429 4.408,-9.836 9.837,-9.836Zm1.011,11.63l0,-5.914c0,-0.558 -0.453,-1.012 -1.011,-1.012c-0.559,0 -1.012,0.454 -1.012,1.012l0,5.914l-0.899,-0.838c-0.409,-0.381 -1.049,-0.358 -1.43,0.05c-0.381,0.408 -0.358,1.049 0.05,1.43l2.584,2.409c0.132,0.129 0.291,0.214 0.459,0.257l0.009,0.002c0.05,0.012 0.101,0.02 0.153,0.025l0.021,0.001l0.019,0.001l0.01,0.001l0.024,0l0.026,0l0.025,-0.001l0.013,-0l0.021,-0.001l0.027,-0.003l0.01,-0.001c0.028,-0.003 0.056,-0.007 0.084,-0.012l0.019,-0.004l0.029,-0.007l0.024,-0.006c0.162,-0.044 0.314,-0.128 0.441,-0.253l2.584,-2.408c0.408,-0.381 0.43,-1.022 0.05,-1.43c-0.381,-0.408 -1.022,-0.431 -1.43,-0.05l-0.9,0.838Z" style="fill:#454545;"/><path d="M28.258,42.399l-19.3,-0c-4.944,-0 -8.958,-4.014 -8.958,-8.959l0,-24.482c0,-4.944 4.014,-8.958 8.958,-8.958l46.301,0c4.945,0 8.959,4.014 8.959,8.958l-0,18.897c-1.976,-1.332 -4.356,-2.11 -6.916,-2.11c-6.839,-0 -12.391,5.552 -12.391,12.39c0,1.498 0.266,2.934 0.754,4.264l-11.753,-0l-0,3.837l10.097,10.098c1.104,1.103 1.104,2.895 0,3.998c-1.103,1.103 -2.894,1.103 -3.997,0l-6.1,-6.1l-0,0.957c-0,1.56 -1.267,2.827 -2.827,2.827c-1.561,-0 -2.827,-1.267 -2.827,-2.827l-0,-0.957l-6.1,6.1c-1.103,1.103 -2.895,1.103 -3.998,0c-1.103,-1.103 -1.103,-2.895 -0,-3.998l10.098,-10.098l-0,-3.837Zm8.992,-11.819c2.012,-0 3.645,-1.634 3.645,-3.646l0,-7.291c0,-1.642 -1.088,-3.032 -2.581,-3.487c0.051,-0.169 0.08,-0.345 0.08,-0.521c0.017,-4.437 -3.45,-7.832 -7.53,-7.894c-0.088,-0.001 -0.176,-0.001 -0.265,0c-3.644,0.065 -6.429,2.63 -7.213,5.821c-0.218,0.885 -0.434,1.86 -0.291,2.611c-1.465,0.473 -2.526,1.849 -2.526,3.47l0,7.291c0,2.012 1.634,3.646 3.646,3.646l13.035,-0Zm-6.518,-9.674c1.315,0 2.383,1.068 2.383,2.383c-0,1.315 -1.068,2.382 -2.383,2.382c-1.315,0 -2.382,-1.067 -2.382,-2.382c-0,-1.315 1.067,-2.383 2.382,-2.383Zm4.882,-4.908c-0.178,-1.756 -0.343,-3.797 -2.021,-4.819c-1.91,-1.163 -4.675,-1.053 -6.247,0.56c-1.085,1.113 -1.53,2.774 -1.503,4.233c-0,-0 -0.003,0.009 -0.01,0.026l9.781,-0Z" style="fill:#454545;"/></g></svg>