<?xml version="1.0" encoding="UTF-8" standalone="no"?><!DOCTYPE svg PUBLIC "-//W3C//DTD SVG 1.1//EN" "http://www.w3.org/Graphics/SVG/1.1/DTD/svg11.dtd"><svg width="100%" height="100%" viewBox="0 0 67 60" version="1.1" xmlns="http://www.w3.org/2000/svg" xmlns:xlink="http://www.w3.org/1999/xlink" xml:space="preserve" xmlns:serif="http://www.serif.com/" style="fill-rule:evenodd;clip-rule:evenodd;stroke-linejoin:round;stroke-miterlimit:2;"><g id="print"><path d="M15.474,14.263l-6.35,0c-5.005,0 -9.124,4.119 -9.124,9.125l0,15.185c0,5.005 4.119,9.124 9.124,9.124c0,0 6.074,0 6.074,0c1.685,0 3.05,-1.365 3.05,-3.05l0,-9.098c0,-0 30.345,-0 30.345,-0c0,-0 0,9.098 0,9.098c0,1.685 1.366,3.05 3.05,3.05l6.075,0c5.005,0 9.124,-4.119 9.124,-9.124l-0,-15.185c-0,-5.006 -4.119,-9.125 -9.124,-9.125l-6.35,0l0,-11.226c0,-1.677 -1.359,-3.037 -3.037,-3.037l-29.82,0c-1.678,0 -3.037,1.36 -3.037,3.037l-0,11.226Zm6.074,0l23.746,0l0,-8.189c0,0 -23.746,0 -23.746,0l-0,8.189Z" style="fill:#454545;"/><path d="M54.681,32.499c-0,-1.678 -1.36,-3.037 -3.038,-3.037l-36.445,-0c-1.677,-0 -3.037,1.359 -3.037,3.037l0,24.297c0,1.677 1.36,3.037 3.037,3.037l36.445,-0c1.678,-0 3.038,-1.36 3.038,-3.037l-0,-24.297Zm-6.075,3.037l0,18.222c0,0 -30.371,0 -30.371,0c0,0 0,-18.222 0,-18.222l30.371,-0Z" style="fill:#454545;"/></g></svg>