<?xml version="1.0" encoding="UTF-8" standalone="no"?><!DOCTYPE svg PUBLIC "-//W3C//DTD SVG 1.1//EN" "http://www.w3.org/Graphics/SVG/1.1/DTD/svg11.dtd"><svg width="100%" height="100%" viewBox="0 0 50 59" version="1.1" xmlns="http://www.w3.org/2000/svg" xmlns:xlink="http://www.w3.org/1999/xlink" xml:space="preserve" xmlns:serif="http://www.serif.com/" style="fill-rule:evenodd;clip-rule:evenodd;stroke-linejoin:round;stroke-miterlimit:2;"><g id="download-encrypted" serif:id="download encrypted"><path d="M26.129,52.931l-16.546,-0c-5.289,-0 -9.583,-4.294 -9.583,-9.584l-0,-33.764c-0,-5.289 4.294,-9.583 9.583,-9.583l26.81,-0c5.289,0 9.583,4.294 9.583,9.583l0,27.79c-2.114,-1.426 -4.66,-2.258 -7.398,-2.258c-7.316,-0 -13.255,5.939 -13.255,13.255c-0,1.602 0.284,3.138 0.806,4.561Zm0.558,-25.158l-17.819,0c-1.669,0 -3.024,1.355 -3.024,3.025c-0,1.669 1.355,3.024 3.024,3.024l17.819,-0c1.669,-0 3.024,-1.355 3.024,-3.024c0,-1.67 -1.355,-3.025 -3.024,-3.025Zm-6.723,-9.499l-11.096,-0c-1.669,-0 -3.024,1.355 -3.024,3.024c-0,1.669 1.355,3.024 3.024,3.024l11.096,0c1.669,0 3.024,-1.355 3.024,-3.024c0,-1.669 -1.355,-3.024 -3.024,-3.024Zm13.28,-9.793l-24.376,-0c-1.669,-0 -3.024,1.355 -3.024,3.024c-0,1.669 1.355,3.024 3.024,3.024l24.376,-0c1.669,-0 3.024,-1.355 3.024,-3.024c0,-1.669 -1.355,-3.024 -3.024,-3.024Z" style="fill:#454545;"/><path d="M38.586,37.847c5.808,0 10.523,4.715 10.523,10.523c0,5.807 -4.715,10.523 -10.523,10.523c-5.807,-0 -10.522,-4.716 -10.522,-10.523c-0,-5.808 4.715,-10.523 10.522,-10.523Zm1.083,12.442l-0,-6.327c-0,-0.597 -0.485,-1.082 -1.083,-1.082c-0.597,-0 -1.082,0.485 -1.082,1.082l0,6.327l-0.962,-0.897c-0.437,-0.407 -1.122,-0.383 -1.53,0.054c-0.407,0.437 -0.383,1.122 0.054,1.529l2.764,2.577c0.141,0.138 0.312,0.23 0.491,0.275l0.01,0.002c0.053,0.013 0.108,0.022 0.164,0.027l0.022,0.002l0.02,0.001l0.011,0l0.026,0.001l0.028,-0l0.026,-0.001l0.014,-0.001l0.023,-0.001l0.028,-0.002l0.012,-0.002c0.03,-0.003 0.06,-0.007 0.089,-0.013l0.02,-0.004l0.031,-0.007l0.026,-0.007c0.173,-0.047 0.336,-0.137 0.472,-0.27l2.764,-2.577c0.437,-0.407 0.461,-1.092 0.053,-1.529c-0.407,-0.437 -1.092,-0.461 -1.529,-0.054l-0.962,0.897Z" style="fill:#454545;"/></g></svg>