<?xml version="1.0" encoding="UTF-8" standalone="no"?><!DOCTYPE svg PUBLIC "-//W3C//DTD SVG 1.1//EN" "http://www.w3.org/Graphics/SVG/1.1/DTD/svg11.dtd"><svg width="100%" height="100%" viewBox="0 0 37 25" version="1.1" xmlns="http://www.w3.org/2000/svg" xmlns:xlink="http://www.w3.org/1999/xlink" xml:space="preserve" xmlns:serif="http://www.serif.com/" style="fill-rule:evenodd;clip-rule:evenodd;stroke-linejoin:round;stroke-miterlimit:2;"><g id="chart"><path d="M0.002,23.528c-0.001,-0.024 -0.002,-0.049 -0.002,-0.073l-0,-22.068c-0,-0.765 0.771,-1.387 1.537,-1.387c0.765,-0 1.612,0.622 1.612,1.387l-0,20.538l31.983,-0c0.766,-0 1.387,0.777 1.387,1.543c0,0.765 -0.621,1.521 -1.387,1.521l-33.745,0c-0.765,0 -1.387,-0.621 -1.387,-1.387c0,-0.025 0.001,-0.049 0.002,-0.074Z" style="fill:#131313;"/><path d="M34.586,3.278c0.862,0.106 1.289,1.29 0.522,1.888l-11.777,8.295l-8.328,0l-5.867,4.256c-1.758,1.148 -2.002,-1.057 -1.222,-1.684l6.414,-4.652l8.344,-0l11.238,-7.916c0.173,-0.109 0.251,-0.198 0.676,-0.187Z" style="fill:#131313;"/></g></svg>