<?xml version="1.0" encoding="UTF-8" standalone="no"?><!DOCTYPE svg PUBLIC "-//W3C//DTD SVG 1.1//EN" "http://www.w3.org/Graphics/SVG/1.1/DTD/svg11.dtd"><svg width="100%" height="100%" viewBox="0 0 41 28" version="1.1" xmlns="http://www.w3.org/2000/svg" xmlns:xlink="http://www.w3.org/1999/xlink" xml:space="preserve" xmlns:serif="http://www.serif.com/" style="fill-rule:evenodd;clip-rule:evenodd;stroke-linejoin:round;stroke-miterlimit:2;"><g id="advanced-options" serif:id="advanced options"><path d="M13.252,6.46c0.406,0.046 0.698,0.413 0.652,0.819l-0.166,1.471c-0.002,0.016 -0.005,0.033 -0.007,0.049c0.75,0.302 1.458,0.712 2.101,1.209c0.021,-0.021 0.042,-0.04 0.066,-0.059l1.16,-0.918c0.32,-0.254 0.786,-0.199 1.04,0.121l1.743,2.204c0.254,0.32 0.2,0.786 -0.121,1.039l-1.16,0.919c-0.015,0.011 -0.029,0.022 -0.044,0.032c0.34,0.73 0.579,1.51 0.696,2.317c0.011,0.001 0.022,0.002 0.034,0.003l1.471,0.167c0.405,0.046 0.698,0.413 0.652,0.819l-0.317,2.792c-0.046,0.406 -0.413,0.698 -0.819,0.652l-1.471,-0.167c-0.032,-0.004 -0.063,-0.009 -0.093,-0.017c-0.294,0.729 -0.685,1.421 -1.156,2.052c0.028,0.026 0.055,0.054 0.079,0.085l0.925,1.155c0.255,0.319 0.204,0.785 -0.115,1.041l-2.194,1.756c-0.319,0.255 -0.785,0.203 -1.04,-0.116l-0.925,-1.155c-0.01,-0.013 -0.02,-0.026 -0.029,-0.038c-0.389,0.182 -0.793,0.334 -1.209,0.452c-0.379,0.107 -0.763,0.183 -1.15,0.23c-0,0.004 -0.001,0.007 -0.001,0.011l-0.167,1.471c-0.046,0.405 -0.412,0.698 -0.818,0.652l-2.793,-0.316c-0.405,-0.046 -0.698,-0.413 -0.652,-0.819l0.167,-1.471c0.005,-0.045 0.014,-0.089 0.027,-0.131c-0.737,-0.299 -1.439,-0.694 -2.081,-1.17c-0.031,0.036 -0.067,0.07 -0.106,0.101l-1.16,0.919c-0.321,0.253 -0.787,0.199 -1.04,-0.121l-1.744,-2.204c-0.253,-0.32 -0.199,-0.786 0.121,-1.039l1.161,-0.919c0.011,-0.009 0.022,-0.017 0.034,-0.025c-0.336,-0.707 -0.572,-1.469 -0.687,-2.273l-1.459,-0.165c-0.406,-0.046 -0.698,-0.413 -0.652,-0.819l0.317,-2.792c0.046,-0.406 0.413,-0.698 0.818,-0.652l1.471,0.167c0.025,0.003 0.05,0.007 0.074,0.012c0.3,-0.726 0.698,-1.415 1.177,-2.046c-0.029,-0.026 -0.056,-0.055 -0.081,-0.086l-0.925,-1.156c-0.255,-0.318 -0.203,-0.785 0.116,-1.04l2.194,-1.756c0.318,-0.255 0.785,-0.203 1.04,0.116l0.925,1.155c0.013,0.017 0.026,0.034 0.037,0.052c0.721,-0.346 1.494,-0.594 2.303,-0.721c0.001,-0.014 0.002,-0.028 0.004,-0.042l0.166,-1.471c0.046,-0.406 0.413,-0.698 0.819,-0.652l2.792,0.316Zm-1.987,5.286c2.784,0.316 4.789,2.832 4.473,5.616c-0.315,2.784 -2.831,4.789 -5.616,4.474c-2.784,-0.316 -4.788,-2.832 -4.473,-5.616c0.316,-2.784 2.832,-4.789 5.616,-4.474Z" style="fill:#454545;"/><path d="M35.484,1.045c0.365,0.144 0.545,0.558 0.4,0.924l-0.524,1.325c-0.005,0.015 -0.012,0.03 -0.019,0.044c0.622,0.47 1.177,1.028 1.65,1.651c0.024,-0.014 0.05,-0.026 0.076,-0.038l1.309,-0.562c0.361,-0.155 0.78,0.012 0.936,0.373l1.067,2.486c0.156,0.361 -0.012,0.781 -0.373,0.936l-1.309,0.562c-0.017,0.007 -0.033,0.014 -0.049,0.019c0.133,0.765 0.159,1.549 0.065,2.329c0.01,0.003 0.021,0.007 0.031,0.011l1.325,0.524c0.366,0.145 0.545,0.559 0.401,0.925l-0.996,2.515c-0.144,0.366 -0.559,0.545 -0.924,0.401l-1.325,-0.524c-0.029,-0.012 -0.057,-0.025 -0.083,-0.039c-0.456,0.603 -0.993,1.148 -1.589,1.617c0.02,0.031 0.037,0.064 0.052,0.098l0.57,1.306c0.157,0.361 -0.008,0.781 -0.368,0.938l-2.48,1.082c-0.36,0.157 -0.781,-0.008 -0.938,-0.369l-0.57,-1.306c-0.006,-0.014 -0.011,-0.028 -0.016,-0.042c-0.408,0.072 -0.821,0.112 -1.238,0.117c-0.379,0.004 -0.755,-0.022 -1.126,-0.075c-0.002,0.003 -0.003,0.006 -0.004,0.01l-0.524,1.325c-0.145,0.366 -0.559,0.545 -0.925,0.401l-2.515,-0.995c-0.366,-0.145 -0.546,-0.559 -0.401,-0.925l0.524,-1.325c0.016,-0.04 0.035,-0.079 0.058,-0.115c-0.61,-0.463 -1.164,-1.006 -1.641,-1.61c-0.038,0.026 -0.079,0.049 -0.123,0.068l-1.31,0.563c-0.361,0.155 -0.78,-0.013 -0.935,-0.374l-1.068,-2.486c-0.155,-0.361 0.012,-0.78 0.373,-0.935l1.31,-0.563c0.012,-0.005 0.025,-0.01 0.037,-0.015c-0.134,-0.741 -0.163,-1.508 -0.067,-2.284l-1.315,-0.52c-0.366,-0.145 -0.546,-0.559 -0.401,-0.925l0.995,-2.516c0.145,-0.365 0.559,-0.545 0.925,-0.4l1.325,0.524c0.023,0.009 0.044,0.019 0.066,0.03c0.461,-0.599 1.004,-1.14 1.607,-1.606c-0.02,-0.031 -0.038,-0.065 -0.054,-0.1l-0.569,-1.306c-0.157,-0.361 0.008,-0.781 0.368,-0.938l2.48,-1.082c0.36,-0.157 0.78,0.008 0.938,0.368l0.569,1.307c0.008,0.018 0.016,0.038 0.022,0.057c0.757,-0.141 1.537,-0.177 2.322,-0.092c0.004,-0.013 0.008,-0.026 0.014,-0.038l0.523,-1.325c0.145,-0.366 0.559,-0.546 0.925,-0.401l2.516,0.995Zm-3.174,4.414c2.509,0.992 3.74,3.834 2.748,6.342c-0.991,2.509 -3.833,3.74 -6.342,2.748c-2.508,-0.991 -3.74,-3.833 -2.748,-6.342c0.992,-2.508 3.834,-3.74 6.342,-2.748Z" style="fill:#454545;"/></g></svg>