<?xml version="1.0" encoding="UTF-8" standalone="no"?><!DOCTYPE svg PUBLIC "-//W3C//DTD SVG 1.1//EN" "http://www.w3.org/Graphics/SVG/1.1/DTD/svg11.dtd"><svg width="100%" height="100%" viewBox="0 0 67 35" version="1.1" xmlns="http://www.w3.org/2000/svg" xmlns:xlink="http://www.w3.org/1999/xlink" xml:space="preserve" xmlns:serif="http://www.serif.com/" style="fill-rule:evenodd;clip-rule:evenodd;stroke-linejoin:round;stroke-miterlimit:2;"><g><g id="code"><path d="M14.155,19.715c-0.069,-0 -0.132,-0.017 -0.189,-0.052l-6.899,-4.656c-0.184,-0.115 -0.313,-0.224 -0.388,-0.328c-0.074,-0.103 -0.112,-0.236 -0.112,-0.397l0,-0.724c0,-0.161 0.038,-0.293 0.112,-0.397c0.075,-0.103 0.204,-0.212 0.388,-0.327l6.899,-4.657c0.057,-0.034 0.12,-0.051 0.189,-0.051c0.104,-0 0.19,0.034 0.259,0.103c0.069,0.069 0.104,0.155 0.104,0.259l-0,2.794c-0,0.195 -0.052,0.347 -0.156,0.457c-0.103,0.109 -0.235,0.209 -0.396,0.301l-3.018,1.88l3.018,1.897c0.172,0.104 0.307,0.204 0.405,0.302c0.098,0.098 0.147,0.244 0.147,0.44l-0,2.794c-0,0.103 -0.035,0.189 -0.104,0.258c-0.069,0.069 -0.155,0.104 -0.259,0.104Z" style="fill:#131313;fill-rule:nonzero;"/><path d="M18.108,22.256c-0.103,0 -0.192,-0.042 -0.267,-0.125c-0.075,-0.083 -0.112,-0.182 -0.112,-0.297c0,-0.052 0.012,-0.109 0.034,-0.173l5.778,-15.535c0.149,-0.384 0.402,-0.576 0.759,-0.576l2.311,-0c0.103,-0 0.192,0.042 0.267,0.125c0.075,0.083 0.112,0.182 0.112,0.297c-0,0.052 -0.011,0.109 -0.034,0.173l-5.83,15.535c-0.138,0.384 -0.39,0.576 -0.758,0.576l-2.26,0Z" style="fill:#131313;fill-rule:nonzero;"/><path d="M30.564,19.715c-0.104,-0 -0.19,-0.035 -0.259,-0.104c-0.069,-0.069 -0.104,-0.155 -0.104,-0.258l0,-2.794c0,-0.196 0.049,-0.342 0.147,-0.44c0.098,-0.098 0.233,-0.198 0.405,-0.302l3.018,-1.897l-3.018,-1.88c-0.161,-0.092 -0.293,-0.192 -0.396,-0.301c-0.104,-0.11 -0.156,-0.262 -0.156,-0.457l0,-2.794c0,-0.104 0.035,-0.19 0.104,-0.259c0.069,-0.069 0.155,-0.103 0.259,-0.103c0.069,-0 0.132,0.017 0.189,0.051l6.899,4.657c0.184,0.115 0.313,0.224 0.388,0.327c0.074,0.104 0.112,0.236 0.112,0.397l-0,0.724c-0,0.161 -0.038,0.294 -0.112,0.397c-0.075,0.104 -0.204,0.213 -0.388,0.328l-6.899,4.656c-0.057,0.035 -0.12,0.052 -0.189,0.052Z" style="fill:#131313;fill-rule:nonzero;"/></g><path d="M64.602,3.908c0,-1.302 -1.057,-2.358 -2.358,-2.358l-58.336,-0c-1.302,-0 -2.358,1.056 -2.358,2.358c-0,-0 -0,26.214 -0,26.214c-0,1.302 1.056,2.358 2.358,2.358l58.336,0c1.301,0 2.358,-1.056 2.358,-2.358l0,-26.214Zm-1.93,-0c-0,-0.236 -0.192,-0.428 -0.428,-0.428l-58.336,-0c-0.236,-0 -0.428,0.192 -0.428,0.428l-0,26.214c-0,0.236 0.192,0.428 0.428,0.428l58.336,-0c0.236,-0 0.428,-0.192 0.428,-0.428l-0,-26.214Z" style="fill:#131313;"/></g></svg>