<?xml version="1.0" encoding="UTF-8" standalone="no"?><!DOCTYPE svg PUBLIC "-//W3C//DTD SVG 1.1//EN" "http://www.w3.org/Graphics/SVG/1.1/DTD/svg11.dtd"><svg width="100%" height="100%" viewBox="0 0 64 41" version="1.1" xmlns="http://www.w3.org/2000/svg" xmlns:xlink="http://www.w3.org/1999/xlink" xml:space="preserve" xmlns:serif="http://www.serif.com/" style="fill-rule:evenodd;clip-rule:evenodd;stroke-linejoin:round;stroke-miterlimit:2;"><g><path d="M63.251,3.15c0,-1.738 -1.411,-3.15 -3.15,-3.15l-56.951,0c-1.738,0 -3.15,1.412 -3.15,3.15l-0,33.765c-0,1.739 1.412,3.15 3.15,3.15l56.951,0c1.739,0 3.15,-1.411 3.15,-3.15l0,-33.765Zm-7.25,6.591l-48.828,-0l-0,25.496l48.828,0l0,-25.496Zm-45.883,-7.841c1.621,0 2.938,1.317 2.938,2.938c-0,1.622 -1.317,2.938 -2.938,2.938c-1.622,0 -2.938,-1.316 -2.938,-2.938c-0,-1.621 1.316,-2.938 2.938,-2.938Zm7.669,0c1.622,0 2.938,1.317 2.938,2.938c0,1.622 -1.316,2.938 -2.938,2.938c-1.621,0 -2.938,-1.316 -2.938,-2.938c0,-1.621 1.317,-2.938 2.938,-2.938Zm7.329,0c1.621,0 2.938,1.317 2.938,2.938c-0,1.622 -1.317,2.938 -2.938,2.938c-1.622,0 -2.938,-1.316 -2.938,-2.938c-0,-1.621 1.316,-2.938 2.938,-2.938Z" style="fill:#1d1d1d;"/><path d="M25.51,17.235c-0.006,-0.001 -0.013,-0.001 -0.02,-0.002c-0.566,-0.026 -0.786,0.137 -1.059,0.404l-5.981,6.259c-0.447,0.5 -0.466,0.991 -0.243,1.478c0.051,0.111 0.064,0.16 0.241,0.359l5.86,6.155c0.828,0.812 2.091,0.283 2.28,-0.672c0.028,-0.141 0.059,-0.278 0.036,-0.45c-0.023,-0.171 -0.098,-0.381 -0.313,-0.659c-0.006,-0.008 -0.013,-0.015 -0.02,-0.023l-5.011,-5.267l5.09,-5.327c0.635,-0.712 0.407,-1.637 -0.267,-2.057c-0.167,-0.105 -0.261,-0.16 -0.593,-0.198Z" style="fill:#1d1d1d;"/><path d="M37.157,17.235c0.007,-0.001 0.013,-0.001 0.02,-0.002c0.566,-0.026 0.786,0.137 1.059,0.404l5.981,6.259c0.447,0.5 0.466,0.991 0.243,1.478c-0.051,0.111 -0.064,0.16 -0.241,0.359l-5.86,6.155c-0.828,0.812 -2.091,0.283 -2.28,-0.672c-0.028,-0.141 -0.059,-0.278 -0.036,-0.45c0.023,-0.171 0.098,-0.381 0.313,-0.659c0.007,-0.008 0.013,-0.015 0.02,-0.023l5.011,-5.267l-5.09,-5.327c-0.635,-0.712 -0.407,-1.637 0.267,-2.057c0.168,-0.105 0.261,-0.16 0.593,-0.198Z" style="fill:#1d1d1d;"/></g></svg>