<?xml version="1.0" encoding="UTF-8" standalone="no"?><!DOCTYPE svg PUBLIC "-//W3C//DTD SVG 1.1//EN" "http://www.w3.org/Graphics/SVG/1.1/DTD/svg11.dtd"><svg width="100%" height="100%" viewBox="0 0 36 25" version="1.1" xmlns="http://www.w3.org/2000/svg" xmlns:xlink="http://www.w3.org/1999/xlink" xml:space="preserve" xmlns:serif="http://www.serif.com/" style="fill-rule:evenodd;clip-rule:evenodd;stroke-linejoin:round;stroke-miterlimit:2;"><path id="table" d="M34.383,0c0.445,0 0.807,0.362 0.807,0.807c-0,0.446 -0.362,0.808 -0.807,0.808l-6.161,-0l0,2.143l6.161,-0c0.445,0 0.807,0.362 0.807,0.807c-0,0.446 -0.362,0.808 -0.807,0.808l-6.161,-0l0,2.43l6.161,0c0.445,0 0.807,0.362 0.807,0.808c-0,0.445 -0.362,0.807 -0.807,0.807l-6.161,-0l0,13.935l6.161,-0c0.445,-0 0.807,0.362 0.807,0.807c-0,0.446 -0.362,0.808 -0.807,0.808l-6.741,-0c-0.072,0.021 -0.148,0.032 -0.227,0.032c-0.079,0 -0.155,-0.011 -0.227,-0.032l-5.239,-0c-0.072,0.021 -0.148,0.032 -0.227,0.032c-0.078,0 -0.155,-0.011 -0.226,-0.032l-5.226,-0c-0.072,0.021 -0.148,0.032 -0.227,0.032c-0.079,0 -0.155,-0.011 -0.227,-0.032l-6.051,-0c-0.071,0.021 -0.148,0.032 -0.226,0.032c-0.079,0 -0.155,-0.011 -0.227,-0.032l-8.278,-0c-0.072,0.021 -0.148,0.032 -0.227,0.032c-0.445,0 -0.807,-0.362 -0.807,-0.807l0,-23.375l0,-0.011c0,-0.445 0.362,-0.807 0.807,-0.807l33.576,0Zm-32.768,9.418l-0,13.935l7.116,-0l0,-13.935l-7.116,-0Zm8.731,-0l0,13.935l4.89,-0l-0,-13.935l-4.89,-0Zm6.504,-0l0,13.935l4.065,-0l-0,-13.935l-4.065,-0Zm5.68,-0l-0,13.935l4.077,-0l0,-13.935l-4.077,-0Zm-20.915,-4.045l-0,2.43l7.116,0l0,-2.43l-7.116,-0Zm8.731,-0l0,2.43l4.89,0l-0,-2.43l-4.89,-0Zm6.504,-0l0,2.43l4.065,0l-0,-2.43l-4.065,-0Zm5.68,-0l-0,2.43l4.077,0l0,-2.43l-4.077,-0Zm-20.915,-3.758l-0,2.143l7.116,-0l0,-2.143l-7.116,-0Zm8.731,-0l0,2.143l4.89,-0l-0,-2.143l-4.89,-0Zm6.504,-0l0,2.143l4.065,-0l-0,-2.143l-4.065,-0Zm5.68,-0l-0,2.143l4.077,-0l0,-2.143l-4.077,-0Z" style="fill:#fafafa;"/></svg>