<?xml version="1.0" encoding="UTF-8" standalone="no"?><!DOCTYPE svg PUBLIC "-//W3C//DTD SVG 1.1//EN" "http://www.w3.org/Graphics/SVG/1.1/DTD/svg11.dtd"><svg width="100%" height="100%" viewBox="0 0 25 27" version="1.1" xmlns="http://www.w3.org/2000/svg" xmlns:xlink="http://www.w3.org/1999/xlink" xml:space="preserve" xmlns:serif="http://www.serif.com/" style="fill-rule:evenodd;clip-rule:evenodd;stroke-linejoin:round;stroke-miterlimit:2;"><path d="M7.095,0.062c3.402,0.006 6.841,-0.263 10.154,0.273c2.677,0.433 5.374,1.882 6.5,4.381c1.185,2.63 0.749,6.032 -1.513,8.022l-0.065,0.054c0.084,0.078 0.166,0.157 0.247,0.237c1.764,1.778 2.844,4.364 2.354,6.93c-0.393,2.062 -1.598,3.972 -3.423,5.077c-2.576,1.561 -5.745,1.597 -8.652,1.619c-3.648,0.036 -7.293,0.111 -10.948,-0.011c-0.843,-0.06 -1.55,-0.776 -1.61,-1.61c-0.113,-2.426 -0.066,-4.875 -0.096,-7.319c-0.06,-5.336 -0.081,-10.675 0.096,-16.018c0.06,-0.843 0.775,-1.55 1.61,-1.61c1.772,-0.084 3.561,-0.026 5.346,-0.025Zm4.426,16.898c-0.643,0.002 -1.589,0.005 -1.589,0.005l-0,2.854c0.878,0.001 1.755,0.006 2.633,0.005c0.706,-0.003 1.501,0.008 1.867,-0.565c0.658,-1.03 0.373,-2.291 -1.872,-2.3c-0.346,0 -0.693,0 -1.039,0.001Zm-0.154,-9.252l-0.917,0.003l-0.43,0.001l-0,2.476c1.806,0.015 4.395,0.678 4,-1.634c-0.139,-0.814 -1.356,-0.848 -2.653,-0.846Z" style="fill:#fafafa;fill-rule:nonzero;"/></svg>