<?xml version="1.0" encoding="UTF-8" standalone="no"?><!DOCTYPE svg PUBLIC "-//W3C//DTD SVG 1.1//EN" "http://www.w3.org/Graphics/SVG/1.1/DTD/svg11.dtd"><svg width="100%" height="100%" viewBox="0 0 50 59" version="1.1" xmlns="http://www.w3.org/2000/svg" xmlns:xlink="http://www.w3.org/1999/xlink" xml:space="preserve" xmlns:serif="http://www.serif.com/" style="fill-rule:evenodd;clip-rule:evenodd;stroke-linejoin:round;stroke-miterlimit:2;"><g id="upload-text" serif:id="upload text"><path d="M26.129,52.931l-16.546,-0c-5.289,-0 -9.583,-4.294 -9.583,-9.584l-0,-33.764c-0,-5.289 4.294,-9.583 9.583,-9.583l26.81,-0c5.289,0 9.583,4.294 9.583,9.583l0,27.79c-2.114,-1.426 -4.66,-2.258 -7.398,-2.258c-7.316,-0 -13.255,5.939 -13.255,13.255c-0,1.602 0.284,3.138 0.806,4.561Zm0.558,-25.158l-17.819,0c-1.669,0 -3.024,1.355 -3.024,3.025c-0,1.669 1.355,3.024 3.024,3.024l17.819,-0c1.669,-0 3.024,-1.355 3.024,-3.024c0,-1.67 -1.355,-3.025 -3.024,-3.025Zm-6.723,-9.499l-11.096,-0c-1.669,-0 -3.024,1.355 -3.024,3.024c-0,1.669 1.355,3.024 3.024,3.024l11.096,0c1.669,0 3.024,-1.355 3.024,-3.024c0,-1.669 -1.355,-3.024 -3.024,-3.024Zm13.28,-9.793l-24.376,-0c-1.669,-0 -3.024,1.355 -3.024,3.024c-0,1.669 1.355,3.024 3.024,3.024l24.376,-0c1.669,-0 3.024,-1.355 3.024,-3.024c0,-1.669 -1.355,-3.024 -3.024,-3.024Z" style="fill:#e0e0e0;"/><path d="M38.578,37.847c5.807,0 10.522,4.715 10.522,10.523c0,5.807 -4.715,10.523 -10.522,10.523c-5.808,-0 -10.523,-4.716 -10.523,-10.523c-0,-5.808 4.715,-10.523 10.523,-10.523Zm0,5.033l-0.028,0l-0.014,0.001l-0.014,0l-0.014,0.001l-0.014,0.001l-0.008,0.001c-0.052,0.004 -0.102,0.012 -0.152,0.023l-0.028,0.007c-0.178,0.046 -0.345,0.137 -0.484,0.273l-2.765,2.577c-0.437,0.408 -0.461,1.093 -0.053,1.53c0.407,0.437 1.092,0.461 1.529,0.054l0.962,-0.898l0,6.328c0,0.597 0.485,1.082 1.083,1.082c0.597,-0 1.082,-0.485 1.082,-1.082l-0,-6.328l0.962,0.898c0.437,0.407 1.122,0.383 1.53,-0.054c0.407,-0.437 0.383,-1.122 -0.054,-1.53l-2.764,-2.576c-0.136,-0.133 -0.299,-0.223 -0.472,-0.27l-0.015,-0.004l-0.029,-0.007l-0.008,-0.002c-0.045,-0.01 -0.092,-0.017 -0.14,-0.021l-0.019,-0.002l-0.024,-0.001l-0.024,-0.001l-0.025,-0Z" style="fill:#e0e0e0;"/></g></svg>