<?xml version="1.0" encoding="UTF-8" standalone="no"?><!DOCTYPE svg PUBLIC "-//W3C//DTD SVG 1.1//EN" "http://www.w3.org/Graphics/SVG/1.1/DTD/svg11.dtd"><svg width="100%" height="100%" viewBox="0 0 66 25" version="1.1" xmlns="http://www.w3.org/2000/svg" xmlns:xlink="http://www.w3.org/1999/xlink" xml:space="preserve" xmlns:serif="http://www.serif.com/" style="fill-rule:evenodd;clip-rule:evenodd;stroke-linejoin:round;stroke-miterlimit:2;"><g><path d="M3.571,23.607c-0.214,0 -0.404,-0.077 -0.571,-0.232c-0.167,-0.155 -0.238,-0.339 -0.214,-0.554l0.5,-3.321l-2.429,0c-0.238,0 -0.44,-0.083 -0.607,-0.25c-0.167,-0.167 -0.25,-0.369 -0.25,-0.607l-0,-3c-0,-0.238 0.083,-0.441 0.25,-0.607c0.167,-0.167 0.369,-0.25 0.607,-0.25l3.143,-0l0.643,-4.357l-2.857,-0c-0.238,-0 -0.441,-0.084 -0.607,-0.25c-0.167,-0.167 -0.25,-0.369 -0.25,-0.608l-0,-3c-0,-0.238 0.083,-0.44 0.25,-0.607c0.166,-0.166 0.369,-0.25 0.607,-0.25l3.571,0l0.5,-3.357c0.048,-0.214 0.149,-0.393 0.304,-0.536c0.154,-0.142 0.339,-0.214 0.553,-0.214l2.965,0c0.214,0 0.398,0.078 0.553,0.232c0.155,0.155 0.22,0.34 0.197,0.554l-0.5,3.321l3.535,0l0.5,-3.357c0.048,-0.214 0.149,-0.393 0.304,-0.536c0.155,-0.142 0.339,-0.214 0.553,-0.214l2.965,0c0.214,0 0.399,0.078 0.553,0.232c0.155,0.155 0.221,0.34 0.197,0.554l-0.5,3.321l2.428,0c0.238,0 0.441,0.084 0.607,0.25c0.167,0.167 0.25,0.369 0.25,0.607l0,3c0,0.239 -0.083,0.441 -0.25,0.608c-0.166,0.166 -0.369,0.25 -0.607,0.25l-3.107,-0l-0.643,4.357l2.822,-0c0.238,-0 0.44,0.083 0.607,0.25c0.167,0.166 0.25,0.369 0.25,0.607l-0,3c-0,0.238 -0.083,0.44 -0.25,0.607c-0.167,0.167 -0.369,0.25 -0.607,0.25l-3.536,0l-0.5,3.357c-0.048,0.214 -0.143,0.393 -0.286,0.536c-0.143,0.143 -0.333,0.214 -0.571,0.214l-2.964,0c-0.215,0 -0.399,-0.077 -0.554,-0.232c-0.155,-0.155 -0.232,-0.339 -0.232,-0.554l0.5,-3.321l-3.5,0l-0.5,3.357c-0.048,0.214 -0.143,0.393 -0.286,0.536c-0.143,0.143 -0.333,0.214 -0.571,0.214l-2.965,0Zm5.036,-8.821l3.5,-0l0.643,-4.357l-3.5,-0l-0.643,4.357Z" style="fill:#fafafa;fill-rule:nonzero;"/><path d="M26.214,25c-0.262,0 -0.476,-0.083 -0.643,-0.25c-0.166,-0.167 -0.25,-0.381 -0.25,-0.643l0,-23.178c0,-0.262 0.084,-0.483 0.25,-0.661c0.167,-0.179 0.381,-0.268 0.643,-0.268l4.893,0c0.262,0 0.482,0.089 0.661,0.268c0.178,0.178 0.268,0.399 0.268,0.661l-0,8.464l8.428,-0l0,-8.464c0,-0.262 0.09,-0.483 0.268,-0.661c0.179,-0.179 0.399,-0.268 0.661,-0.268l4.857,0c0.262,0 0.482,0.089 0.661,0.268c0.178,0.178 0.268,0.399 0.268,0.661l-0,23.178c-0,0.262 -0.09,0.476 -0.268,0.643c-0.179,0.167 -0.399,0.25 -0.661,0.25l-4.857,0c-0.262,0 -0.482,-0.083 -0.661,-0.25c-0.178,-0.167 -0.268,-0.381 -0.268,-0.643l0,-8.75l-8.428,0l-0,8.75c-0,0.262 -0.09,0.476 -0.268,0.643c-0.179,0.167 -0.399,0.25 -0.661,0.25l-4.893,0Z" style="fill:#fafafa;fill-rule:nonzero;"/><path d="M59.5,25c-0.238,0 -0.446,-0.089 -0.625,-0.268c-0.179,-0.178 -0.268,-0.387 -0.268,-0.625l0,-16.714l-4.786,3.678c-0.19,0.119 -0.369,0.179 -0.535,0.179c-0.286,0 -0.536,-0.143 -0.75,-0.429l-2.215,-2.857c-0.095,-0.166 -0.142,-0.345 -0.142,-0.535c-0,-0.334 0.131,-0.596 0.392,-0.786l8.286,-6.393c0.238,-0.167 0.512,-0.25 0.822,-0.25l4.714,0c0.262,0 0.482,0.083 0.661,0.25c0.178,0.167 0.267,0.381 0.267,0.643l0,23.214c0,0.262 -0.089,0.476 -0.267,0.643c-0.179,0.167 -0.399,0.25 -0.661,0.25l-4.893,-0Z" style="fill:#fafafa;fill-rule:nonzero;"/></g></svg>