<?xml version="1.0" encoding="UTF-8" standalone="no"?><!DOCTYPE svg PUBLIC "-//W3C//DTD SVG 1.1//EN" "http://www.w3.org/Graphics/SVG/1.1/DTD/svg11.dtd"><svg width="100%" height="100%" viewBox="0 0 54 20" version="1.1" xmlns="http://www.w3.org/2000/svg" xmlns:xlink="http://www.w3.org/1999/xlink" xml:space="preserve" xmlns:serif="http://www.serif.com/" style="fill-rule:evenodd;clip-rule:evenodd;stroke-linejoin:round;stroke-miterlimit:2;"><path d="M5.876,10.999c0.142,-1.782 0.688,-3.203 1.637,-4.263c1.037,-1.157 2.445,-1.736 4.223,-1.736c1.666,-0 3.009,0.537 4.027,1.611l0,-5.917c0,-0.203 0.07,-0.37 0.209,-0.5c0.139,-0.129 0.301,-0.194 0.486,-0.194l3.583,-0c0.204,-0 0.375,0.065 0.514,0.194c0.139,0.13 0.208,0.297 0.208,0.5l0,10.305l2.695,-0c0.228,-1.718 0.885,-3.097 1.972,-4.138c1.296,-1.241 3.046,-1.861 5.25,-1.861c1.593,-0 2.94,0.319 4.042,0.958c1.101,0.639 1.926,1.519 2.472,2.639c0.358,0.735 0.599,1.535 0.722,2.402l2.597,-0l0,-10.305c0,-0.203 0.07,-0.37 0.209,-0.5c0.139,-0.129 0.31,-0.194 0.514,-0.194l3.472,-0c0.203,-0 0.37,0.065 0.5,0.194c0.129,0.13 0.194,0.297 0.194,0.5l0,10.305l6.29,-0c0.766,-0 1.388,0.622 1.388,1.388c0,0.766 -0.622,1.388 -1.388,1.388l-6.29,-0l0,5.253c0,0.185 -0.065,0.347 -0.194,0.486c-0.13,0.139 -0.297,0.208 -0.5,0.208l-3.472,0c-0.204,0 -0.375,-0.065 -0.514,-0.194c-0.139,-0.13 -0.209,-0.297 -0.209,-0.5l0,-5.253l-2.926,-0c-0.089,0.039 -0.188,0.058 -0.296,0.058l-8.805,0l-0,0.167c0.018,0.833 0.212,1.505 0.583,2.014c0.37,0.509 0.898,0.764 1.583,0.764c0.445,-0 0.801,-0.088 1.07,-0.264c0.268,-0.176 0.523,-0.403 0.764,-0.681c0.166,-0.185 0.3,-0.301 0.402,-0.347c0.102,-0.046 0.264,-0.069 0.486,-0.069l3.639,-0c0.167,-0 0.31,0.051 0.431,0.152c0.12,0.102 0.18,0.227 0.18,0.375c0,0.482 -0.273,1.047 -0.819,1.695c-0.546,0.648 -1.343,1.204 -2.389,1.667c-1.046,0.463 -2.282,0.694 -3.708,0.694c-2.26,0 -4.037,-0.606 -5.334,-1.819c-1.125,-1.054 -1.776,-2.522 -1.952,-4.406l-2.659,-0l0,5.253c0,0.203 -0.069,0.37 -0.208,0.5c-0.139,0.129 -0.31,0.194 -0.514,0.194l-3.305,0c-0.186,0 -0.348,-0.069 -0.487,-0.208c-0.138,-0.139 -0.208,-0.301 -0.208,-0.486l0,-0.861c-1,1.222 -2.435,1.833 -4.305,1.833c-1.797,0 -3.209,-0.565 -4.237,-1.694c-0.977,-1.075 -1.523,-2.585 -1.638,-4.531l-4.473,-0c-0.766,-0 -1.388,-0.622 -1.388,-1.388c-0,-0.766 0.622,-1.388 1.388,-1.388l4.488,-0Zm9.86,2.776l-4.766,-0c0.088,0.675 0.283,1.218 0.585,1.628c0.361,0.491 0.958,0.736 1.792,0.736c0.796,-0 1.389,-0.255 1.777,-0.764c0.333,-0.435 0.537,-0.969 0.612,-1.6Zm-0.008,-2.776c-0.082,-0.562 -0.288,-1.039 -0.617,-1.43c-0.399,-0.472 -0.987,-0.708 -1.764,-0.708c-0.834,0 -1.431,0.245 -1.792,0.736c-0.267,0.363 -0.451,0.831 -0.551,1.402l4.724,-0Zm17.174,-0l0,-0.055c0,-0.888 -0.194,-1.578 -0.583,-2.069c-0.389,-0.491 -0.935,-0.736 -1.639,-0.736c-0.704,-0 -1.245,0.245 -1.625,0.736c-0.38,0.491 -0.569,1.181 -0.569,2.069l-0,0.055l4.416,-0Z" style="fill:#fafafa;fill-rule:nonzero;"/></svg>