<?xml version="1.0" encoding="UTF-8" standalone="no"?><!DOCTYPE svg PUBLIC "-//W3C//DTD SVG 1.1//EN" "http://www.w3.org/Graphics/SVG/1.1/DTD/svg11.dtd"><svg width="100%" height="100%" viewBox="0 0 43 25" version="1.1" xmlns="http://www.w3.org/2000/svg" xmlns:xlink="http://www.w3.org/1999/xlink" xml:space="preserve" xmlns:serif="http://www.serif.com/" style="fill-rule:evenodd;clip-rule:evenodd;stroke-linejoin:round;stroke-miterlimit:2;"><g><path d="M42.382,3.427c0,-1.28 -1.039,-2.319 -2.319,-2.319l-28.815,-0c-1.28,-0 -2.319,1.039 -2.319,2.319c-0,1.28 1.039,2.32 2.319,2.32l28.815,-0c1.28,-0 2.319,-1.04 2.319,-2.32Z" style="fill:#fafafa;"/><path d="M42.382,12.547c0,-1.28 -1.039,-2.319 -2.319,-2.319l-28.815,-0c-1.28,-0 -2.319,1.039 -2.319,2.319c-0,1.28 1.039,2.32 2.319,2.32l28.815,-0c1.28,-0 2.319,-1.04 2.319,-2.32Z" style="fill:#fafafa;"/><path d="M42.382,21.573c0,-1.28 -1.039,-2.32 -2.319,-2.32l-28.815,0c-1.28,0 -2.319,1.04 -2.319,2.32c-0,1.28 1.039,2.319 2.319,2.319l28.815,0c1.28,0 2.319,-1.039 2.319,-2.319Z" style="fill:#fafafa;"/><circle cx="3.427" cy="3.427" r="3.427" style="fill:#fafafa;"/><circle cx="3.427" cy="12.547" r="3.427" style="fill:#fafafa;"/><circle cx="3.427" cy="21.573" r="3.427" style="fill:#fafafa;"/></g></svg>