<?xml version="1.0" encoding="UTF-8" standalone="no"?><!DOCTYPE svg PUBLIC "-//W3C//DTD SVG 1.1//EN" "http://www.w3.org/Graphics/SVG/1.1/DTD/svg11.dtd"><svg width="100%" height="100%" viewBox="0 0 59 17" version="1.1" xmlns="http://www.w3.org/2000/svg" xmlns:xlink="http://www.w3.org/1999/xlink" xml:space="preserve" xmlns:serif="http://www.serif.com/" style="fill-rule:evenodd;clip-rule:evenodd;stroke-linejoin:round;stroke-miterlimit:2;"><g><path d="M10.075,0.328c2.523,1.562 -4.155,3.846 -0.742,7.156c4.315,4.184 -0.482,9.516 -4.501,9.516c-2.667,-0 -4.832,-2.165 -4.832,-4.832c-0,-5.125 6.616,-13.982 10.075,-11.84Z" style="fill:#fafafa;"/><path d="M48.157,16.672c-2.523,-1.562 4.156,-3.846 0.742,-7.156c-4.315,-4.184 0.483,-9.516 4.502,-9.516c2.666,0 4.831,2.165 4.831,4.832c0,5.125 -6.616,13.982 -10.075,11.84Z" style="fill:#fafafa;"/><path d="M22.907,0.328c2.523,1.562 -4.156,3.846 -0.742,7.156c4.315,4.184 -0.483,9.516 -4.502,9.516c-2.666,-0 -4.831,-2.165 -4.831,-4.832c-0,-5.125 6.616,-13.982 10.075,-11.84Z" style="fill:#fafafa;"/><path d="M35.325,16.672c-2.523,-1.562 4.156,-3.846 0.743,-7.156c-4.315,-4.184 0.482,-9.516 4.501,-9.516c2.667,0 4.832,2.165 4.832,4.832c-0,5.125 -6.617,13.982 -10.076,11.84Z" style="fill:#fafafa;"/></g></svg>