<?xml version="1.0" encoding="UTF-8" standalone="no"?><!DOCTYPE svg PUBLIC "-//W3C//DTD SVG 1.1//EN" "http://www.w3.org/Graphics/SVG/1.1/DTD/svg11.dtd"><svg width="100%" height="100%" viewBox="0 0 50 59" version="1.1" xmlns="http://www.w3.org/2000/svg" xmlns:xlink="http://www.w3.org/1999/xlink" xml:space="preserve" xmlns:serif="http://www.serif.com/" style="fill-rule:evenodd;clip-rule:evenodd;stroke-linejoin:round;stroke-miterlimit:2;"><g id="download-encrypted" serif:id="download encrypted"><path d="M26.129,52.931l-16.546,-0c-5.289,-0 -9.583,-4.294 -9.583,-9.584l-0,-33.764c-0,-5.289 4.294,-9.583 9.583,-9.583l26.81,0c5.289,0 9.583,4.294 9.583,9.583l0,27.79c-2.114,-1.426 -4.66,-2.258 -7.398,-2.258c-7.316,-0 -13.255,5.939 -13.255,13.255c-0,1.602 0.284,3.138 0.806,4.561Zm3.377,-21.97c2.012,-0 3.645,-1.634 3.645,-3.645l0,-7.291c0,-1.642 -1.088,-3.032 -2.582,-3.488c0.052,-0.168 0.08,-0.344 0.081,-0.521c0.017,-4.436 -3.45,-7.832 -7.53,-7.894c-0.089,-0 -0.177,-0 -0.265,0.001c-3.645,0.064 -6.43,2.629 -7.214,5.821c-0.217,0.885 -0.433,1.859 -0.29,2.611c-1.465,0.472 -2.526,1.848 -2.526,3.47l0,7.291c0,2.012 1.633,3.645 3.645,3.645l13.036,0Zm-6.518,-9.673c1.315,-0 2.382,1.067 2.382,2.382c0,1.315 -1.067,2.383 -2.382,2.383c-1.315,-0 -2.382,-1.068 -2.382,-2.383c-0,-1.315 1.067,-2.382 2.382,-2.382Zm4.882,-4.909c-0.178,-1.755 -0.343,-3.796 -2.022,-4.819c-1.909,-1.163 -4.675,-1.053 -6.247,0.56c-1.084,1.113 -1.53,2.774 -1.502,4.233c-0,0 -0.004,0.009 -0.011,0.026l9.782,0Z" style="fill:#e0e0e0;"/><path d="M38.578,37.847c5.807,0 10.522,4.715 10.522,10.523c0,5.807 -4.715,10.523 -10.522,10.523c-5.808,-0 -10.523,-4.716 -10.523,-10.523c-0,-5.808 4.715,-10.523 10.523,-10.523Zm1.082,12.442l-0,-6.327c-0,-0.597 -0.485,-1.082 -1.082,-1.082c-0.598,-0 -1.083,0.485 -1.083,1.082l0,6.327l-0.962,-0.897c-0.437,-0.407 -1.122,-0.383 -1.529,0.054c-0.408,0.437 -0.384,1.122 0.053,1.529l2.765,2.577c0.141,0.138 0.311,0.23 0.491,0.275l0.009,0.002c0.054,0.013 0.108,0.022 0.164,0.027l0.022,0.002l0.02,0.001l0.011,0l0.026,0.001l0.028,-0l0.026,-0.001l0.014,-0.001l0.023,-0.001l0.029,-0.002l0.011,-0.002c0.03,-0.003 0.06,-0.007 0.089,-0.013l0.021,-0.004l0.03,-0.007l0.026,-0.007c0.173,-0.047 0.336,-0.137 0.472,-0.27l2.764,-2.577c0.437,-0.407 0.461,-1.092 0.054,-1.529c-0.408,-0.437 -1.093,-0.461 -1.53,-0.054l-0.962,0.897Z" style="fill:#e0e0e0;"/></g></svg>