<?xml version="1.0" encoding="UTF-8" standalone="no"?><!DOCTYPE svg PUBLIC "-//W3C//DTD SVG 1.1//EN" "http://www.w3.org/Graphics/SVG/1.1/DTD/svg11.dtd"><svg width="100%" height="100%" viewBox="0 0 22 22" version="1.1" xmlns="http://www.w3.org/2000/svg" xmlns:xlink="http://www.w3.org/1999/xlink" xml:space="preserve" xmlns:serif="http://www.serif.com/" style="fill-rule:evenodd;clip-rule:evenodd;stroke-linejoin:round;stroke-miterlimit:2;"><path id="footnote" d="M7.795,7.795l-1.419,-5.295c-0.284,-1.058 0.346,-2.148 1.404,-2.432c1.059,-0.284 2.149,0.346 2.433,1.404l1.418,5.295l3.876,-3.876c0.775,-0.775 2.033,-0.775 2.808,-0c0.775,0.775 0.775,2.033 0,2.809l-3.875,3.875l5.294,1.419c1.059,0.283 1.688,1.373 1.404,2.432c-0.283,1.059 -1.373,1.688 -2.432,1.404l-5.294,-1.418l1.418,5.294c0.284,1.059 -0.345,2.149 -1.404,2.432c-1.059,0.284 -2.149,-0.345 -2.432,-1.404l-1.419,-5.294l-3.875,3.875c-0.776,0.775 -2.034,0.775 -2.809,0c-0.775,-0.775 -0.775,-2.033 -0,-2.808l3.876,-3.876l-5.295,-1.418c-1.058,-0.284 -1.688,-1.374 -1.404,-2.433c0.284,-1.058 1.374,-1.688 2.432,-1.404l5.295,1.419Z" style="fill:#fafafa;"/></svg>