<?xml version="1.0" encoding="UTF-8" standalone="no"?><!DOCTYPE svg PUBLIC "-//W3C//DTD SVG 1.1//EN" "http://www.w3.org/Graphics/SVG/1.1/DTD/svg11.dtd"><svg width="100%" height="100%" viewBox="0 0 72 30" version="1.1" xmlns="http://www.w3.org/2000/svg" xmlns:xlink="http://www.w3.org/1999/xlink" xml:space="preserve" xmlns:serif="http://www.serif.com/" style="fill-rule:evenodd;clip-rule:evenodd;stroke-linecap:round;stroke-miterlimit:10;"><g id="node"><path d="M12.844,2.408c-5.76,0 -10.436,4.676 -10.436,10.436c0,5.759 4.676,10.435 10.436,10.435c5.759,0 10.435,-4.676 10.435,-10.435c0,-5.76 -4.676,-10.436 -10.435,-10.436Zm-0,3c4.104,0 7.435,3.332 7.435,7.436c0,4.104 -3.331,7.435 -7.435,7.435c-4.104,0 -7.436,-3.331 -7.436,-7.435c0,-4.104 3.332,-7.436 7.436,-7.436Z" style="fill:#fafafa;"/><path d="M58.718,2.408c-5.759,0 -10.435,4.676 -10.435,10.436c-0,5.759 4.676,10.435 10.435,10.435c5.76,0 10.436,-4.676 10.436,-10.435c-0,-5.76 -4.676,-10.436 -10.436,-10.436Zm0,3c4.104,0 7.436,3.332 7.436,7.436c-0,4.104 -3.332,7.435 -7.436,7.435c-4.103,0 -7.435,-3.331 -7.435,-7.435c-0,-4.104 3.332,-7.436 7.435,-7.436Z" style="fill:#fafafa;"/><path d="M40.834,12.501l4.061,4.062l-4.061,4.061" style="fill:none;stroke:#fafafa;stroke-width:2.71px;"/><path d="M25.767,16.563l19.128,-0" style="fill:none;stroke:#fafafa;stroke-width:2.71px;stroke-miterlimit:1.5;"/></g></svg>