<?xml version="1.0" encoding="UTF-8" standalone="no"?><!DOCTYPE svg PUBLIC "-//W3C//DTD SVG 1.1//EN" "http://www.w3.org/Graphics/SVG/1.1/DTD/svg11.dtd"><svg width="100%" height="100%" viewBox="0 0 62 18" version="1.1" xmlns="http://www.w3.org/2000/svg" xmlns:xlink="http://www.w3.org/1999/xlink" xml:space="preserve" xmlns:serif="http://www.serif.com/" style="fill-rule:evenodd;clip-rule:evenodd;stroke-linejoin:round;stroke-miterlimit:2;"><g id="mark"><path d="M61.875,1.75c-0,-0.966 -0.784,-1.75 -1.75,-1.75l-58.375,0c-0.966,0 -1.75,0.784 -1.75,1.75l0,13.577c0,0.966 0.784,1.75 1.75,1.75l58.375,0c0.966,0 1.75,-0.784 1.75,-1.75l-0,-13.577Z" style="fill:#fafafa;"/><g><path d="M3.324,12.736c-0.1,0 -0.187,-0.037 -0.262,-0.112c-0.075,-0.075 -0.113,-0.163 -0.113,-0.263l0,-7.05c0,-0.11 0.038,-0.2 0.113,-0.27c0.075,-0.07 0.162,-0.105 0.262,-0.105l1.74,0c0.11,0 0.2,0.035 0.27,0.105c0.07,0.07 0.105,0.16 0.105,0.27l0,0.51c0.24,-0.29 0.55,-0.535 0.93,-0.735c0.38,-0.2 0.81,-0.3 1.29,-0.3c1.1,0 1.855,0.43 2.265,1.29c0.24,-0.38 0.575,-0.69 1.005,-0.93c0.43,-0.24 0.89,-0.36 1.38,-0.36c0.82,0 1.488,0.278 2.003,0.833c0.515,0.555 0.772,1.382 0.772,2.482l0,4.26c0,0.1 -0.035,0.188 -0.105,0.263c-0.07,0.075 -0.16,0.112 -0.27,0.112l-1.845,0c-0.11,0 -0.202,-0.035 -0.277,-0.105c-0.075,-0.07 -0.113,-0.16 -0.113,-0.27l0,-4.155c0,-0.46 -0.097,-0.797 -0.292,-1.012c-0.195,-0.215 -0.458,-0.323 -0.788,-0.323c-0.31,0 -0.562,0.108 -0.757,0.323c-0.195,0.215 -0.293,0.552 -0.293,1.012l0,4.155c0,0.1 -0.035,0.188 -0.105,0.263c-0.07,0.075 -0.16,0.112 -0.27,0.112l-1.845,0c-0.11,0 -0.202,-0.035 -0.277,-0.105c-0.075,-0.07 -0.113,-0.16 -0.113,-0.27l0,-4.155c0,-0.46 -0.1,-0.797 -0.3,-1.012c-0.2,-0.215 -0.46,-0.323 -0.78,-0.323c-0.31,0 -0.565,0.108 -0.765,0.323c-0.2,0.215 -0.3,0.547 -0.3,0.997l0,4.17c0,0.1 -0.035,0.188 -0.105,0.263c-0.07,0.075 -0.16,0.112 -0.27,0.112l-1.89,0Z" style="fill:#131313;fill-rule:nonzero;"/><path d="M19.074,12.886c-0.53,0 -1.012,-0.102 -1.447,-0.307c-0.435,-0.205 -0.775,-0.488 -1.02,-0.848c-0.245,-0.36 -0.368,-0.755 -0.368,-1.185c0,-0.68 0.283,-1.232 0.848,-1.657c0.565,-0.425 1.342,-0.718 2.332,-0.878l1.86,-0.285l0,-0.18c0,-0.37 -0.075,-0.64 -0.225,-0.81c-0.15,-0.17 -0.405,-0.255 -0.765,-0.255c-0.2,0 -0.367,0.035 -0.502,0.105c-0.135,0.07 -0.288,0.175 -0.458,0.315c-0.13,0.11 -0.245,0.19 -0.345,0.24c-0.04,0.07 -0.09,0.105 -0.15,0.105l-1.74,0c-0.1,0 -0.182,-0.032 -0.247,-0.097c-0.065,-0.065 -0.093,-0.143 -0.083,-0.233c0.01,-0.27 0.145,-0.572 0.405,-0.907c0.26,-0.335 0.655,-0.623 1.185,-0.863c0.53,-0.24 1.185,-0.36 1.965,-0.36c1.24,0 2.16,0.273 2.76,0.818c0.6,0.545 0.9,1.282 0.9,2.212l0,4.545c0,0.1 -0.035,0.188 -0.105,0.263c-0.07,0.075 -0.16,0.112 -0.27,0.112l-1.845,0c-0.1,0 -0.187,-0.037 -0.262,-0.112c-0.075,-0.075 -0.113,-0.163 -0.113,-0.263l0,-0.525c-0.22,0.31 -0.525,0.563 -0.915,0.758c-0.39,0.195 -0.855,0.292 -1.395,0.292Zm0.75,-1.77c0.44,0 0.798,-0.145 1.073,-0.435c0.275,-0.29 0.412,-0.71 0.412,-1.26l0,-0.18l-1.245,0.21c-0.84,0.16 -1.26,0.46 -1.26,0.9c0,0.23 0.098,0.415 0.293,0.555c0.195,0.14 0.437,0.21 0.727,0.21Z" style="fill:#131313;fill-rule:nonzero;"/><path d="M25.989,12.736c-0.1,0 -0.187,-0.037 -0.262,-0.112c-0.075,-0.075 -0.113,-0.163 -0.113,-0.263l0,-7.035c0,-0.11 0.035,-0.202 0.105,-0.277c0.07,-0.075 0.16,-0.113 0.27,-0.113l1.83,0c0.11,0 0.203,0.038 0.278,0.113c0.075,0.075 0.112,0.167 0.112,0.277l0,0.57c0.28,-0.31 0.608,-0.547 0.983,-0.712c0.375,-0.165 0.792,-0.248 1.252,-0.248l0.675,0c0.11,0 0.2,0.035 0.27,0.105c0.07,0.07 0.105,0.16 0.105,0.27l0,1.635c0,0.1 -0.035,0.188 -0.105,0.263c-0.07,0.075 -0.16,0.112 -0.27,0.112l-1.515,0c-0.4,0 -0.707,0.11 -0.922,0.33c-0.215,0.22 -0.323,0.53 -0.323,0.93l0,3.78c0,0.11 -0.037,0.2 -0.112,0.27c-0.075,0.07 -0.168,0.105 -0.278,0.105l-1.98,0Z" style="fill:#131313;fill-rule:nonzero;"/><path d="M32.919,12.736c-0.11,0 -0.202,-0.035 -0.277,-0.105c-0.075,-0.07 -0.113,-0.16 -0.113,-0.27l0,-9.9c0,-0.11 0.038,-0.2 0.113,-0.27c0.075,-0.07 0.167,-0.105 0.277,-0.105l1.83,0c0.11,0 0.2,0.035 0.27,0.105c0.07,0.07 0.105,0.16 0.105,0.27l0,5.01l1.995,-2.28c0.02,-0.02 0.058,-0.055 0.113,-0.105c0.055,-0.05 0.112,-0.087 0.172,-0.112c0.06,-0.025 0.135,-0.038 0.225,-0.038l2.115,0c0.09,0 0.168,0.033 0.233,0.098c0.065,0.065 0.097,0.147 0.097,0.247c0,0.09 -0.035,0.17 -0.105,0.24l-2.64,2.91l3.015,3.735c0.07,0.09 0.105,0.165 0.105,0.225c0,0.1 -0.032,0.183 -0.097,0.248c-0.065,0.065 -0.148,0.097 -0.248,0.097l-2.175,0c-0.13,0 -0.227,-0.02 -0.292,-0.06c-0.065,-0.04 -0.143,-0.105 -0.233,-0.195l-2.28,-2.82l0,2.7c0,0.1 -0.035,0.188 -0.105,0.263c-0.07,0.075 -0.16,0.112 -0.27,0.112l-1.83,0Z" style="fill:#131313;fill-rule:nonzero;"/><path d="M44.709,12.886c-1.22,0 -2.18,-0.327 -2.88,-0.982c-0.7,-0.655 -1.06,-1.608 -1.08,-2.858l0,-0.465c0.04,-1.19 0.41,-2.12 1.11,-2.79c0.7,-0.67 1.645,-1.005 2.835,-1.005c0.86,0 1.588,0.173 2.183,0.518c0.595,0.345 1.04,0.82 1.335,1.425c0.295,0.605 0.442,1.292 0.442,2.062l0,0.375c0,0.11 -0.037,0.203 -0.112,0.278c-0.075,0.075 -0.168,0.112 -0.278,0.112l-4.755,0l0,0.09c0.01,0.45 0.115,0.813 0.315,1.088c0.2,0.275 0.485,0.412 0.855,0.412c0.24,0 0.433,-0.047 0.578,-0.142c0.145,-0.095 0.282,-0.218 0.412,-0.368c0.09,-0.1 0.163,-0.162 0.218,-0.187c0.055,-0.025 0.142,-0.038 0.262,-0.038l1.965,0c0.09,0 0.168,0.028 0.233,0.083c0.065,0.055 0.097,0.122 0.097,0.202c0,0.26 -0.147,0.565 -0.442,0.915c-0.295,0.35 -0.725,0.65 -1.29,0.9c-0.565,0.25 -1.233,0.375 -2.003,0.375Zm1.185,-4.86l0,-0.03c0,-0.48 -0.105,-0.852 -0.315,-1.117c-0.21,-0.265 -0.505,-0.398 -0.885,-0.398c-0.38,0 -0.672,0.133 -0.877,0.398c-0.205,0.265 -0.308,0.637 -0.308,1.117l0,0.03l2.385,0Z" style="fill:#131313;fill-rule:nonzero;"/><path d="M52.929,12.886c-0.97,0 -1.732,-0.305 -2.287,-0.915c-0.555,-0.61 -0.853,-1.48 -0.893,-2.61l-0.015,-0.525l0.015,-0.54c0.04,-1.09 0.34,-1.947 0.9,-2.572c0.56,-0.625 1.32,-0.938 2.28,-0.938c0.9,0 1.625,0.29 2.175,0.87l0,-3.195c0,-0.11 0.038,-0.2 0.113,-0.27c0.075,-0.07 0.162,-0.105 0.262,-0.105l1.935,0c0.11,0 0.203,0.035 0.278,0.105c0.075,0.07 0.112,0.16 0.112,0.27l0,9.9c0,0.11 -0.037,0.2 -0.112,0.27c-0.075,0.07 -0.168,0.105 -0.278,0.105l-1.785,0c-0.1,0 -0.187,-0.037 -0.262,-0.112c-0.075,-0.075 -0.113,-0.163 -0.113,-0.263l0,-0.465c-0.54,0.66 -1.315,0.99 -2.325,0.99Zm0.87,-2.085c0.43,0 0.75,-0.137 0.96,-0.412c0.21,-0.275 0.325,-0.623 0.345,-1.043c0.02,-0.28 0.03,-0.47 0.03,-0.57c0,-0.11 -0.01,-0.295 -0.03,-0.555c-0.02,-0.39 -0.137,-0.712 -0.352,-0.967c-0.215,-0.255 -0.533,-0.383 -0.953,-0.383c-0.45,0 -0.772,0.133 -0.967,0.398c-0.195,0.265 -0.308,0.632 -0.338,1.102l-0.015,0.465l0.015,0.465c0.03,0.47 0.143,0.838 0.338,1.103c0.195,0.265 0.517,0.397 0.967,0.397Z" style="fill:#131313;fill-rule:nonzero;"/></g></g></svg>