<?xml version="1.0" encoding="UTF-8" standalone="no"?><!DOCTYPE svg PUBLIC "-//W3C//DTD SVG 1.1//EN" "http://www.w3.org/Graphics/SVG/1.1/DTD/svg11.dtd"><svg width="100%" height="100%" viewBox="0 0 46 25" version="1.1" xmlns="http://www.w3.org/2000/svg" xmlns:xlink="http://www.w3.org/1999/xlink" xml:space="preserve" xmlns:serif="http://www.serif.com/" style="fill-rule:evenodd;clip-rule:evenodd;stroke-linejoin:round;stroke-miterlimit:2;"><path d="M42.197,25l-38.71,0c-1.924,0 -3.487,-1.563 -3.487,-3.487l0,-18.026c0,-1.924 1.563,-3.487 3.487,-3.487l38.71,0c1.925,0 3.487,1.563 3.487,3.487l0,18.026c0,1.924 -1.562,3.487 -3.487,3.487Zm-36.663,-2.803c-0,-0 8.836,-13.212 10.453,-13.439c1.618,-0.227 5.716,6.46 5.716,6.46c-0,0 3.195,-3.818 4.369,-3.901c1.226,-0.085 9.976,10.751 9.976,10.751l-30.514,0.129Zm26.128,-13.641c-0.821,-1.492 -0.277,-3.369 1.214,-4.19c1.492,-0.821 3.369,-0.277 4.191,1.214c0.821,1.492 0.276,3.369 -1.215,4.19c-1.492,0.821 -3.369,0.277 -4.19,-1.214Z" style="fill:#fafafa;"/></svg>