<?xml version="1.0" encoding="UTF-8" standalone="no"?><!DOCTYPE svg PUBLIC "-//W3C//DTD SVG 1.1//EN" "http://www.w3.org/Graphics/SVG/1.1/DTD/svg11.dtd"><svg width="100%" height="100%" viewBox="0 0 31 23" version="1.1" xmlns="http://www.w3.org/2000/svg" xmlns:xlink="http://www.w3.org/1999/xlink" xml:space="preserve" xmlns:serif="http://www.serif.com/" style="fill-rule:evenodd;clip-rule:evenodd;stroke-linejoin:round;stroke-miterlimit:2;"><g id="link"><path d="M17.338,8.932c2.848,0.184 3.676,6.563 0.286,9.512c-2.356,2.051 -5.654,2.99 -8.666,3.694c-4.301,0.949 -9.005,-2.399 -8.958,-7.295c0.028,-2.871 1.671,-5.602 4.549,-6.832c1.421,-0.607 3.099,-1.39 4.071,-1.129c1.368,0.368 1.621,2.763 -0.085,3.428c-0.417,0.154 -0.838,0.296 -1.255,0.451c-1.174,0.445 -2.405,1.037 -3.041,1.995c-1.211,1.82 -0.267,4.628 1.269,5.384c1.992,0.98 4.452,-0.25 6.491,-0.962c1.397,-0.497 2.759,-1.068 3.599,-2.453c0.897,-1.48 -0.763,-3.532 0.046,-4.931c0.338,-0.585 0.939,-0.896 1.694,-0.862Z" style="fill:#fafafa;"/><path d="M22.999,0c2.653,0.061 5.216,1.574 6.406,3.972c1.786,3.599 0.428,8.509 -3.473,10.211c-1.847,0.806 -4.359,1.989 -5.254,0.567c-0.584,-0.928 -0.187,-2.283 0.972,-2.738c0.417,-0.154 0.839,-0.297 1.255,-0.452c1.171,-0.443 2.391,-1.014 3.042,-1.994c1.213,-1.827 0.253,-4.636 -1.27,-5.385c-1.989,-0.978 -4.441,0.246 -6.491,0.962c-1.396,0.497 -2.76,1.069 -3.598,2.453c-0.991,1.637 0.923,3.889 -0.237,5.194c-0.787,0.885 -2.286,0.789 -3.115,-0.488c-1.862,-2.868 -0.853,-7.093 2.377,-9.213c2.29,-1.503 5.004,-2.296 7.615,-2.906c0.583,-0.128 1.174,-0.189 1.771,-0.183Z" style="fill:#fafafa;"/></g></svg>