<?xml version="1.0" encoding="UTF-8" standalone="no"?><!DOCTYPE svg PUBLIC "-//W3C//DTD SVG 1.1//EN" "http://www.w3.org/Graphics/SVG/1.1/DTD/svg11.dtd"><svg width="100%" height="100%" viewBox="0 0 34 25" version="1.1" xmlns="http://www.w3.org/2000/svg" xmlns:xlink="http://www.w3.org/1999/xlink" xml:space="preserve" xmlns:serif="http://www.serif.com/" style="fill-rule:evenodd;clip-rule:evenodd;stroke-linejoin:round;stroke-miterlimit:2;"><path id="hidden" d="M23.085,4.379l3.948,-3.948c0.574,-0.575 1.507,-0.575 2.081,-0c0.574,0.574 0.574,1.506 -0,2.08l-2.929,2.929c2.841,1.207 5.387,2.995 7.305,5.404c-0,0 0.465,0.662 0.333,1.34c-0.024,0.121 -0.06,0.233 -0.106,0.337c-0.296,1.319 -2.013,3.065 -3.767,4.287c-5.312,3.702 -12.369,4.964 -18.633,3.5l-4.261,4.261c-0.575,0.575 -1.507,0.575 -2.081,0c-0.574,-0.574 -0.574,-1.506 -0,-2.08l3.183,-3.183c-2.683,-1.095 -5.113,-2.76 -7.052,-5.023c-0.291,-0.34 -0.674,-0.866 -0.674,-0.866c-0.464,-0.753 -0.471,-0.968 -0.397,-1.451c0.082,-0.536 0.382,-1.157 0.891,-1.764c3.751,-4.474 9.913,-6.697 15.675,-6.684c2.172,0.016 4.372,0.298 6.484,0.861Zm0.562,3.599l-0.958,0.958c0.53,0.947 0.833,2.039 0.833,3.201c-0,1.99 -0.886,3.774 -2.285,4.979c3.468,-0.754 6.713,-2.387 9.118,-4.884c-1.832,-1.905 -4.159,-3.333 -6.708,-4.254Zm-12.082,7.921c-0.746,-1.066 -1.184,-2.363 -1.184,-3.762c-0,-2.019 0.912,-3.826 2.347,-5.032c-3.524,0.679 -6.786,2.329 -9.144,5.02l-0.01,0.012c1.852,2.182 4.37,3.705 7.174,4.578l0.817,-0.816Zm9.31,-5.149l-5.311,5.311c0.434,0.154 0.901,0.237 1.387,0.237c2.297,0 4.161,-1.864 4.161,-4.161c0,-0.486 -0.083,-0.953 -0.237,-1.387Zm-1.908,-2.253c-0.598,-0.332 -1.285,-0.52 -2.016,-0.52c-2.296,-0 -4.161,1.864 -4.161,4.16c0,0.731 0.189,1.419 0.521,2.016l5.656,-5.656Z" style="fill:#fafafa;"/></svg>