<?xml version="1.0" encoding="UTF-8" standalone="no"?><!DOCTYPE svg PUBLIC "-//W3C//DTD SVG 1.1//EN" "http://www.w3.org/Graphics/SVG/1.1/DTD/svg11.dtd"><svg width="100%" height="100%" viewBox="0 0 40 25" version="1.1" xmlns="http://www.w3.org/2000/svg" xmlns:xlink="http://www.w3.org/1999/xlink" xml:space="preserve" xmlns:serif="http://www.serif.com/" style="fill-rule:evenodd;clip-rule:evenodd;stroke-linejoin:round;stroke-miterlimit:2;"><g id="layout"><path d="M37.543,0.108c0.987,0.036 1.842,0.848 1.88,1.8c0.033,2.531 0.377,5.511 -1.88,5.593c-11.874,0.144 -23.751,0.144 -35.625,0c-0.988,-0.036 -1.842,-0.847 -1.88,-1.8c-0.034,-2.53 -0.378,-5.511 1.88,-5.593c11.874,-0.144 23.751,-0.144 35.625,0Zm-34.99,2.409l-0,2.576l34.355,-0l-0,-2.576l-34.355,-0Z" style="fill:#fafafa;"/><path d="M16.328,9.04c0.987,0.036 1.842,0.848 1.88,1.8c0.033,2.531 0.377,5.511 -1.88,5.593c-4.803,0.059 -9.607,0.059 -14.41,0c-0.988,-0.036 -1.842,-0.847 -1.88,-1.8c-0.034,-2.53 -0.378,-5.511 1.88,-5.593c4.803,-0.058 9.607,-0.058 14.41,0Zm-13.775,2.408l-0,2.577l13.14,-0l-0,-2.577l-13.14,0Z" style="fill:#fafafa;"/><path d="M35.043,9.04c2.151,0.039 4.059,1.853 4.1,3.927c0.018,2.705 0.053,5.409 -0.001,8.113c-0.067,2.041 -1.949,3.837 -4.099,3.877c-3.421,0.02 -6.842,0.061 -10.262,-0.001c-2.131,-0.065 -4.006,-1.867 -4.047,-3.927c-0.018,-2.704 -0.053,-5.409 0.001,-8.113c0.067,-2.041 1.949,-3.837 4.1,-3.876c3.402,-0.021 6.805,-0.021 10.208,-0Zm-10.147,2.408c-0.866,0.006 -1.631,0.718 -1.647,1.55c-0.018,2.687 -0.122,5.377 0.002,8.062c0.047,0.793 0.783,1.472 1.616,1.488c3.403,0.021 6.808,0.142 10.208,-0.002c0.829,-0.046 1.538,-0.747 1.553,-1.547c0.018,-2.688 0.123,-5.378 -0.002,-8.063c-0.048,-0.803 -0.802,-1.488 -1.645,-1.488c-3.362,0 -6.723,0 -10.085,0Z" style="fill:#fafafa;"/><path d="M16.328,17.563c0.987,0.036 1.842,0.848 1.88,1.8c0.033,2.531 0.377,5.511 -1.88,5.593c-4.803,0.059 -9.607,0.059 -14.41,0c-0.988,-0.036 -1.842,-0.847 -1.88,-1.8c-0.034,-2.53 -0.378,-5.511 1.88,-5.593c4.803,-0.058 9.607,-0.058 14.41,0Zm-13.775,2.408l-0,2.577l13.14,-0l-0,-2.577l-13.14,0Z" style="fill:#fafafa;"/></g></svg>