<?xml version="1.0" encoding="UTF-8" standalone="no"?><!DOCTYPE svg PUBLIC "-//W3C//DTD SVG 1.1//EN" "http://www.w3.org/Graphics/SVG/1.1/DTD/svg11.dtd"><svg width="100%" height="100%" viewBox="0 0 47 54" version="1.1" xmlns="http://www.w3.org/2000/svg" xmlns:xlink="http://www.w3.org/1999/xlink" xml:space="preserve" xmlns:serif="http://www.serif.com/" style="fill-rule:evenodd;clip-rule:evenodd;stroke-linejoin:round;stroke-miterlimit:2;"><g id="account"><path d="M23.5,42.805l-18.865,-0c-2.558,-0 -4.635,-2.281 -4.635,-5.091l0,-1.914c0,-13.789 12.958,-12.166 20.106,-12.037c6.101,0.11 16.435,-1.244 19.331,6.932c-1.073,-0.298 -2.203,-0.457 -3.37,-0.457c-6.936,-0 -12.567,5.631 -12.567,12.567Z" style="fill:#e0e0e0;"/><circle cx="20.106" cy="10.817" r="10.817" style="fill:#e0e0e0;"/><path d="M25.544,42.835c0,-5.808 4.715,-10.523 10.523,-10.523c5.808,-0 10.523,4.715 10.523,10.523c-0,5.807 -4.715,10.522 -10.523,10.522c-5.808,0 -10.523,-4.715 -10.523,-10.522Zm12.442,-1.083l-6.327,0c-0.597,0 -1.082,0.485 -1.082,1.083c-0,0.597 0.485,1.082 1.082,1.082l6.327,-0l-0.897,0.962c-0.407,0.437 -0.383,1.122 0.054,1.53c0.437,0.407 1.122,0.383 1.529,-0.054l2.577,-2.764c0.138,-0.141 0.23,-0.312 0.275,-0.491l0.003,-0.01c0.012,-0.053 0.021,-0.108 0.026,-0.164l0.002,-0.022l0.001,-0.02l0,-0.011l0.001,-0.026l-0,-0.028l-0.001,-0.026l-0.001,-0.014l-0.001,-0.023l-0.002,-0.028l-0.002,-0.012c-0.003,-0.03 -0.007,-0.06 -0.013,-0.089l-0.004,-0.02l-0.007,-0.031l-0.007,-0.026c-0.047,-0.173 -0.137,-0.336 -0.27,-0.472l-2.577,-2.764c-0.407,-0.437 -1.092,-0.461 -1.529,-0.053c-0.437,0.407 -0.461,1.092 -0.054,1.529l0.897,0.962Z" style="fill:#e0e0e0;"/></g></svg>