<?xml version="1.0" encoding="UTF-8" standalone="no"?><!DOCTYPE svg PUBLIC "-//W3C//DTD SVG 1.1//EN" "http://www.w3.org/Graphics/SVG/1.1/DTD/svg11.dtd"><svg width="100%" height="100%" viewBox="0 0 47 21" version="1.1" xmlns="http://www.w3.org/2000/svg" xmlns:xlink="http://www.w3.org/1999/xlink" xml:space="preserve" xmlns:serif="http://www.serif.com/" style="fill-rule:evenodd;clip-rule:evenodd;stroke-linejoin:round;stroke-miterlimit:2;"><g id="LaTeX"><path d="M1.467,12.428c-0.01,-0 -0.02,-0 -0.03,-0c-0.793,-0 -1.437,-0.648 -1.437,-1.445c-0,-0.798 0.644,-1.445 1.437,-1.445l-0,-0l5.986,-0l4.301,7.578c3.224,-5.705 6.448,-11.411 9.671,-17.116c0,-0 23.807,0.008 23.807,0.008c2.834,0.465 1.145,2.811 -0.156,2.882l-21.964,-0l-10.097,17.869l-2.515,0.002l-4.73,-8.333l-4.273,-0Z" style="fill:#fafafa;"/><path d="M32.064,11.816l4.063,-4.063c0.585,-0.585 1.536,-0.585 2.121,0c0.586,0.585 0.586,1.536 0,2.121l-4.062,4.063l4.062,4.063c0.586,0.585 0.586,1.536 0,2.121c-0.585,0.586 -1.536,0.586 -2.121,0l-4.063,-4.063l-4.062,4.063c-0.586,0.586 -1.536,0.586 -2.122,0c-0.585,-0.585 -0.585,-1.536 0,-2.121l4.063,-4.063l-4.063,-4.063c-0.585,-0.585 -0.585,-1.536 0,-2.121c0.586,-0.585 1.536,-0.585 2.122,0l4.062,4.063Z" style="fill:#fafafa;"/></g></svg>