<?xml version="1.0" encoding="UTF-8" standalone="no"?><!DOCTYPE svg PUBLIC "-//W3C//DTD SVG 1.1//EN" "http://www.w3.org/Graphics/SVG/1.1/DTD/svg11.dtd"><svg width="100%" height="100%" viewBox="0 0 48 25" version="1.1" xmlns="http://www.w3.org/2000/svg" xmlns:xlink="http://www.w3.org/1999/xlink" xml:space="preserve" xmlns:serif="http://www.serif.com/" style="fill-rule:evenodd;clip-rule:evenodd;stroke-linejoin:round;stroke-miterlimit:2;"><g id="code"><path d="M11.355,21.197c-0.103,0 -0.197,-0.026 -0.283,-0.077l-10.324,-6.968c-0.275,-0.172 -0.468,-0.336 -0.58,-0.491c-0.112,-0.154 -0.168,-0.352 -0.168,-0.593l-0,-1.084c-0,-0.241 0.056,-0.439 0.168,-0.594c0.112,-0.155 0.305,-0.318 0.58,-0.49l10.324,-6.968c0.086,-0.052 0.18,-0.078 0.283,-0.078c0.155,0 0.284,0.052 0.388,0.155c0.103,0.103 0.154,0.233 0.154,0.387l0,4.181c0,0.293 -0.077,0.521 -0.232,0.684c-0.155,0.164 -0.353,0.314 -0.593,0.452l-4.517,2.813l4.517,2.839c0.258,0.155 0.46,0.305 0.606,0.451c0.146,0.147 0.219,0.366 0.219,0.658l0,4.181c0,0.155 -0.051,0.284 -0.154,0.387c-0.104,0.104 -0.233,0.155 -0.388,0.155Z" style="fill:#fafafa;fill-rule:nonzero;"/><path d="M17.271,25c-0.155,0 -0.288,-0.062 -0.4,-0.187c-0.112,-0.124 -0.168,-0.273 -0.168,-0.445c0,-0.077 0.017,-0.163 0.052,-0.259l8.645,-23.247c0.224,-0.575 0.602,-0.862 1.136,-0.862l3.458,0c0.155,0 0.288,0.062 0.4,0.187c0.112,0.124 0.168,0.273 0.168,0.445c-0,0.077 -0.017,0.163 -0.052,0.259l-8.723,23.247c-0.206,0.575 -0.585,0.862 -1.135,0.862l-3.381,0Z" style="fill:#fafafa;fill-rule:nonzero;"/><path d="M35.909,21.197c-0.154,0 -0.283,-0.051 -0.387,-0.155c-0.103,-0.103 -0.155,-0.232 -0.155,-0.387l0,-4.181c0,-0.292 0.074,-0.511 0.22,-0.658c0.146,-0.146 0.348,-0.296 0.606,-0.451l4.517,-2.839l-4.517,-2.813c-0.241,-0.138 -0.438,-0.288 -0.593,-0.452c-0.155,-0.163 -0.233,-0.391 -0.233,-0.684l0,-4.181c0,-0.154 0.052,-0.284 0.155,-0.387c0.104,-0.103 0.233,-0.155 0.387,-0.155c0.104,0 0.198,0.026 0.284,0.078l10.323,6.968c0.276,0.172 0.469,0.335 0.581,0.49c0.112,0.155 0.168,0.353 0.168,0.594l-0,1.084c-0,0.241 -0.056,0.439 -0.168,0.593c-0.112,0.155 -0.305,0.319 -0.581,0.491l-10.323,6.968c-0.086,0.051 -0.18,0.077 -0.284,0.077Z" style="fill:#fafafa;fill-rule:nonzero;"/></g></svg>