<?xml version="1.0" encoding="UTF-8" standalone="no"?><!DOCTYPE svg PUBLIC "-//W3C//DTD SVG 1.1//EN" "http://www.w3.org/Graphics/SVG/1.1/DTD/svg11.dtd"><svg width="100%" height="100%" viewBox="0 0 47 46" version="1.1" xmlns="http://www.w3.org/2000/svg" xmlns:xlink="http://www.w3.org/1999/xlink" xml:space="preserve" xmlns:serif="http://www.serif.com/" style="fill-rule:evenodd;clip-rule:evenodd;stroke-linejoin:round;stroke-miterlimit:2;"><g id="night-shift-off" serif:id="night shift off"><path d="M23.261,14.668c4.4,0 7.973,3.573 7.973,7.974c0,4.4 -3.573,7.973 -7.973,7.973c-4.401,0 -7.974,-3.573 -7.974,-7.973c0,-4.401 3.573,-7.974 7.974,-7.974Zm-0,2.204c3.184,0 5.769,2.585 5.769,5.77c0,3.184 -2.585,5.77 -5.769,5.77c-3.185,-0 -5.77,-2.586 -5.77,-5.77c0,-3.185 2.585,-5.77 5.77,-5.77Z" style="fill:#e0e0e0;"/><path d="M20.285,35.634c0.2,-0.614 -0.136,-1.274 -0.75,-1.474c-0.614,-0.2 -1.275,0.136 -1.474,0.75l-2.889,8.878c-0.2,0.614 0.137,1.274 0.75,1.474c0.614,0.199 1.275,-0.137 1.474,-0.751l2.889,-8.877Z" style="fill:#e0e0e0;"/><path d="M31.382,1.532c0.199,-0.614 -0.137,-1.275 -0.751,-1.474c-0.614,-0.2 -1.274,0.136 -1.474,0.75l-2.888,8.877c-0.2,0.614 0.136,1.275 0.75,1.474c0.614,0.2 1.274,-0.136 1.474,-0.75l2.889,-8.877Z" style="fill:#e0e0e0;"/><path d="M10.545,26.556c0.631,-0.134 1.035,-0.755 0.901,-1.387c-0.134,-0.631 -0.755,-1.035 -1.386,-0.901l-9.133,1.937c-0.631,0.134 -1.035,0.755 -0.901,1.387c0.134,0.631 0.755,1.035 1.386,0.901l9.133,-1.937Z" style="fill:#e0e0e0;"/><path d="M45.627,19.115c0.631,-0.134 1.035,-0.756 0.901,-1.387c-0.134,-0.632 -0.755,-1.036 -1.387,-0.902l-9.132,1.937c-0.632,0.134 -1.036,0.756 -0.902,1.387c0.134,0.632 0.756,1.036 1.387,0.902l9.133,-1.937Z" style="fill:#e0e0e0;"/><path d="M13.537,13.582c0.431,0.48 1.171,0.519 1.651,0.087c0.48,-0.432 0.519,-1.172 0.088,-1.652l-6.244,-6.94c-0.432,-0.48 -1.172,-0.519 -1.652,-0.087c-0.48,0.431 -0.519,1.171 -0.087,1.651l6.244,6.941Z" style="fill:#e0e0e0;"/><path d="M37.522,40.243c0.432,0.479 1.172,0.519 1.652,0.087c0.479,-0.432 0.519,-1.172 0.087,-1.652l-6.244,-6.94c-0.432,-0.48 -1.172,-0.519 -1.652,-0.088c-0.48,0.432 -0.519,1.172 -0.087,1.652l6.244,6.941Z" style="fill:#e0e0e0;"/></g></svg>