<?xml version="1.0" encoding="UTF-8" standalone="no"?><!DOCTYPE svg PUBLIC "-//W3C//DTD SVG 1.1//EN" "http://www.w3.org/Graphics/SVG/1.1/DTD/svg11.dtd"><svg width="100%" height="100%" viewBox="0 0 41 28" version="1.1" xmlns="http://www.w3.org/2000/svg" xmlns:xlink="http://www.w3.org/1999/xlink" xml:space="preserve" xmlns:serif="http://www.serif.com/" style="fill-rule:evenodd;clip-rule:evenodd;stroke-linejoin:round;stroke-miterlimit:2;"><g id="advanced-options" serif:id="advanced options"><path d="M13.251,6.462c0.406,0.046 0.698,0.413 0.653,0.818l-0.167,1.471c-0.002,0.017 -0.004,0.033 -0.007,0.049c0.751,0.303 1.459,0.712 2.102,1.209c0.02,-0.021 0.042,-0.04 0.065,-0.058l1.161,-0.919c0.32,-0.253 0.786,-0.199 1.039,0.121l1.744,2.204c0.253,0.32 0.199,0.786 -0.121,1.039l-1.161,0.919c-0.014,0.011 -0.029,0.022 -0.044,0.032c0.341,0.731 0.58,1.51 0.696,2.317c0.012,0.001 0.023,0.002 0.035,0.003l1.471,0.167c0.405,0.046 0.698,0.413 0.651,0.819l-0.316,2.792c-0.046,0.406 -0.413,0.698 -0.819,0.652l-1.47,-0.167c-0.032,-0.003 -0.064,-0.009 -0.094,-0.016c-0.294,0.728 -0.685,1.42 -1.155,2.052c0.028,0.025 0.054,0.053 0.079,0.084l0.924,1.155c0.256,0.319 0.204,0.785 -0.115,1.041l-2.194,1.756c-0.318,0.255 -0.784,0.203 -1.04,-0.115l-0.925,-1.156c-0.01,-0.012 -0.019,-0.025 -0.028,-0.038c-0.389,0.183 -0.793,0.335 -1.209,0.453c-0.379,0.107 -0.763,0.183 -1.15,0.229c-0.001,0.004 -0.001,0.008 -0.001,0.012l-0.167,1.47c-0.046,0.406 -0.413,0.698 -0.818,0.652l-2.793,-0.316c-0.406,-0.045 -0.698,-0.412 -0.652,-0.818l0.167,-1.471c0.005,-0.045 0.014,-0.089 0.026,-0.131c-0.737,-0.299 -1.439,-0.694 -2.081,-1.17c-0.031,0.036 -0.066,0.071 -0.105,0.102l-1.161,0.918c-0.32,0.254 -0.786,0.199 -1.039,-0.121l-1.744,-2.203c-0.254,-0.321 -0.2,-0.786 0.121,-1.04l1.16,-0.918c0.011,-0.009 0.022,-0.018 0.034,-0.026c-0.336,-0.707 -0.572,-1.468 -0.687,-2.272l-1.459,-0.166c-0.406,-0.046 -0.698,-0.413 -0.652,-0.819l0.316,-2.792c0.046,-0.406 0.413,-0.698 0.819,-0.652l1.471,0.167c0.025,0.003 0.05,0.007 0.074,0.012c0.3,-0.726 0.698,-1.415 1.177,-2.045c-0.029,-0.027 -0.056,-0.055 -0.081,-0.087l-0.925,-1.155c-0.255,-0.319 -0.204,-0.785 0.115,-1.04l2.194,-1.757c0.319,-0.255 0.785,-0.203 1.04,0.116l0.925,1.155c0.013,0.017 0.026,0.034 0.038,0.052c0.72,-0.346 1.493,-0.594 2.303,-0.721c0,-0.014 0.002,-0.028 0.003,-0.042l0.167,-1.471c0.046,-0.406 0.412,-0.698 0.818,-0.652l2.792,0.316Zm-1.986,5.286c2.784,0.315 4.788,2.831 4.473,5.616c-0.315,2.784 -2.831,4.788 -5.615,4.473c-2.784,-0.315 -4.789,-2.831 -4.474,-5.615c0.315,-2.784 2.831,-4.789 5.616,-4.474Z" style="fill:#e0e0e0;"/><path d="M35.482,1.044c0.366,0.145 0.546,0.559 0.401,0.925l-0.524,1.325c-0.006,0.015 -0.012,0.03 -0.019,0.044c0.622,0.469 1.177,1.028 1.65,1.651c0.024,-0.014 0.05,-0.027 0.076,-0.038l1.309,-0.563c0.361,-0.155 0.78,0.013 0.936,0.374l1.068,2.485c0.155,0.362 -0.012,0.781 -0.374,0.936l-1.309,0.563c-0.016,0.007 -0.033,0.013 -0.049,0.019c0.133,0.764 0.16,1.548 0.065,2.328c0.011,0.004 0.021,0.007 0.032,0.012l1.325,0.524c0.365,0.144 0.545,0.559 0.4,0.924l-0.995,2.516c-0.144,0.366 -0.559,0.545 -0.924,0.4l-1.325,-0.524c-0.029,-0.011 -0.057,-0.024 -0.083,-0.039c-0.456,0.604 -0.993,1.149 -1.589,1.618c0.02,0.031 0.037,0.063 0.052,0.098l0.57,1.306c0.157,0.36 -0.008,0.781 -0.368,0.938l-2.48,1.081c-0.36,0.158 -0.78,-0.007 -0.938,-0.368l-0.569,-1.306c-0.007,-0.014 -0.012,-0.028 -0.017,-0.042c-0.408,0.072 -0.821,0.112 -1.238,0.117c-0.379,0.004 -0.755,-0.021 -1.126,-0.075c-0.001,0.003 -0.003,0.007 -0.004,0.01l-0.524,1.325c-0.144,0.366 -0.559,0.545 -0.924,0.401l-2.516,-0.995c-0.366,-0.144 -0.545,-0.558 -0.401,-0.924l0.524,-1.325c0.016,-0.041 0.035,-0.079 0.058,-0.115c-0.61,-0.463 -1.164,-1.006 -1.641,-1.61c-0.038,0.026 -0.079,0.049 -0.124,0.068l-1.309,0.562c-0.361,0.156 -0.78,-0.012 -0.936,-0.373l-1.067,-2.486c-0.156,-0.361 0.012,-0.78 0.373,-0.935l1.309,-0.563c0.013,-0.005 0.025,-0.01 0.038,-0.015c-0.135,-0.741 -0.163,-1.508 -0.068,-2.284l-1.315,-0.52c-0.366,-0.145 -0.545,-0.559 -0.401,-0.925l0.995,-2.516c0.145,-0.365 0.559,-0.545 0.925,-0.4l1.325,0.524c0.023,0.009 0.044,0.019 0.066,0.03c0.461,-0.6 1.004,-1.14 1.607,-1.606c-0.02,-0.032 -0.038,-0.065 -0.054,-0.101l-0.569,-1.306c-0.158,-0.36 0.007,-0.78 0.368,-0.938l2.479,-1.081c0.361,-0.158 0.781,0.007 0.938,0.368l0.57,1.306c0.008,0.019 0.016,0.038 0.022,0.057c0.757,-0.141 1.537,-0.177 2.321,-0.092c0.005,-0.013 0.009,-0.025 0.014,-0.038l0.524,-1.325c0.145,-0.366 0.559,-0.546 0.924,-0.401l2.516,0.994Zm-3.173,4.415c2.509,0.992 3.741,3.833 2.749,6.342c-0.992,2.509 -3.833,3.74 -6.342,2.749c-2.508,-0.992 -3.74,-3.834 -2.749,-6.342c0.992,-2.509 3.834,-3.74 6.342,-2.749Z" style="fill:#e0e0e0;"/></g></svg>