<?xml version="1.0" encoding="UTF-8" standalone="no"?><!DOCTYPE svg PUBLIC "-//W3C//DTD SVG 1.1//EN" "http://www.w3.org/Graphics/SVG/1.1/DTD/svg11.dtd"><svg width="100%" height="100%" viewBox="0 0 28 25" version="1.1" xmlns="http://www.w3.org/2000/svg" xmlns:xlink="http://www.w3.org/1999/xlink" xml:space="preserve" xmlns:serif="http://www.serif.com/" style="fill-rule:evenodd;clip-rule:evenodd;stroke-linejoin:round;stroke-miterlimit:2;"><g id="comment"><path d="M0.632,25c-0.172,-0 -0.321,-0.062 -0.445,-0.187c-0.125,-0.124 -0.187,-0.273 -0.187,-0.445c-0,-0.077 0.019,-0.163 0.057,-0.259l9.627,-23.247c0.249,-0.575 0.67,-0.862 1.264,-0.862l3.851,-0c0.172,-0 0.321,0.062 0.445,0.187c0.125,0.124 0.187,0.273 0.187,0.445c0,0.077 -0.019,0.163 -0.057,0.259l-9.713,23.247c-0.23,0.575 -0.651,0.862 -1.264,0.862l-3.765,-0Z" style="fill:#fafafa;fill-rule:nonzero;"/><path d="M12.717,25c-0.173,-0 -0.321,-0.062 -0.446,-0.187c-0.124,-0.124 -0.187,-0.273 -0.187,-0.445c0,-0.077 0.02,-0.163 0.058,-0.259l9.626,-23.247c0.249,-0.575 0.671,-0.862 1.265,-0.862l3.85,-0c0.173,-0 0.321,0.062 0.446,0.187c0.124,0.124 0.187,0.273 0.187,0.445c-0,0.077 -0.02,0.163 -0.058,0.259l-9.713,23.247c-0.229,0.575 -0.651,0.862 -1.264,0.862l-3.764,-0Z" style="fill:#fafafa;fill-rule:nonzero;"/></g></svg>