<?xml version="1.0" encoding="UTF-8" standalone="no"?><!DOCTYPE svg PUBLIC "-//W3C//DTD SVG 1.1//EN" "http://www.w3.org/Graphics/SVG/1.1/DTD/svg11.dtd"><svg width="100%" height="100%" viewBox="0 0 118 25" version="1.1" xmlns="http://www.w3.org/2000/svg" xmlns:xlink="http://www.w3.org/1999/xlink" xml:space="preserve" xmlns:serif="http://www.serif.com/" style="fill-rule:evenodd;clip-rule:evenodd;stroke-linejoin:round;stroke-miterlimit:2;"><g><path d="M12.5,-0c6.899,-0 12.5,5.601 12.5,12.5c0,6.899 -5.601,12.5 -12.5,12.5c-6.899,-0 -12.5,-5.601 -12.5,-12.5c0,-6.899 5.601,-12.5 12.5,-12.5Zm0.031,5.161l-0.063,0c-0.655,0 -1.187,0.533 -1.187,1.187l0,4.948l-4.947,-0c-0.655,-0 -1.186,0.531 -1.186,1.186l-0,0.063c-0,0.655 0.531,1.187 1.186,1.187l4.947,0l0,4.947c0,0.655 0.532,1.187 1.187,1.187l0.063,0c0.655,0 1.187,-0.532 1.187,-1.187l-0,-4.947l4.947,0c0.655,0 1.187,-0.532 1.187,-1.187l-0,-0.063c-0,-0.655 -0.532,-1.186 -1.187,-1.186l-4.947,-0l-0,-4.948c-0,-0.654 -0.532,-1.187 -1.187,-1.187Z" style="fill:#fafafa;"/><path d="M59.635,12.5c0,-1.659 -1.347,-3.007 -3.007,-3.007l-19.537,0c-1.66,0 -3.007,1.348 -3.007,3.007c-0,1.659 1.347,3.007 3.007,3.007l19.537,-0c1.66,-0 3.007,-1.348 3.007,-3.007Z" style="fill:#fafafa;"/><path d="M88.9,12.5c0,-1.659 -1.347,-3.007 -3.007,-3.007l-19.537,0c-1.66,0 -3.007,1.348 -3.007,3.007c-0,1.659 1.347,3.007 3.007,3.007l19.537,-0c1.66,-0 3.007,-1.348 3.007,-3.007Z" style="fill:#fafafa;"/><path d="M117.717,12.5c-0,-1.659 -1.348,-3.007 -3.007,-3.007l-19.538,0c-1.659,0 -3.007,1.348 -3.007,3.007c0,1.659 1.348,3.007 3.007,3.007l19.538,-0c1.659,-0 3.007,-1.348 3.007,-3.007Z" style="fill:#fafafa;"/></g></svg>