<?xml version="1.0" encoding="UTF-8" standalone="no"?><!DOCTYPE svg PUBLIC "-//W3C//DTD SVG 1.1//EN" "http://www.w3.org/Graphics/SVG/1.1/DTD/svg11.dtd"><svg width="100%" height="100%" viewBox="0 0 42 25" version="1.1" xmlns="http://www.w3.org/2000/svg" xmlns:xlink="http://www.w3.org/1999/xlink" xml:space="preserve" xmlns:serif="http://www.serif.com/" style="fill-rule:evenodd;clip-rule:evenodd;stroke-linejoin:round;stroke-miterlimit:2;"><g><path d="M41.62,3.393c-0,-1.251 -1.016,-2.266 -2.267,-2.266l-28.159,-0c-1.251,-0 -2.267,1.015 -2.267,2.266c0,1.251 1.016,2.267 2.267,2.267l28.159,-0c1.251,-0 2.267,-1.016 2.267,-2.267Z" style="fill:#fafafa;"/><path d="M41.62,12.306c-0,-1.251 -1.016,-2.267 -2.267,-2.267l-28.159,0c-1.251,0 -2.267,1.016 -2.267,2.267c0,1.25 1.016,2.266 2.267,2.266l28.159,0c1.251,0 2.267,-1.016 2.267,-2.266Z" style="fill:#fafafa;"/><path d="M41.62,21.126c-0,-1.251 -1.016,-2.267 -2.267,-2.267l-28.159,0c-1.251,0 -2.267,1.016 -2.267,2.267c0,1.251 1.016,2.266 2.267,2.266l28.159,0c1.251,0 2.267,-1.015 2.267,-2.266Z" style="fill:#fafafa;"/><path d="M3.295,25c-0.757,0 -1.381,-0.113 -1.871,-0.34c-0.49,-0.226 -0.846,-0.501 -1.069,-0.826c-0.223,-0.324 -0.341,-0.639 -0.355,-0.943c-0,-0.061 0.022,-0.113 0.066,-0.157c0.044,-0.044 0.096,-0.066 0.157,-0.066l2.038,0c0.081,0 0.145,0.014 0.192,0.041c0.048,0.027 0.098,0.067 0.152,0.121c0.068,0.068 0.153,0.119 0.254,0.153c0.101,0.033 0.25,0.05 0.446,0.05c0.223,0 0.39,-0.05 0.502,-0.152c0.111,-0.101 0.167,-0.23 0.167,-0.385c0,-0.297 -0.223,-0.446 -0.669,-0.446l-1.267,-0c-0.075,-0 -0.139,-0.027 -0.193,-0.081c-0.054,-0.054 -0.081,-0.119 -0.081,-0.193l-0,-0.821c-0,-0.095 0.02,-0.177 0.061,-0.248c0.04,-0.071 0.088,-0.124 0.142,-0.158l1.409,-0.77l-2.666,-0c-0.075,-0 -0.139,-0.027 -0.193,-0.081c-0.054,-0.054 -0.081,-0.118 -0.081,-0.193l-0,-1.429c-0,-0.075 0.027,-0.139 0.081,-0.193c0.054,-0.054 0.118,-0.081 0.193,-0.081l5.19,0c0.075,0 0.139,0.027 0.193,0.081c0.054,0.054 0.081,0.118 0.081,0.193l-0,1.287c-0,0.088 -0.02,0.168 -0.061,0.239c-0.04,0.071 -0.088,0.126 -0.142,0.167l-1.186,0.791l0,0.03c1.217,0.291 1.825,0.987 1.825,2.088c-0,0.46 -0.142,0.866 -0.426,1.217c-0.284,0.351 -0.677,0.623 -1.181,0.816c-0.503,0.193 -1.073,0.289 -1.708,0.289Z" style="fill:#fafafa;fill-rule:nonzero;"/><path d="M0.531,15.858c-0.074,0 -0.138,-0.027 -0.192,-0.081c-0.053,-0.053 -0.08,-0.117 -0.08,-0.191l-0,-1.049c-0,-0.242 0.084,-0.423 0.252,-0.544l0.111,-0.081l0.383,-0.272c0.753,-0.544 1.309,-0.956 1.668,-1.235c0.36,-0.279 0.64,-0.531 0.842,-0.756c0.202,-0.225 0.302,-0.425 0.302,-0.6c0,-0.127 -0.021,-0.226 -0.065,-0.297c-0.044,-0.071 -0.143,-0.106 -0.297,-0.106c-0.128,0 -0.229,0.029 -0.303,0.086c-0.074,0.057 -0.123,0.112 -0.146,0.166c-0.024,0.054 -0.059,0.141 -0.106,0.262c-0.034,0.088 -0.084,0.148 -0.151,0.182c-0.067,0.033 -0.151,0.05 -0.252,0.05l-1.895,0c-0.061,0 -0.113,-0.022 -0.157,-0.065c-0.043,-0.044 -0.065,-0.096 -0.065,-0.157c0.007,-0.497 0.144,-0.936 0.413,-1.315c0.269,-0.38 0.634,-0.674 1.094,-0.882c0.46,-0.209 0.979,-0.313 1.557,-0.313c0.928,0 1.662,0.2 2.203,0.6c0.541,0.4 0.812,0.953 0.812,1.658c-0,0.518 -0.18,0.99 -0.54,1.417c-0.359,0.426 -0.905,0.892 -1.638,1.396l-0.07,0.05l2.127,0c0.074,0 0.137,0.027 0.191,0.081c0.054,0.054 0.081,0.118 0.081,0.192l-0,1.532c-0,0.074 -0.027,0.138 -0.081,0.191c-0.054,0.054 -0.117,0.081 -0.191,0.081l-5.807,0Z" style="fill:#fafafa;fill-rule:nonzero;"/><path d="M4.317,7.198c-0.076,-0 -0.141,-0.028 -0.196,-0.082c-0.054,-0.055 -0.082,-0.12 -0.082,-0.196l0,-4.154l-1.151,0.884c-0.042,0.035 -0.093,0.052 -0.155,0.052c-0.089,-0 -0.168,-0.045 -0.236,-0.134l-0.905,-1.172c-0.027,-0.069 -0.041,-0.12 -0.041,-0.154c-0,-0.048 0.012,-0.095 0.036,-0.139c0.024,-0.045 0.056,-0.081 0.097,-0.108l2.479,-1.923c0.068,-0.048 0.144,-0.072 0.226,-0.072l1.943,0c0.076,0 0.141,0.027 0.196,0.082c0.054,0.055 0.082,0.12 0.082,0.196l-0,6.642c-0,0.076 -0.028,0.141 -0.082,0.196c-0.055,0.054 -0.12,0.082 -0.196,0.082l-2.015,-0Z" style="fill:#fafafa;fill-rule:nonzero;"/></g></svg>