<?xml version="1.0" encoding="UTF-8" standalone="no"?><!DOCTYPE svg PUBLIC "-//W3C//DTD SVG 1.1//EN" "http://www.w3.org/Graphics/SVG/1.1/DTD/svg11.dtd"><svg width="100%" height="100%" viewBox="0 0 20 25" version="1.1" xmlns="http://www.w3.org/2000/svg" xmlns:xlink="http://www.w3.org/1999/xlink" xml:space="preserve" xmlns:serif="http://www.serif.com/" style="fill-rule:evenodd;clip-rule:evenodd;stroke-linejoin:round;stroke-miterlimit:2;"><path d="M13.971,25l-13.284,0c-0.42,-0.024 -0.732,-0.383 -0.682,-0.813l0.649,-3.665c0.109,-0.457 0.315,-0.55 0.682,-0.572l3.764,0l3.274,-14.884l-3.54,-0c-0.42,-0.024 -0.732,-0.382 -0.682,-0.812l0.649,-3.682c0.108,-0.457 0.315,-0.551 0.681,-0.572l13.284,-0c0.027,0.002 0.054,0.003 0.081,0.005c0.383,0.067 0.647,0.409 0.601,0.807l-0.649,3.682c-0.076,0.322 -0.233,0.546 -0.681,0.572l-3.878,-0l-3.275,14.884l3.655,0c0.419,0.025 0.732,0.383 0.681,0.813l-0.649,3.666c-0.108,0.456 -0.314,0.55 -0.681,0.571Z" style="fill:#fafafa;fill-rule:nonzero;"/></svg>