<?xml version="1.0" encoding="UTF-8" standalone="no"?><!DOCTYPE svg PUBLIC "-//W3C//DTD SVG 1.1//EN" "http://www.w3.org/Graphics/SVG/1.1/DTD/svg11.dtd"><svg width="100%" height="100%" viewBox="0 0 38 34" version="1.1" xmlns="http://www.w3.org/2000/svg" xmlns:xlink="http://www.w3.org/1999/xlink" xml:space="preserve" xmlns:serif="http://www.serif.com/" style="fill-rule:evenodd;clip-rule:evenodd;stroke-linejoin:round;stroke-miterlimit:2;"><g id="advanced-options" serif:id="advanced options"><path d="M9.861,12.25c0.4,-0.083 0.792,0.174 0.875,0.574l0.302,1.449c0.003,0.016 0.006,0.033 0.008,0.049c0.808,0.053 1.608,0.221 2.374,0.492c0.013,-0.026 0.028,-0.051 0.044,-0.076l0.816,-1.235c0.225,-0.341 0.684,-0.435 1.025,-0.21l2.345,1.549c0.341,0.225 0.435,0.684 0.21,1.025l-0.816,1.235c-0.01,0.016 -0.021,0.03 -0.032,0.045c0.552,0.587 1.022,1.253 1.385,1.984c0.011,-0.003 0.023,-0.006 0.034,-0.008l1.449,-0.301c0.4,-0.083 0.792,0.174 0.875,0.574l0.571,2.751c0.084,0.4 -0.174,0.792 -0.574,0.875l-1.449,0.301c-0.031,0.007 -0.063,0.011 -0.094,0.014c-0.052,0.784 -0.207,1.563 -0.457,2.31c0.035,0.016 0.069,0.034 0.102,0.055l1.239,0.809c0.342,0.223 0.439,0.682 0.216,1.024l-1.536,2.354c-0.223,0.342 -0.682,0.438 -1.024,0.215l-1.239,-0.808c-0.014,-0.009 -0.027,-0.018 -0.04,-0.028c-0.312,0.295 -0.648,0.566 -1.007,0.808c-0.326,0.22 -0.667,0.412 -1.02,0.577c0,0.004 0.001,0.008 0.002,0.011l0.301,1.449c0.083,0.4 -0.174,0.792 -0.574,0.876l-2.751,0.572c-0.4,0.083 -0.792,-0.174 -0.875,-0.574l-0.301,-1.449c-0.01,-0.045 -0.015,-0.089 -0.016,-0.133c-0.793,-0.054 -1.584,-0.21 -2.342,-0.462c-0.019,0.044 -0.041,0.088 -0.069,0.13l-0.815,1.235c-0.226,0.34 -0.685,0.434 -1.026,0.209l-2.345,-1.548c-0.341,-0.225 -0.435,-0.685 -0.209,-1.026l0.815,-1.235c0.008,-0.011 0.016,-0.023 0.024,-0.034c-0.539,-0.567 -1.002,-1.217 -1.362,-1.945l-1.438,0.299c-0.4,0.083 -0.792,-0.174 -0.875,-0.574l-0.571,-2.751c-0.083,-0.4 0.174,-0.792 0.574,-0.876l1.449,-0.3c0.025,-0.006 0.049,-0.009 0.074,-0.012c0.059,-0.783 0.221,-1.562 0.479,-2.311c-0.035,-0.016 -0.07,-0.035 -0.104,-0.057l-1.239,-0.808c-0.342,-0.224 -0.439,-0.682 -0.216,-1.025l1.536,-2.353c0.223,-0.342 0.682,-0.439 1.024,-0.215l1.24,0.808c0.017,0.012 0.035,0.024 0.051,0.037c0.577,-0.553 1.234,-1.03 1.963,-1.404c-0.004,-0.013 -0.007,-0.027 -0.01,-0.041l-0.301,-1.449c-0.083,-0.4 0.174,-0.792 0.574,-0.875l2.751,-0.572Zm-0.236,5.642c2.743,-0.57 5.433,1.194 6.004,3.938c0.57,2.743 -1.194,5.433 -3.938,6.003c-2.743,0.571 -5.433,-1.193 -6.003,-3.937c-0.571,-2.743 1.194,-5.433 3.937,-6.004Z" style="fill:#e0e0e0;"/><path d="M29.288,0.16c0.392,0.023 0.692,0.361 0.669,0.753l-0.083,1.423c-0.001,0.016 -0.003,0.032 -0.005,0.047c0.738,0.252 1.44,0.609 2.083,1.053c0.019,-0.021 0.039,-0.04 0.06,-0.059l1.068,-0.944c0.295,-0.26 0.745,-0.232 1.006,0.063l1.791,2.028c0.26,0.294 0.232,0.745 -0.063,1.005l-1.068,0.943c-0.013,0.012 -0.027,0.023 -0.041,0.034c0.366,0.684 0.636,1.421 0.79,2.191c0.011,0 0.022,0.001 0.033,0.001l1.423,0.084c0.392,0.024 0.692,0.361 0.669,0.754l-0.16,2.7c-0.023,0.393 -0.36,0.693 -0.753,0.669l-1.422,-0.084c-0.031,-0.001 -0.061,-0.005 -0.091,-0.011c-0.245,0.716 -0.584,1.401 -1.004,2.033c0.028,0.023 0.055,0.049 0.08,0.077l0.949,1.063c0.262,0.293 0.237,0.744 -0.057,1.006l-2.017,1.802c-0.294,0.262 -0.744,0.236 -1.006,-0.057l-0.949,-1.063c-0.011,-0.011 -0.021,-0.023 -0.03,-0.035c-0.364,0.196 -0.745,0.363 -1.139,0.498c-0.358,0.122 -0.724,0.215 -1.093,0.28c-0,0.004 -0.001,0.008 -0.001,0.011l-0.083,1.423c-0.024,0.392 -0.361,0.692 -0.754,0.669l-2.7,-0.159c-0.393,-0.023 -0.693,-0.36 -0.67,-0.753l0.084,-1.422c0.003,-0.044 0.009,-0.086 0.019,-0.128c-0.724,-0.249 -1.419,-0.592 -2.061,-1.017c-0.028,0.037 -0.06,0.072 -0.096,0.104l-1.068,0.943c-0.295,0.26 -0.746,0.232 -1.006,-0.063l-1.791,-2.027c-0.26,-0.295 -0.232,-0.746 0.063,-1.006l1.068,-0.943c0.01,-0.009 0.02,-0.018 0.031,-0.026c-0.36,-0.662 -0.626,-1.382 -0.778,-2.149l-1.412,-0.084c-0.393,-0.023 -0.692,-0.36 -0.669,-0.753l0.159,-2.7c0.023,-0.393 0.361,-0.693 0.753,-0.67l1.423,0.084c0.024,0.002 0.048,0.004 0.072,0.008c0.251,-0.713 0.597,-1.396 1.025,-2.027c-0.029,-0.024 -0.057,-0.05 -0.083,-0.079l-0.949,-1.063c-0.262,-0.293 -0.236,-0.744 0.057,-1.006l2.018,-1.802c0.293,-0.262 0.744,-0.236 1.006,0.057l0.949,1.063c0.014,0.015 0.027,0.031 0.039,0.047c0.675,-0.37 1.405,-0.648 2.176,-0.812c0,-0.014 0.001,-0.027 0.002,-0.041l0.083,-1.422c0.023,-0.393 0.361,-0.693 0.753,-0.67l2.701,0.159Zm-1.636,5.185c2.693,0.158 4.751,2.473 4.592,5.166c-0.158,2.693 -2.473,4.75 -5.166,4.592c-2.692,-0.158 -4.75,-2.473 -4.592,-5.166c0.159,-2.693 2.474,-4.75 5.166,-4.592Z" style="fill:#e0e0e0;"/></g></svg>