<?xml version="1.0" encoding="UTF-8" standalone="no"?><!DOCTYPE svg PUBLIC "-//W3C//DTD SVG 1.1//EN" "http://www.w3.org/Graphics/SVG/1.1/DTD/svg11.dtd"><svg width="100%" height="100%" viewBox="0 0 64 60" version="1.1" xmlns="http://www.w3.org/2000/svg" xmlns:xlink="http://www.w3.org/1999/xlink" xml:space="preserve" xmlns:serif="http://www.serif.com/" style="fill-rule:evenodd;clip-rule:evenodd;stroke-linejoin:round;stroke-miterlimit:2;"><path d="M35.656,0c5.942,0.064 11.769,2.205 16.361,5.929c4.73,3.835 8.563,9.021 10.199,14.6c3.488,11.894 -3.154,25.532 -14.772,31.75c-1.835,0.983 -3.776,1.745 -5.708,2.517c-7.84,3.111 -16.187,6.164 -24.329,4.239c-10.34,-2.444 -17.6,-13.622 -17.403,-24.91c0.307,-17.608 16.837,-33.713 34.917,-34.12c0.245,-0.004 0.49,-0.006 0.735,-0.005Zm-0.363,0.75c-15.019,0.138 -29.323,11.261 -33.42,25.873c-2.722,9.708 -0.047,20.952 7.707,27.58c2.938,2.511 6.631,4.107 10.483,4.526c8.364,0.911 16.724,-2.549 24.51,-5.895c5.481,-2.396 10.338,-6.26 13.553,-11.258c4.998,-7.768 5.832,-18.12 0.946,-26.219c-4.98,-8.255 -13.43,-14.435 -23.243,-14.605c-0.179,-0.002 -0.357,-0.002 -0.536,-0.002Z" style="fill:url(#_Linear1);"/><path id="image-gallery" serif:id="image gallery" d="M43.899,53.522c-12.12,4.897 -26.898,10.83 -37.522,-2.069c-11.94,-14.498 -5.017,-36.179 11.515,-45.842c16.532,-9.664 32.765,-5.83 42.053,10.495c6.677,11.736 1.709,30.243 -16.046,37.416Z" style="fill:url(#_Linear2);"/><g><clipPath id="_clip3"><path d="M43.899,53.522c-12.12,4.897 -26.898,10.83 -37.522,-2.069c-11.94,-14.498 -5.017,-36.179 11.515,-45.842c16.532,-9.664 32.765,-5.83 42.053,10.495c6.677,11.736 1.709,30.243 -16.046,37.416Z"/></clipPath><g clip-path="url(#_clip3)"><g id="Gruppe_74"><g><clipPath id="_clip4"><path d="M55.217,11.665l-76.162,11.416l6.851,45.703l76.162,-11.416l-6.851,-45.703Z"/></clipPath><g clip-path="url(#_clip4)"><g id="Pfad_44"><path d="M-14.094,68.784c0,0 24.589,-39.078 28.056,-39.568c3.466,-0.489 12.289,13.859 12.289,13.859c0,0 6.806,-8.182 9.411,-8.368c2.605,-0.185 26.406,22.661 26.406,22.661l-76.162,11.416Z" style="fill:#fff;fill-rule:nonzero;"/><path d="M26.434,40.573c1.272,-1.432 3.257,-3.569 5.073,-5.118c1.552,-1.323 3.071,-2.174 4.049,-2.244c0.324,-0.023 0.827,0.051 1.448,0.351c0.757,0.367 1.914,1.153 3.323,2.245c7.466,5.784 22.78,20.479 22.78,20.479c0.412,0.396 0.564,0.992 0.39,1.537c-0.173,0.545 -0.641,0.944 -1.207,1.028l-76.162,11.416c-0.579,0.087 -1.157,-0.172 -1.478,-0.662c-0.32,-0.491 -0.326,-1.124 -0.014,-1.62c0,0 15.798,-25.101 23.898,-35.393c1.5,-1.906 2.76,-3.323 3.628,-4.042c0.644,-0.534 1.208,-0.765 1.59,-0.819c0.686,-0.097 1.52,0.079 2.42,0.604c0.918,0.535 1.979,1.468 3.069,2.635c2.686,2.876 5.64,7.22 7.193,9.603Zm-40.528,28.211l76.162,-11.416c-0,0 -23.801,-22.846 -26.406,-22.661c-2.605,0.186 -9.411,8.368 -9.411,8.368c-0,0 -8.823,-14.348 -12.289,-13.859c-3.467,0.49 -28.056,39.568 -28.056,39.568Z" style="fill:#486866;"/></g></g></g></g><path d="M36.543,25.145c-1.362,-2.475 -0.459,-5.589 2.015,-6.952c2.474,-1.362 5.589,-0.459 6.951,2.016c1.363,2.474 0.46,5.589 -2.015,6.951c-2.474,1.362 -5.589,0.459 -6.951,-2.015Z" style="fill:#fff;"/><path d="M35.229,25.868c1.761,3.2 5.789,4.367 8.988,2.606c3.201,-1.761 4.368,-5.789 2.606,-8.989c-1.761,-3.2 -5.789,-4.367 -8.988,-2.606c-3.2,1.763 -4.367,5.789 -2.606,8.989l-0,0Zm1.314,-0.723c1.362,2.474 4.477,3.377 6.951,2.015c2.475,-1.362 3.378,-4.477 2.015,-6.951c-1.362,-2.475 -4.477,-3.378 -6.951,-2.016c-2.474,1.363 -3.377,4.477 -2.015,6.952Z" style="fill:#486866;"/></g></g><path id="image-gallery1" serif:id="image gallery" d="M43.899,53.522c-12.12,4.897 -26.898,10.83 -37.522,-2.069c-11.94,-14.498 -5.017,-36.179 11.515,-45.842c16.532,-9.664 32.765,-5.83 42.053,10.495c6.677,11.736 1.709,30.243 -16.046,37.416Z" style="fill:url(#_Radial5);"/><path d="M30.169,6.218c2.281,-2.41 11.298,-4.371 20.507,4.35c9.207,8.72 9.608,16.53 7.327,18.94c-2.283,2.409 -6.612,-4.496 -12.923,-10.518c-6.311,-6.022 -17.194,-10.363 -14.911,-12.772Z" style="fill:#fff;fill-opacity:0.36;"/><defs><linearGradient id="_Linear1" x1="0" y1="0" x2="1" y2="0" gradientUnits="userSpaceOnUse" gradientTransform="matrix(31.9812,45.4328,-45.4328,31.9812,17.4264,5.14491)"><stop offset="0" style="stop-color:#feffff;stop-opacity:1"/><stop offset="0.58" style="stop-color:#c6c6c6;stop-opacity:1"/><stop offset="1" style="stop-color:#acacac;stop-opacity:1"/></linearGradient><linearGradient id="_Linear2" x1="0" y1="0" x2="1" y2="0" gradientUnits="userSpaceOnUse" gradientTransform="matrix(-132.764,133.319,-133.319,-132.764,144.998,-84.3252)"><stop offset="0" style="stop-color:#fff;stop-opacity:1"/><stop offset="0.47" style="stop-color:#dff0f1;stop-opacity:1"/><stop offset="1" style="stop-color:#b7fffe;stop-opacity:1"/></linearGradient><radialGradient id="_Radial5" cx="0" cy="0" r="1" gradientUnits="userSpaceOnUse" gradientTransform="matrix(-29.8093,17.926,-15.14,-25.1766,30.6477,26.0235)"><stop offset="0" style="stop-color:#fff;stop-opacity:0"/><stop offset="0.51" style="stop-color:#c1c1c1;stop-opacity:0.05"/><stop offset="1" style="stop-color:#000;stop-opacity:0.2"/></radialGradient></defs></svg>