<?xml version="1.0" encoding="UTF-8" standalone="no"?><!DOCTYPE svg PUBLIC "-//W3C//DTD SVG 1.1//EN" "http://www.w3.org/Graphics/SVG/1.1/DTD/svg11.dtd"><svg width="100%" height="100%" viewBox="0 0 64 60" version="1.1" xmlns="http://www.w3.org/2000/svg" xmlns:xlink="http://www.w3.org/1999/xlink" xml:space="preserve" xmlns:serif="http://www.serif.com/" style="fill-rule:evenodd;clip-rule:evenodd;stroke-linejoin:round;stroke-miterlimit:2;"><path id="image-gallery" serif:id="image gallery" d="M43.899,53.522c-12.12,4.897 -26.898,10.83 -37.522,-2.069c-11.94,-14.498 -5.017,-36.179 11.515,-45.842c16.532,-9.664 32.765,-5.83 42.053,10.495c6.677,11.736 1.709,30.243 -16.046,37.416Z" style="fill:url(#_Linear1);"/><clipPath id="_clip2"><path d="M43.899,53.522c-12.12,4.897 -26.898,10.83 -37.522,-2.069c-11.94,-14.498 -5.017,-36.179 11.515,-45.842c16.532,-9.664 32.765,-5.83 42.053,10.495c6.677,11.736 1.709,30.243 -16.046,37.416Z"/></clipPath><g clip-path="url(#_clip2)"><g id="Gruppe_74"><clipPath id="_clip3"><path d="M55.217,11.665l-76.162,11.416l6.851,45.703l76.162,-11.416l-6.851,-45.703Z"/></clipPath><g clip-path="url(#_clip3)"><path id="Pfad_44" d="M-14.094,68.784c0,0 24.589,-39.078 28.056,-39.568c3.466,-0.489 12.289,13.859 12.289,13.859c0,0 6.806,-8.182 9.411,-8.368c2.605,-0.185 26.406,22.661 26.406,22.661l-76.162,11.416Z" style="fill:#fff;fill-rule:nonzero;"/></g></g><path d="M36.543,25.145c-1.362,-2.475 -0.459,-5.589 2.015,-6.952c2.474,-1.362 5.589,-0.459 6.951,2.016c1.363,2.474 0.46,5.589 -2.015,6.951c-2.474,1.362 -5.589,0.459 -6.951,-2.015Z" style="fill:#fff;"/></g><path id="image-gallery1" serif:id="image gallery" d="M43.899,53.522c-12.12,4.897 -26.898,10.83 -37.522,-2.069c-11.94,-14.498 -5.017,-36.179 11.515,-45.842c16.532,-9.664 32.765,-5.83 42.053,10.495c6.677,11.736 1.709,30.243 -16.046,37.416Z" style="fill:url(#_Radial4);"/><path d="M35.656,0c5.942,0.064 11.769,2.205 16.361,5.929c4.73,3.835 8.563,9.021 10.199,14.6c3.488,11.894 -3.154,25.532 -14.772,31.75c-1.835,0.983 -3.776,1.745 -5.708,2.517c-7.84,3.111 -16.187,6.164 -24.329,4.239c-10.34,-2.444 -17.6,-13.622 -17.403,-24.91c0.307,-17.608 16.837,-33.713 34.917,-34.12c0.245,-0.004 0.49,-0.006 0.735,-0.005Zm-0.363,0.75c-15.019,0.138 -29.323,11.261 -33.42,25.873c-2.722,9.708 -0.047,20.952 7.707,27.58c2.938,2.511 6.631,4.107 10.483,4.526c8.364,0.911 16.724,-2.549 24.51,-5.895c5.481,-2.396 10.338,-6.26 13.553,-11.258c4.998,-7.768 5.832,-18.12 0.946,-26.219c-4.98,-8.255 -13.43,-14.435 -23.243,-14.605c-0.179,-0.002 -0.357,-0.002 -0.536,-0.002Z" style="fill:url(#_Linear5);"/><defs><linearGradient id="_Linear1" x1="0" y1="0" x2="1" y2="0" gradientUnits="userSpaceOnUse" gradientTransform="matrix(-100.762,142.863,-142.863,-100.762,190.211,19.9689)"><stop offset="0" style="stop-color:#fff;stop-opacity:1"/><stop offset="0.42" style="stop-color:#dff0f1;stop-opacity:1"/><stop offset="1" style="stop-color:#9bcfd3;stop-opacity:1"/></linearGradient><radialGradient id="_Radial4" cx="0" cy="0" r="1" gradientUnits="userSpaceOnUse" gradientTransform="matrix(-29.8093,17.926,-15.14,-25.1766,30.6477,26.0235)"><stop offset="0" style="stop-color:#fff;stop-opacity:0"/><stop offset="0.51" style="stop-color:#c1c1c1;stop-opacity:0.05"/><stop offset="1" style="stop-color:#000;stop-opacity:0.2"/></radialGradient><linearGradient id="_Linear5" x1="0" y1="0" x2="1" y2="0" gradientUnits="userSpaceOnUse" gradientTransform="matrix(31.9812,45.4328,-45.4328,31.9812,17.4264,5.14491)"><stop offset="0" style="stop-color:#feffff;stop-opacity:1"/><stop offset="0.58" style="stop-color:#c6c6c6;stop-opacity:1"/><stop offset="1" style="stop-color:#acacac;stop-opacity:1"/></linearGradient></defs></svg>