<?xml version="1.0" encoding="UTF-8" standalone="no"?><!DOCTYPE svg PUBLIC "-//W3C//DTD SVG 1.1//EN" "http://www.w3.org/Graphics/SVG/1.1/DTD/svg11.dtd"><svg width="100%" height="100%" viewBox="0 0 47 21" version="1.1" xmlns="http://www.w3.org/2000/svg" xmlns:xlink="http://www.w3.org/1999/xlink" xml:space="preserve" xmlns:serif="http://www.serif.com/" style="fill-rule:evenodd;clip-rule:evenodd;stroke-linejoin:round;stroke-miterlimit:2;"><g id="LaTeX"><path d="M1.467,12.428c-0.01,0 -0.02,0 -0.03,0c-0.793,0 -1.437,-0.648 -1.437,-1.445c0,-0.798 0.644,-1.445 1.437,-1.445l0,0l5.986,0l4.301,7.578c3.224,-5.705 6.448,-11.411 9.671,-17.116c0,0 23.807,0.008 23.807,0.008c2.834,0.465 1.145,2.811 -0.156,2.882l-21.964,0l-10.097,17.869l-2.515,0.002l-4.73,-8.333l-4.273,0Z" style="fill:#131313;"/><path d="M32.064,11.816l4.063,-4.063c0.585,-0.585 1.536,-0.585 2.121,0c0.586,0.585 0.586,1.536 0,2.121l-4.062,4.063l4.062,4.063c0.586,0.585 0.586,1.536 0,2.121c-0.585,0.586 -1.536,0.586 -2.121,0l-4.063,-4.063l-4.062,4.063c-0.586,0.586 -1.536,0.586 -2.122,0c-0.585,-0.585 -0.585,-1.536 0,-2.121l4.063,-4.063l-4.063,-4.063c-0.585,-0.585 -0.585,-1.536 0,-2.121c0.586,-0.585 1.536,-0.585 2.122,0l4.062,4.063Z" style="fill:#131313;"/><path d="M37.224,7.314l0.036,0.002l0.036,0.002l0.036,0.003l0.035,0.004l0.036,0.004l0.036,0.006l0.035,0.006l0.036,0.008l0.035,0.008l0.035,0.009l0.035,0.01l0.035,0.011l0.034,0.011l0.034,0.013l0.034,0.013l0.034,0.014l0.033,0.015l0.034,0.016l0.032,0.017l0.033,0.017l0.032,0.019l0.032,0.019l0.031,0.02l0.031,0.021l0.031,0.022l0.03,0.023l0.029,0.023l0.03,0.025l0.028,0.025l0.029,0.026l0.027,0.027l0.027,0.028l0.027,0.028l0.025,0.029l0.024,0.029l0.024,0.03l0.023,0.03l0.021,0.03l0.021,0.031l0.021,0.032l0.019,0.031l0.018,0.033l0.018,0.032l0.017,0.033l0.015,0.033l0.015,0.033l0.015,0.034l0.013,0.034l0.012,0.034l0.012,0.035l0.011,0.035l0.01,0.034l0.009,0.036l0.008,0.035l0.007,0.035l0.006,0.036l0.006,0.035l0.005,0.036l0.004,0.036l0.003,0.036l0.002,0.036l0.001,0.036l0,0.036l0,0.036l-0.001,0.036l-0.002,0.036l-0.003,0.036l-0.004,0.035l-0.005,0.036l-0.006,0.036l-0.006,0.035l-0.007,0.036l-0.008,0.035l-0.009,0.035l-0.01,0.035l-0.011,0.035l-0.012,0.034l-0.012,0.034l-0.013,0.034l-0.015,0.034l-0.015,0.033l-0.015,0.034l-0.017,0.032l-0.018,0.033l-0.018,0.032l-0.019,0.032l-0.021,0.031l-0.021,0.031l-0.021,0.031l-0.023,0.03l-0.024,0.03l-0.024,0.029l-0.025,0.028l-0.027,0.029l-0.027,0.027l-4.062,4.063l4.062,4.063l0.027,0.028l0.027,0.028l0.025,0.028l0.024,0.03l0.024,0.029l0.023,0.031l0.021,0.03l0.021,0.031l0.021,0.031l0.019,0.032l0.018,0.032l0.018,0.033l0.017,0.033l0.015,0.033l0.015,0.033l0.015,0.034l0.013,0.034l0.012,0.034l0.012,0.035l0.011,0.034l0.01,0.035l0.009,0.035l0.008,0.036l0.007,0.035l0.006,0.035l0.006,0.036l0.005,0.036l0.004,0.036l0.003,0.036l0.002,0.036l0.001,0.036l0,0.035l0,0.036l-0.001,0.036l-0.002,0.036l-0.003,0.036l-0.004,0.036l-0.005,0.036l-0.006,0.036l-0.006,0.035l-0.007,0.035l-0.008,0.036l-0.009,0.035l-0.01,0.035l-0.011,0.034l-0.012,0.035l-0.012,0.034l-0.013,0.034l-0.015,0.034l-0.015,0.033l-0.015,0.033l-0.017,0.033l-0.018,0.033l-0.018,0.032l-0.019,0.032l-0.021,0.031l-0.021,0.031l-0.021,0.03l-0.023,0.031l-0.024,0.029l-0.024,0.03l-0.025,0.028l-0.027,0.028l-0.027,0.028l-0.027,0.027l-0.029,0.026l-0.028,0.026l-0.03,0.024l-0.029,0.024l-0.03,0.022l-0.031,0.022l-0.031,0.021l-0.031,0.02l-0.032,0.02l-0.032,0.018l-0.033,0.018l-0.032,0.016l-0.034,0.016l-0.033,0.015l-0.034,0.014l-0.034,0.014l-0.034,0.012l-0.034,0.012l-0.035,0.01l-0.035,0.01l-0.035,0.009l-0.035,0.008l-0.036,0.008l-0.035,0.006l-0.036,0.006l-0.036,0.004l-0.035,0.004l-0.036,0.003l-0.036,0.002l-0.036,0.002l-0.036,0l-0.036,0l-0.036,-0.002l-0.036,-0.002l-0.036,-0.003l-0.036,-0.004l-0.036,-0.004l-0.035,-0.006l-0.036,-0.006l-0.035,-0.008l-0.035,-0.008l-0.036,-0.009l-0.034,-0.01l-0.035,-0.01l-0.035,-0.012l-0.034,-0.012l-0.034,-0.014l-0.034,-0.014l-0.033,-0.015l-0.033,-0.016l-0.033,-0.016l-0.032,-0.018l-0.033,-0.018l-0.031,-0.02l-0.032,-0.02l-0.031,-0.021l-0.03,-0.022l-0.03,-0.022l-0.03,-0.024l-0.029,-0.024l-0.029,-0.026l-0.028,-0.026l-0.028,-0.027l-4.063,-4.063l-4.062,4.063l-0.028,0.027l-0.028,0.026l-0.029,0.026l-0.029,0.024l-0.03,0.024l-0.03,0.022l-0.031,0.022l-0.031,0.021l-0.031,0.02l-0.032,0.02l-0.032,0.018l-0.032,0.018l-0.033,0.016l-0.033,0.016l-0.034,0.015l-0.033,0.014l-0.034,0.014l-0.035,0.012l-0.034,0.012l-0.035,0.01l-0.035,0.01l-0.035,0.009l-0.035,0.008l-0.035,0.008l-0.036,0.006l-0.036,0.006l-0.035,0.004l-0.036,0.004l-0.036,0.003l-0.036,0.002l-0.036,0.002l-0.036,0l-0.036,0l-0.036,-0.002l-0.036,-0.002l-0.036,-0.003l-0.036,-0.004l-0.035,-0.004l-0.036,-0.006l-0.036,-0.006l-0.035,-0.008l-0.035,-0.008l-0.035,-0.009l-0.035,-0.01l-0.035,-0.01l-0.034,-0.012l-0.035,-0.012l-0.034,-0.014l-0.033,-0.014l-0.034,-0.015l-0.033,-0.016l-0.033,-0.016l-0.032,-0.018l-0.032,-0.018l-0.032,-0.02l-0.031,-0.02l-0.031,-0.021l-0.031,-0.022l-0.03,-0.022l-0.03,-0.024l-0.029,-0.024l-0.029,-0.026l-0.028,-0.026l-0.028,-0.027l-0.027,-0.028l-0.026,-0.028l-0.025,-0.028l-0.025,-0.03l-0.023,-0.029l-0.023,-0.031l-0.022,-0.03l-0.021,-0.031l-0.02,-0.031l-0.019,-0.032l-0.019,-0.032l-0.017,-0.033l-0.017,-0.033l-0.016,-0.033l-0.015,-0.033l-0.014,-0.034l-0.013,-0.034l-0.013,-0.034l-0.011,-0.035l-0.011,-0.034l-0.01,-0.035l-0.009,-0.035l-0.008,-0.036l-0.007,-0.035l-0.007,-0.035l-0.005,-0.036l-0.005,-0.036l-0.004,-0.036l-0.003,-0.036l-0.002,-0.036l-0.001,-0.036l-0.001,-0.036l0.001,-0.035l0.001,-0.036l0.002,-0.036l0.003,-0.036l0.004,-0.036l0.005,-0.036l0.005,-0.036l0.007,-0.035l0.007,-0.035l0.008,-0.036l0.009,-0.035l0.01,-0.035l0.011,-0.034l0.011,-0.035l0.013,-0.034l0.013,-0.034l0.014,-0.034l0.015,-0.033l0.016,-0.033l0.017,-0.033l0.017,-0.033l0.019,-0.032l0.019,-0.032l0.02,-0.031l0.021,-0.031l0.022,-0.03l0.023,-0.031l0.023,-0.029l0.025,-0.03l0.025,-0.028l0.026,-0.028l0.027,-0.028l4.063,-4.063l-4.063,-4.063l-0.027,-0.027l-0.026,-0.029l-0.025,-0.028l-0.025,-0.029l-0.023,-0.03l-0.023,-0.03l-0.022,-0.031l-0.021,-0.031l-0.02,-0.031l-0.019,-0.032l-0.019,-0.032l-0.017,-0.033l-0.017,-0.032l-0.016,-0.034l-0.015,-0.033l-0.014,-0.034l-0.013,-0.034l-0.013,-0.034l-0.011,-0.034l-0.011,-0.035l-0.01,-0.035l-0.009,-0.035l-0.008,-0.035l-0.007,-0.036l-0.007,-0.035l-0.005,-0.036l-0.005,-0.036l-0.004,-0.035l-0.003,-0.036l-0.002,-0.036l-0.001,-0.036l-0.001,-0.036l0.001,-0.036l0.001,-0.036l0.002,-0.036l0.003,-0.036l0.004,-0.036l0.005,-0.036l0.005,-0.035l0.007,-0.036l0.007,-0.035l0.008,-0.035l0.009,-0.036l0.01,-0.034l0.011,-0.035l0.011,-0.035l0.013,-0.034l0.013,-0.034l0.014,-0.034l0.015,-0.033l0.016,-0.033l0.017,-0.033l0.017,-0.032l0.019,-0.033l0.019,-0.031l0.02,-0.032l0.021,-0.031l0.022,-0.03l0.023,-0.03l0.023,-0.03l0.025,-0.029l0.025,-0.029l0.026,-0.028l0.027,-0.028l0.028,-0.027l0.028,-0.026l0.029,-0.025l0.029,-0.025l0.03,-0.023l0.03,-0.023l0.031,-0.022l0.031,-0.021l0.031,-0.02l0.032,-0.019l0.032,-0.019l0.032,-0.017l0.033,-0.017l0.033,-0.016l0.034,-0.015l0.033,-0.014l0.034,-0.013l0.035,-0.013l0.034,-0.011l0.035,-0.011l0.035,-0.01l0.035,-0.009l0.035,-0.008l0.035,-0.008l0.036,-0.006l0.036,-0.006l0.035,-0.004l0.036,-0.004l0.036,-0.003l0.036,-0.002l0.036,-0.002l0.036,0l0.036,0l0.036,0.002l0.036,0.002l0.036,0.003l0.036,0.004l0.035,0.004l0.036,0.006l0.036,0.006l0.035,0.008l0.035,0.008l0.035,0.009l0.035,0.01l0.035,0.011l0.034,0.011l0.035,0.013l0.034,0.013l0.033,0.014l0.034,0.015l0.033,0.016l0.033,0.017l0.032,0.017l0.032,0.019l0.032,0.019l0.031,0.02l0.031,0.021l0.031,0.022l0.03,0.023l0.03,0.023l0.029,0.025l0.029,0.025l0.028,0.026l0.028,0.027l4.062,4.063l4.063,-4.063l0.028,-0.027l0.028,-0.026l0.029,-0.025l0.029,-0.025l0.03,-0.023l0.03,-0.023l0.03,-0.022l0.031,-0.021l0.032,-0.02l0.031,-0.019l0.033,-0.019l0.032,-0.017l0.033,-0.017l0.033,-0.016l0.033,-0.015l0.034,-0.014l0.034,-0.013l0.034,-0.013l0.035,-0.011l0.035,-0.011l0.034,-0.01l0.036,-0.009l0.035,-0.008l0.035,-0.008l0.036,-0.006l0.035,-0.006l0.036,-0.004l0.036,-0.004l0.036,-0.003l0.036,-0.002l0.036,-0.002l0.036,0l0.036,0Z" style="fill:#131313;"/></g></svg>