<?xml version="1.0" encoding="UTF-8" standalone="no"?><!DOCTYPE svg PUBLIC "-//W3C//DTD SVG 1.1//EN" "http://www.w3.org/Graphics/SVG/1.1/DTD/svg11.dtd"><svg width="100%" height="100%" viewBox="0 0 67 35" version="1.1" xmlns="http://www.w3.org/2000/svg" xmlns:xlink="http://www.w3.org/1999/xlink" xml:space="preserve" xmlns:serif="http://www.serif.com/" style="fill-rule:evenodd;clip-rule:evenodd;stroke-linejoin:round;stroke-miterlimit:2;"><g><path d="M64.602,3.908c0,-1.302 -1.057,-2.358 -2.358,-2.358l-58.336,-0c-1.302,-0 -2.358,1.056 -2.358,2.358c-0,-0 -0,26.214 -0,26.214c-0,1.302 1.056,2.358 2.358,2.358c-0,0 58.336,0 58.336,0c1.301,0 2.358,-1.056 2.358,-2.358l0,-26.214Zm-1.93,-0c-0,-0.236 -0.192,-0.428 -0.428,-0.428l-58.336,-0c-0.236,-0 -0.428,0.192 -0.428,0.428l-0,26.214c-0,0.236 0.192,0.428 0.428,0.428l58.336,-0c0.236,-0 0.428,-0.192 0.428,-0.428l-0,-26.214Z" style="fill:#131313;"/><g id="LaTeX"><path d="M6.54,13.72c-0.006,0.001 -0.013,0.001 -0.02,0.001c-0.526,-0 -0.953,-0.43 -0.953,-0.958c0,-0.529 0.427,-0.959 0.953,-0.959l-0,0l3.969,0l2.852,5.026c2.138,-3.784 4.276,-7.567 6.413,-11.35c0,-0 15.786,0.005 15.786,0.005c1.879,0.309 0.76,1.864 -0.103,1.911l-14.564,-0l-6.696,11.849l-1.667,0.002l-3.136,-5.527l-2.834,0Z" style="fill:#131313;"/><path d="M26.829,13.315l2.694,-2.694c0.388,-0.388 1.018,-0.388 1.407,-0c0.388,0.388 0.388,1.018 -0,1.407l-2.694,2.693l2.694,2.694c0.388,0.389 0.388,1.019 -0,1.407c-0.389,0.388 -1.019,0.388 -1.407,0l-2.694,-2.694l-2.694,2.694c-0.388,0.388 -1.018,0.388 -1.407,0c-0.388,-0.388 -0.388,-1.018 0,-1.407l2.694,-2.694l-2.694,-2.693c-0.388,-0.389 -0.388,-1.019 0,-1.407c0.389,-0.388 1.019,-0.388 1.407,-0l2.694,2.694Z" style="fill:#131313;"/><path d="M26.829,13.315l2.694,-2.694c0.388,-0.388 1.018,-0.388 1.407,-0c0.388,0.388 0.388,1.018 -0,1.407l-2.694,2.693l2.694,2.694c0.388,0.389 0.388,1.019 -0,1.407c-0.389,0.388 -1.019,0.388 -1.407,0l-2.694,-2.694l-2.694,2.694c-0.388,0.388 -1.018,0.388 -1.407,0c-0.388,-0.388 -0.388,-1.018 0,-1.407l2.694,-2.694l-2.694,-2.693c-0.388,-0.389 -0.388,-1.019 0,-1.407c0.389,-0.388 1.019,-0.388 1.407,-0l2.694,2.694Z" style="fill:#131313;"/></g></g></svg>