<?xml version="1.0" encoding="UTF-8" standalone="no"?><!DOCTYPE svg PUBLIC "-//W3C//DTD SVG 1.1//EN" "http://www.w3.org/Graphics/SVG/1.1/DTD/svg11.dtd"><svg width="100%" height="100%" viewBox="0 0 100 57" version="1.1" xmlns="http://www.w3.org/2000/svg" xmlns:xlink="http://www.w3.org/1999/xlink" xml:space="preserve" xmlns:serif="http://www.serif.com/" style="fill-rule:evenodd;clip-rule:evenodd;stroke-linejoin:round;stroke-miterlimit:2;"><rect id="Artboard1" x="0" y="0" width="100" height="56.818" style="fill:none;"/><g><g id="toolbar"><path d="M71.029,19.729c2.003,-10.813 -3.267,-16.439 2.309,-18.69c2.352,-0.95 10.287,3.54 14.04,7.546c10.663,11.38 13.289,20.274 5.77,32.602c-8.28,13.575 -27.076,19.582 -35.089,7.005c-7.769,-12.196 10.074,-12.829 12.97,-28.463Z" style="fill:url(#_Linear1);"/><path d="M71.028,19.729c2.003,-10.813 -3.267,-16.438 2.309,-18.689c2.352,-0.95 10.287,3.54 14.04,7.546c10.663,11.38 13.289,20.273 5.77,32.602c-8.28,13.575 -27.076,19.582 -35.089,7.005c-7.769,-12.196 10.074,-12.829 12.97,-28.464Z" style="fill:url(#_Radial2);"/><path d="M72.366,1.362c0.212,-0.127 0.43,-0.241 0.654,-0.342c1.605,-0.722 3.513,0.112 5.251,0.909c5.841,2.677 10.517,7.563 14.446,13.136c2.67,3.788 4.758,8.174 4.861,12.925c0.114,5.295 -2.165,10.482 -5.124,14.823c-3.779,5.548 -9.347,9.916 -15.813,11.819c-4.727,1.391 -10.05,1.246 -14.214,-1.42c-2.286,-1.464 -4.11,-3.594 -5.375,-6.021c-0.945,-1.813 -1.524,-3.933 -1.013,-5.963c0.856,-3.403 4.122,-5.811 6.761,-8.294c3.519,-3.333 6.557,-7.234 7.663,-12.04c0.989,-4.303 0.66,-9.108 0.117,-13.513c-0.033,-0.276 -0.065,-0.553 -0.091,-0.83c-0.02,-0.218 -0.037,-0.437 -0.049,-0.656c-0.09,-1.602 0.189,-3.377 1.766,-4.432c0.053,-0.034 0.106,-0.068 0.16,-0.101Zm0.093,0.379c-0.549,0.357 -1.015,0.838 -1.289,1.431c-0.687,1.484 -0.351,3.194 -0.149,4.742c0.247,1.88 0.387,4.058 0.449,5.953c0.172,5.234 -1.064,10.518 -4.232,14.774c-2.567,3.451 -6.247,5.974 -8.97,9.267c-1.197,1.447 -2.122,3.205 -2.056,5.163c0.055,1.598 0.685,3.126 1.462,4.485c1.454,2.547 3.578,4.735 6.185,6.045c4.991,2.508 11.354,1.603 16.252,-0.683c6.087,-2.843 11.049,-7.902 14.191,-13.946c2.385,-4.588 3.645,-9.849 2.362,-14.973c-1.41,-5.63 -5.18,-10.377 -9.064,-14.575c-3.024,-3.269 -6.691,-6.17 -10.775,-7.698c-1.187,-0.444 -2.482,-0.881 -3.591,-0.395c-0.269,0.117 -0.528,0.253 -0.775,0.41Z" style="fill:url(#_Radial3);"/></g><path id="undo" d="M44.028,21.977c-7.3,-3.245 -11.636,0.788 -12.498,-6.573c-0.644,-5.5 9.282,-10.21 17.432,-7.775c6.742,2.014 12.352,12.553 9.195,18.261c-5.16,9.332 -9.216,-1.729 -14.129,-3.913Z" style="fill:url(#_Linear4);"/><path id="undo1" serif:id="undo" d="M44.027,21.977c-7.3,-3.245 -11.637,0.788 -12.498,-6.573c-0.644,-5.5 9.282,-10.21 17.432,-7.775c6.742,2.014 12.352,12.553 9.195,18.261c-5.16,9.333 -9.216,-1.729 -14.129,-3.913Z" style="fill:url(#_Radial5);"/><path d="M41.257,7.146c3.57,-0.596 7.425,-0.277 10.432,1.682c4.022,2.619 6.83,7.262 7.376,11.903c0.322,2.742 -0.513,5.642 -2.679,7.765c-0.816,0.8 -1.982,1.356 -3.15,1.087c-2.364,-0.542 -4.042,-2.967 -5.824,-4.814c-1.314,-1.354 -2.717,-2.523 -4.666,-3.211c-2.388,-0.843 -4.972,-0.85 -7.494,-1.255c-0.885,-0.143 -1.789,-0.427 -2.434,-1.099c-0.981,-1.022 -1.288,-2.542 -1.392,-3.987c-0.209,-2.908 2.507,-5.434 5.648,-6.826c1.334,-0.591 2.747,-0.998 4.183,-1.245Zm-0.16,0.2c-3.25,0.595 -6.527,1.977 -8.412,4.51c-1.115,1.498 -1.314,3.46 -0.687,5.494c0.263,0.854 0.719,1.696 1.493,2.185c1.375,0.87 3.167,0.734 4.84,0.903c2.703,0.287 5.485,0.905 7.612,2.699c2.029,1.711 3.567,4.005 5.691,5.494c0.891,0.624 1.973,1.073 3.054,0.748c1.645,-0.497 2.726,-2.205 3.5,-3.73c1.194,-2.353 0.914,-5.27 -0.001,-7.923c-1.591,-4.611 -4.952,-8.895 -9.727,-10.15c-2.394,-0.628 -4.954,-0.658 -7.363,-0.23Z" style="fill:url(#_Linear6);"/><path id="redo" d="M40.804,25.377c2.904,0.499 4.47,2.181 8.476,7.152c4.33,5.371 0.799,11.917 -6.101,11.058c-7.26,-0.904 -10.297,-5.491 -9.48,-12.62c0.335,-2.927 3.469,-6.215 7.105,-5.59Z" style="fill:url(#_Linear7);"/><path id="redo1" serif:id="redo" d="M40.803,25.377c2.904,0.499 4.47,2.181 8.476,7.152c4.329,5.371 0.799,11.917 -6.101,11.058c-7.26,-0.904 -10.297,-5.491 -9.481,-12.62c0.336,-2.927 3.47,-6.215 7.106,-5.59Z" style="fill:url(#_Radial8);"/><path d="M40.517,25.234c0.844,0.1 1.675,0.347 2.434,0.741c1.835,0.952 3.194,2.609 4.537,4.207c1.591,1.893 3.305,3.792 3.697,6.19c0.367,2.245 -0.54,4.664 -2.353,6.016c-1.791,1.337 -4.206,1.57 -6.502,1.175c-3.33,-0.572 -6.607,-2.295 -8.024,-5.73c-0.909,-2.205 -1.025,-4.689 -0.69,-7.018c0.45,-3.13 3.483,-5.879 6.772,-5.594c0.043,0.004 0.086,0.008 0.129,0.013Zm-0.106,0.191c-3.166,-0.3 -6.27,2.46 -6.623,5.636c-0.015,0.137 -0.029,0.274 -0.041,0.412c-0.271,2.975 0.086,6.163 2.124,8.563c0.377,0.443 0.801,0.846 1.261,1.202c1.967,1.52 4.457,2.23 6.92,2.319c3.083,0.111 6.292,-1.743 6.909,-4.903c0.408,-2.089 -0.371,-4.298 -1.71,-6c-1.414,-1.769 -2.805,-3.569 -4.455,-5.091c-1.173,-1.081 -2.592,-1.899 -4.219,-2.119c-0.055,-0.007 -0.11,-0.013 -0.166,-0.019Z" style="fill:url(#_Linear9);"/><path id="search" d="M17.554,13.376c0.345,2.407 0.075,6.049 -4.184,9.152c-3.72,2.711 -8.44,2.967 -9.515,-2.669c-1.131,-5.931 1.702,-9.48 7.508,-10.646c2.384,-0.479 5.76,1.15 6.191,4.163Z" style="fill:url(#_Linear10);"/><path id="search1" serif:id="search" d="M17.554,13.376c0.345,2.407 0.075,6.049 -4.184,9.152c-3.72,2.711 -8.44,2.967 -9.515,-2.669c-1.131,-5.931 1.702,-9.48 7.508,-10.646c2.384,-0.479 5.76,1.15 6.191,4.163Z" style="fill:url(#_Radial11);"/><path d="M13.175,9.084c2.28,0.42 4.271,2.179 4.549,4.565c0.488,4.192 -2.129,8.347 -6.376,10.204c-2.08,0.91 -4.711,1.051 -6.299,-0.874c-1.033,-1.253 -1.385,-2.925 -1.525,-4.52c-0.224,-2.562 0.46,-5.229 2.486,-6.994c1.519,-1.323 3.475,-2.067 5.443,-2.404c0.118,-0.02 0.237,-0.035 0.356,-0.045c0.455,-0.04 0.913,-0.011 1.366,0.068Zm-0.167,0.241c-1.115,-0.167 -2.25,0.111 -3.341,0.463c-1.989,0.643 -3.904,1.813 -4.962,3.675c-1.253,2.205 -1.213,5.083 -0.444,7.457c0.501,1.548 1.689,2.985 3.382,3.272c2.188,0.371 4.447,-0.776 6.216,-2.207c1.623,-1.313 2.926,-3.064 3.421,-5.068c0.54,-2.184 0.343,-4.667 -1.287,-6.167c-0.793,-0.729 -1.805,-1.209 -2.864,-1.405c-0.061,-0.01 -0.06,-0.01 -0.121,-0.02Z" style="fill:url(#_Radial12);"/><path id="image-gallery" serif:id="image gallery" d="M22.412,52.058c-4.863,1.965 -10.794,4.346 -15.058,-0.831c-4.792,-5.818 -2.013,-14.519 4.621,-18.397c6.635,-3.879 13.15,-2.34 16.877,4.212c2.68,4.71 0.686,12.137 -6.44,15.016Z" style="fill:url(#_Linear13);"/><path id="image-gallery1" serif:id="image gallery" d="M22.411,52.058c-4.864,1.965 -10.794,4.346 -15.058,-0.831c-4.792,-5.818 -2.014,-14.519 4.621,-18.397c6.635,-3.879 13.15,-2.34 16.877,4.212c2.68,4.71 0.686,12.137 -6.44,15.016Z" style="fill:url(#_Radial14);"/><path d="M19.103,30.578c2.385,0.026 4.724,0.885 6.566,2.379c1.898,1.54 3.437,3.621 4.094,5.86c1.399,4.773 -1.266,10.246 -5.929,12.742c-0.737,0.394 -1.515,0.7 -2.291,1.01c-3.146,1.249 -6.496,2.474 -9.763,1.701c-4.15,-0.981 -7.064,-5.467 -6.985,-9.997c0.123,-7.066 6.757,-13.53 14.013,-13.693c0.099,-0.002 0.197,-0.002 0.295,-0.002Zm-0.145,0.301c-6.028,0.055 -11.769,4.519 -13.413,10.383c-1.092,3.896 -0.019,8.409 3.093,11.069c1.179,1.008 2.661,1.648 4.207,1.817c3.357,0.365 6.712,-1.024 9.837,-2.367c2.2,-0.961 4.149,-2.512 5.439,-4.517c2.006,-3.118 2.34,-7.272 0.38,-10.523c-1.999,-3.313 -5.39,-5.793 -9.328,-5.861c-0.072,-0.001 -0.144,-0.001 -0.215,-0.001Z" style="fill:url(#_Linear15);"/></g><defs><linearGradient id="_Linear1" x1="0" y1="0" x2="1" y2="0" gradientUnits="userSpaceOnUse" gradientTransform="matrix(-0.525195,123.968,-123.968,-0.525195,76.1693,-69.5306)"><stop offset="0" style="stop-color:#fff;stop-opacity:1"/><stop offset="0.42" style="stop-color:#ead1cd;stop-opacity:1"/><stop offset="1" style="stop-color:#be6f61;stop-opacity:1"/></linearGradient><radialGradient id="_Radial2" cx="0" cy="0" r="1" gradientUnits="userSpaceOnUse" gradientTransform="matrix(-7.81468,33.0147,-22.4923,-5.324,78.3142,26.1965)"><stop offset="0" style="stop-color:#fff;stop-opacity:0"/><stop offset="0.42" style="stop-color:#aeaeae;stop-opacity:0.16"/><stop offset="1" style="stop-color:#000001;stop-opacity:0.5"/></radialGradient><radialGradient id="_Radial3" cx="0" cy="0" r="1" gradientUnits="userSpaceOnUse" gradientTransform="matrix(-17.7681,33.7243,-33.7169,-17.7857,73.9771,0.74442)"><stop offset="0" style="stop-color:#fefffe;stop-opacity:0.7"/><stop offset="1" style="stop-color:#000;stop-opacity:1"/></radialGradient><linearGradient id="_Linear4" x1="0" y1="0" x2="1" y2="0" gradientUnits="userSpaceOnUse" gradientTransform="matrix(57.7571,-108.359,108.359,57.7571,48.0409,68.2392)"><stop offset="0" style="stop-color:#be6f61;stop-opacity:1"/><stop offset="0.58" style="stop-color:#ead1cd;stop-opacity:1"/><stop offset="1" style="stop-color:#fff;stop-opacity:1"/></linearGradient><radialGradient id="_Radial5" cx="0" cy="0" r="1" gradientUnits="userSpaceOnUse" gradientTransform="matrix(9.5551,14.71,-14.71,9.5551,44.8277,15.6596)"><stop offset="0" style="stop-color:#fefffe;stop-opacity:0"/><stop offset="1" style="stop-color:#010001;stop-opacity:0.47"/></radialGradient><linearGradient id="_Linear6" x1="0" y1="0" x2="1" y2="0" gradientUnits="userSpaceOnUse" gradientTransform="matrix(0.37038,-15.8545,15.8545,0.37038,45.3139,23.5906)"><stop offset="0" style="stop-color:#010001;stop-opacity:1"/><stop offset="1" style="stop-color:#fefffe;stop-opacity:0.5"/></linearGradient><linearGradient id="_Linear7" x1="0" y1="0" x2="1" y2="0" gradientUnits="userSpaceOnUse" gradientTransform="matrix(-67.7389,92.3068,-92.3068,-67.7389,112.742,-17.6124)"><stop offset="0" style="stop-color:#fff;stop-opacity:1"/><stop offset="0.42" style="stop-color:#ead1cd;stop-opacity:1"/><stop offset="1" style="stop-color:#be6f61;stop-opacity:1"/></linearGradient><radialGradient id="_Radial8" cx="0" cy="0" r="1" gradientUnits="userSpaceOnUse" gradientTransform="matrix(-7.64942,5.46733,-6.80993,-9.52787,41.3077,33.5247)"><stop offset="0" style="stop-color:#fff;stop-opacity:0"/><stop offset="0.42" style="stop-color:#aeaeae;stop-opacity:0.06"/><stop offset="1" style="stop-color:#000001;stop-opacity:0.2"/></radialGradient><linearGradient id="_Linear9" x1="0" y1="0" x2="1" y2="0" gradientUnits="userSpaceOnUse" gradientTransform="matrix(-0.0136704,18.3337,-18.3337,-0.0136704,42.3683,25.4029)"><stop offset="0" style="stop-color:#fefffe;stop-opacity:0.68"/><stop offset="0.5" style="stop-color:#f7f7f7;stop-opacity:0.41"/><stop offset="1" style="stop-color:#000;stop-opacity:1"/></linearGradient><linearGradient id="_Linear10" x1="0" y1="0" x2="1" y2="0" gradientUnits="userSpaceOnUse" gradientTransform="matrix(20.6643,-18.2361,18.2361,20.6643,2.88458,25.1107)"><stop offset="0" style="stop-color:#c48d83;stop-opacity:1"/><stop offset="1" style="stop-color:#fff;stop-opacity:1"/></linearGradient><radialGradient id="_Radial11" cx="0" cy="0" r="1" gradientUnits="userSpaceOnUse" gradientTransform="matrix(-4.98095,7.20525,-5.45401,-3.77032,10.6878,15.7912)"><stop offset="0" style="stop-color:#fff;stop-opacity:0"/><stop offset="0.48" style="stop-color:#bbbfbf;stop-opacity:0.1"/><stop offset="1" style="stop-color:#000d10;stop-opacity:0.38"/></radialGradient><radialGradient id="_Radial12" cx="0" cy="0" r="1" gradientUnits="userSpaceOnUse" gradientTransform="matrix(4.23524,-13.4218,13.4218,4.23524,9.49368,22.697)"><stop offset="0" style="stop-color:#000;stop-opacity:1"/><stop offset="0.7" style="stop-color:#f4f5f5;stop-opacity:0.5"/><stop offset="1" style="stop-color:#fff;stop-opacity:0.5"/></radialGradient><linearGradient id="_Linear13" x1="0" y1="0" x2="1" y2="0" gradientUnits="userSpaceOnUse" gradientTransform="matrix(-40.4383,57.3346,-57.3346,-40.4383,81.1311,38.592)"><stop offset="0" style="stop-color:#fff;stop-opacity:1"/><stop offset="0.42" style="stop-color:#ead1cd;stop-opacity:1"/><stop offset="1" style="stop-color:#be6f61;stop-opacity:1"/></linearGradient><radialGradient id="_Radial14" cx="0" cy="0" r="1" gradientUnits="userSpaceOnUse" gradientTransform="matrix(-12.2997,8.62337,-6.78753,-9.68121,17.0933,41.0218)"><stop offset="0" style="stop-color:#fff;stop-opacity:0"/><stop offset="0.51" style="stop-color:#c1c1c1;stop-opacity:0.13"/><stop offset="1" style="stop-color:#000;stop-opacity:0.54"/></radialGradient><linearGradient id="_Linear15" x1="0" y1="0" x2="1" y2="0" gradientUnits="userSpaceOnUse" gradientTransform="matrix(-3.07657,25.4538,-25.4538,-3.07657,17.782,29.6516)"><stop offset="0" style="stop-color:#feffff;stop-opacity:0.5"/><stop offset="0.58" style="stop-color:#515151;stop-opacity:0.84"/><stop offset="1" style="stop-color:#000;stop-opacity:1"/></linearGradient></defs></svg>