<?xml version="1.0" encoding="UTF-8" standalone="no"?><!DOCTYPE svg PUBLIC "-//W3C//DTD SVG 1.1//EN" "http://www.w3.org/Graphics/SVG/1.1/DTD/svg11.dtd"><svg width="100%" height="100%" viewBox="0 0 45 38" version="1.1" xmlns="http://www.w3.org/2000/svg" xmlns:xlink="http://www.w3.org/1999/xlink" xml:space="preserve" xmlns:serif="http://www.serif.com/" style="fill-rule:evenodd;clip-rule:evenodd;stroke-linejoin:round;stroke-miterlimit:2;"><path d="M27.234,9.951c8.411,-5.023 9.072,-11.858 13.859,-9.454c2.019,1.014 3.685,8.963 3.215,13.831c-1.337,13.827 -5.74,20.817 -18.41,23.042c-13.95,2.451 -29.028,-6.585 -25.331,-19.345c3.584,-12.373 14.507,-0.812 26.667,-8.074Zm-5.818,13.281l-4.958,4.904c-0.491,0.485 -0.495,1.278 -0.01,1.768c0.485,0.491 1.277,0.495 1.768,0.01l4.978,-4.924l4.978,4.924c0.491,0.485 1.283,0.481 1.768,-0.01c0.485,-0.49 0.481,-1.283 -0.01,-1.768l-4.958,-4.904l4.958,-4.904c0.491,-0.485 0.495,-1.277 0.01,-1.767c-0.485,-0.491 -1.277,-0.495 -1.768,-0.01l-4.978,4.923l-4.978,-4.923c-0.491,-0.485 -1.283,-0.481 -1.768,0.01c-0.485,0.49 -0.481,1.282 0.01,1.767l4.958,4.904Z" style="fill:#6e6e6e;"/></svg>