<?xml version="1.0" encoding="UTF-8" standalone="no"?><!DOCTYPE svg PUBLIC "-//W3C//DTD SVG 1.1//EN" "http://www.w3.org/Graphics/SVG/1.1/DTD/svg11.dtd"><svg width="100%" height="100%" viewBox="0 0 42 51" version="1.1" xmlns="http://www.w3.org/2000/svg" xmlns:xlink="http://www.w3.org/1999/xlink" xml:space="preserve" xmlns:serif="http://www.serif.com/" style="fill-rule:evenodd;clip-rule:evenodd;stroke-linejoin:round;stroke-miterlimit:2;"><path id="settings" d="M10.539,32.86c-5.642,-9.627 -16.496,-20.752 -6.406,-29.41c9.36,-8.032 24.821,-1.366 33.721,13.036c7.362,11.914 2.799,29.028 -8.171,32.553c-17.935,5.763 -13.742,-6.964 -19.144,-16.179Z" style="fill:url(#_Linear1);"/><clipPath id="_clip2"><path d="M10.539,32.86c-5.642,-9.627 -16.496,-20.752 -6.406,-29.41c9.36,-8.032 24.821,-1.366 33.721,13.036c7.362,11.914 2.799,29.028 -8.171,32.553c-17.935,5.763 -13.742,-6.964 -19.144,-16.179Z"/></clipPath><g clip-path="url(#_clip2)"><path d="M7.838,43.063c-0.89,-0.318 -1.759,-0.739 -2.59,-1.266c-5.427,-3.446 -7.413,-10.278 -4.955,-16.003l-1.311,2.337l-2.026,-2.046l1.443,-2.494l2.872,0.354c0.533,-0.838 1.146,-1.593 1.824,-2.263l-0.813,-2.646l2.436,-1.539l2.253,1.557c0.72,-0.317 1.467,-0.566 2.229,-0.746l0.519,-2.597l2.875,-0.197l1.301,2.557c0.89,0.118 1.775,0.331 2.64,0.641l2.056,-1.847l2.421,1.562l-0.451,2.617c0.818,0.695 1.531,1.478 2.135,2.324l2.821,-0.463l1.197,2.621l-1.989,2.177l-0.049,-0.103c0.2,0.762 0.331,1.541 0.39,2.328l2.612,1.06l-0.345,2.861l-2.791,0.809c-0.237,0.778 -0.551,1.542 -0.945,2.282l1.643,2.241l-1.795,2.254l-2.805,-0.777c-0.675,0.585 -1.404,1.092 -2.171,1.518l0.198,2.602l-2.715,0.964l-1.904,-2.07c-0.71,0.104 -1.429,0.15 -2.15,0.135l0.228,0.042l-1.28,2.58l-2.827,-0.558l-0.607,-2.886l0.426,0.078Zm9.446,-20.223c4.423,2.808 5.734,8.679 2.925,13.101c-2.808,4.423 -8.678,5.734 -13.101,2.926c-4.422,-2.808 -5.733,-8.679 -2.925,-13.102c2.808,-4.422 8.678,-5.733 13.101,-2.925Z" style="fill:#fcfcfc;fill-opacity:0.82;"/><path d="M36.032,19.732c1.884,4.463 1.437,8.99 -3.066,10.214c-4.927,1.339 -8.107,-1.766 -9.992,-6.229c-1.884,-4.464 -2.49,-8.822 2.338,-10.861c4.828,-2.038 8.836,2.413 10.72,6.876Z" style="fill:#fff;fill-opacity:0.12;"/></g><defs><linearGradient id="_Linear1" x1="0" y1="0" x2="1" y2="0" gradientUnits="userSpaceOnUse" gradientTransform="matrix(80.2912,-30.0937,30.0937,80.2912,-34.246,47.445)"><stop offset="0" style="stop-color:#c87f6d;stop-opacity:1"/><stop offset="1" style="stop-color:#89bec9;stop-opacity:1"/></linearGradient></defs></svg>