<?xml version="1.0" encoding="UTF-8" standalone="no"?><!DOCTYPE svg PUBLIC "-//W3C//DTD SVG 1.1//EN" "http://www.w3.org/Graphics/SVG/1.1/DTD/svg11.dtd"><svg width="100%" height="100%" viewBox="0 0 81 95" version="1.1" xmlns="http://www.w3.org/2000/svg" xmlns:xlink="http://www.w3.org/1999/xlink" xml:space="preserve" xmlns:serif="http://www.serif.com/" style="fill-rule:evenodd;clip-rule:evenodd;stroke-linejoin:round;stroke-miterlimit:2;"><g id="play-button"><path d="M23.22,18.526c18.75,7.629 56.951,36.929 57.78,76.474l-81,0l0.023,-95c7.937,9.522 11.33,13.697 23.197,18.526Z" style="fill:url(#_Radial1);"/><path d="M20.121,46.625c0.377,0.055 0.404,0.11 0.566,0.223l17.868,13.673c0.573,0.482 0.529,1.416 -0.11,1.835l-17.868,10.542c-0.71,0.376 -1.633,-0.111 -1.672,-0.954l-0,-24.216c0.03,-0.636 0.559,-1.136 1.216,-1.103Z" style="fill:#fff;fill-opacity:0.88;"/><path d="M45.853,39.259c7.912,5.605 13.183,12.001 9.489,15.054c-4.039,3.338 -11.727,0.002 -19.639,-5.604c-7.912,-5.605 -14.198,-11.452 -11.168,-15.728c3.029,-4.277 13.406,0.672 21.318,6.278Z" style="fill:#fff;fill-opacity:0.07;"/><path d="M68.166,66.299c0.861,2.662 0.015,6.578 -3.184,7.549c-3.198,0.971 -5.103,-1.844 -6.012,-4.599c-1.681,-5.093 0.425,-6.468 2.245,-7.082c3.166,-1.069 5.881,0.821 6.951,4.132Z" style="fill:#fff;fill-opacity:0.07;"/></g><defs><radialGradient id="_Radial1" cx="0" cy="0" r="1" gradientUnits="userSpaceOnUse" gradientTransform="matrix(221.221,-44.808,44.808,221.221,0,102.792)"><stop offset="0" style="stop-color:#000;stop-opacity:1"/><stop offset="0.25" style="stop-color:#333;stop-opacity:1"/><stop offset="1" style="stop-color:#fff;stop-opacity:1"/></radialGradient></defs></svg>