<?xml version="1.0" encoding="UTF-8" standalone="no"?><!DOCTYPE svg PUBLIC "-//W3C//DTD SVG 1.1//EN" "http://www.w3.org/Graphics/SVG/1.1/DTD/svg11.dtd"><svg width="100%" height="100%" viewBox="0 0 147 146" version="1.1" xmlns="http://www.w3.org/2000/svg" xmlns:xlink="http://www.w3.org/1999/xlink" xml:space="preserve" xmlns:serif="http://www.serif.com/" style="fill-rule:evenodd;clip-rule:evenodd;stroke-linejoin:round;stroke-miterlimit:2;"><path d="M81.134,21.665c31.457,6.672 67.051,23.309 65.381,74.166c-0.726,22.11 -8.199,38.436 -20.182,50.169l-126.333,0l0,-146c1.758,0.625 3.541,1.688 5.341,3.24c15.342,13.216 56.09,14.245 75.793,18.425Z" style="fill:url(#_Linear1);"/><path d="M53.524,65.513c0.681,0.099 0.728,0.199 1.022,0.403l32.242,24.672c1.034,0.87 0.955,2.555 -0.199,3.311l-32.242,19.024c-1.281,0.678 -2.947,-0.2 -3.017,-1.723l0,-43.696c0.053,-1.149 1.008,-2.051 2.194,-1.991Z" style="fill:#fff;fill-opacity:0.88;"/><path d="M77.143,28.057c12.784,3.098 22.635,8.517 19.51,14.216c-3.418,6.234 -14.781,5.884 -27.565,2.786c-12.783,-3.098 -23.638,-7.316 -21.964,-14.225c1.675,-6.91 17.235,-5.875 30.019,-2.777Z" style="fill:#fff;fill-opacity:0.15;"/><path d="M114.648,44.075c3.283,1.902 5.986,6.618 3.643,10.5c-2.343,3.883 -6.819,2.774 -10.236,0.822c-6.318,-3.608 -5.442,-6.906 -4.166,-9.176c2.222,-3.953 6.674,-4.512 10.759,-2.146Z" style="fill:#fff;fill-opacity:0.15;"/><defs><linearGradient id="_Linear1" x1="0" y1="0" x2="1" y2="0" gradientUnits="userSpaceOnUse" gradientTransform="matrix(177.565,-248.886,248.886,177.565,3.95519,179.39)"><stop offset="0" style="stop-color:#cd7b67;stop-opacity:0.88"/><stop offset="1" style="stop-color:#72c3d3;stop-opacity:0.88"/></linearGradient></defs></svg>