<?xml version="1.0" encoding="UTF-8" standalone="no"?><!DOCTYPE svg PUBLIC "-//W3C//DTD SVG 1.1//EN" "http://www.w3.org/Graphics/SVG/1.1/DTD/svg11.dtd"><svg width="100%" height="100%" viewBox="0 0 26 25" version="1.1" xmlns="http://www.w3.org/2000/svg" xmlns:xlink="http://www.w3.org/1999/xlink" xml:space="preserve" xmlns:serif="http://www.serif.com/" style="fill-rule:evenodd;clip-rule:evenodd;stroke-linejoin:round;stroke-miterlimit:2;"><g id="plus"><ellipse cx="12.731" cy="12.5" rx="12.731" ry="12.5" style="fill:#f3f3f3;"/><path d="M11.249,11.005l0,-4.548c0,-0.822 0.668,-1.49 1.49,-1.49c0.823,0 1.491,0.668 1.491,1.49l0,4.548l4.548,0c0.822,0 1.49,0.668 1.49,1.491c0,0.822 -0.668,1.49 -1.49,1.49l-4.548,0l0,4.548c0,0.823 -0.668,1.49 -1.491,1.49c-0.822,0 -1.49,-0.667 -1.49,-1.49l0,-4.548l-4.548,0c-0.822,0 -1.49,-0.668 -1.49,-1.49c0,-0.823 0.668,-1.491 1.49,-1.491l4.548,0Z" style="fill:#505050;"/></g></svg>