<?xml version="1.0" encoding="UTF-8" standalone="no"?><!DOCTYPE svg PUBLIC "-//W3C//DTD SVG 1.1//EN" "http://www.w3.org/Graphics/SVG/1.1/DTD/svg11.dtd"><svg width="100%" height="100%" viewBox="0 0 25 25" version="1.1" xmlns="http://www.w3.org/2000/svg" xmlns:xlink="http://www.w3.org/1999/xlink" xml:space="preserve" xmlns:serif="http://www.serif.com/" style="fill-rule:evenodd;clip-rule:evenodd;stroke-linejoin:round;stroke-miterlimit:2;"><circle cx="12.5" cy="12.5" r="12.5" style="fill:#9c9c9c;"/><path d="M14.059,6.374c0,-0.846 -0.687,-1.533 -1.532,-1.533c-0.846,0 -1.533,0.687 -1.533,1.533l0,12.267c0,0.846 0.687,1.533 1.533,1.533c0.845,0 1.532,-0.687 1.532,-1.533l0,-12.267Z" style="fill:#fff;"/><path d="M18.66,14.04c0.846,0 1.533,-0.687 1.533,-1.533c0,-0.846 -0.687,-1.533 -1.533,-1.533l-12.267,0c-0.846,0 -1.533,0.687 -1.533,1.533c0,0.846 0.687,1.533 1.533,1.533l12.267,0Z" style="fill:#fff;"/></svg>