<?xml version="1.0" encoding="UTF-8" standalone="no"?>
<!DOCTYPE svg PUBLIC "-//W3C//DTD SVG 1.1//EN" "http://www.w3.org/Graphics/SVG/1.1/DTD/svg11.dtd">
<svg width="100%" height="100%" viewBox="0 0 19 19" version="1.1" xmlns="http://www.w3.org/2000/svg" xmlns:xlink="http://www.w3.org/1999/xlink" xml:space="preserve" xmlns:serif="http://www.serif.com/" style="fill-rule:evenodd;clip-rule:evenodd;stroke-linejoin:round;stroke-miterlimit:2;">
    <g transform="matrix(1,0,0,1,-8323.41,-3669.7)">
        <g transform="matrix(1,0,0,1,7334.16,3254.74)">
            <g transform="matrix(0.95703,-0.289987,0.289987,0.95703,37.3428,245.865)">
                <g transform="matrix(0.342763,0,0,0.678299,-2693.55,-2063.14)">
                    <path d="M10418.2,3704.06C10418.2,3703.06 10416.6,3702.25 10414.6,3702.25L10406,3702.25C10404,3702.25 10402.4,3703.06 10402.4,3704.06C10402.4,3705.06 10404,3705.87 10406,3705.87L10414.6,3705.87C10416.6,3705.87 10418.2,3705.06 10418.2,3704.06Z" style="fill:rgb(41,41,41);"/>
                </g>
                <g transform="matrix(0.342763,0,0,0.678299,-2707.01,-2063.14)">
                    <path d="M10418.2,3704.06C10418.2,3703.06 10416.6,3702.25 10414.6,3702.25L10406,3702.25C10404,3702.25 10402.4,3703.06 10402.4,3704.06C10402.4,3705.06 10404,3705.87 10406,3705.87L10414.6,3705.87C10416.6,3705.87 10418.2,3705.06 10418.2,3704.06Z" style="fill:rgb(41,41,41);"/>
                </g>
                <g transform="matrix(-0.171381,0.296841,-0.587424,-0.33915,4824.6,-1378.83)">
                    <path d="M10418.2,3704.06C10418.2,3703.06 10416.6,3702.25 10414.6,3702.25L10406,3702.25C10404,3702.25 10402.4,3703.06 10402.4,3704.06C10402.4,3705.06 10404,3705.87 10406,3705.87L10414.6,3705.87C10416.6,3705.87 10418.2,3705.06 10418.2,3704.06Z" style="fill:rgb(41,41,41);"/>
                </g>
                <g transform="matrix(-0.171381,0.296841,-0.587424,-0.33915,4831.33,-1390.49)">
                    <path d="M10418.2,3704.06C10418.2,3703.06 10416.6,3702.25 10414.6,3702.25L10406,3702.25C10404,3702.25 10402.4,3703.06 10402.4,3704.06C10402.4,3705.06 10404,3705.87 10406,3705.87L10414.6,3705.87C10416.6,3705.87 10418.2,3705.06 10418.2,3704.06Z" style="fill:rgb(41,41,41);"/>
                </g>
                <g transform="matrix(0.171381,0.296841,-0.587424,0.33915,1263.07,-3891.29)">
                    <path d="M10418.2,3704.06C10418.2,3703.06 10416.6,3702.25 10414.6,3702.25L10406,3702.25C10404,3702.25 10402.4,3703.06 10402.4,3704.06C10402.4,3705.06 10404,3705.87 10406,3705.87L10414.6,3705.87C10416.6,3705.87 10418.2,3705.06 10418.2,3704.06Z" style="fill:rgb(41,41,41);"/>
                </g>
                <g transform="matrix(0.171381,0.296841,-0.587424,0.33915,1256.34,-3902.95)">
                    <path d="M10418.2,3704.06C10418.2,3703.06 10416.6,3702.25 10414.6,3702.25L10406,3702.25C10404,3702.25 10402.4,3703.06 10402.4,3704.06C10402.4,3705.06 10404,3705.87 10406,3705.87L10414.6,3705.87C10416.6,3705.87 10418.2,3705.06 10418.2,3704.06Z" style="fill:rgb(41,41,41);"/>
                </g>
            </g>
        </g>
    </g>
</svg>
