<?xml version="1.0" encoding="UTF-8" standalone="no"?>
<!DOCTYPE svg PUBLIC "-//W3C//DTD SVG 1.1//EN" "http://www.w3.org/Graphics/SVG/1.1/DTD/svg11.dtd">
<svg width="100%" height="100%" viewBox="0 0 28 21" version="1.1" xmlns="http://www.w3.org/2000/svg" xmlns:xlink="http://www.w3.org/1999/xlink" xml:space="preserve" xmlns:serif="http://www.serif.com/" style="fill-rule:evenodd;clip-rule:evenodd;stroke-linejoin:round;stroke-miterlimit:2;">
    <g transform="matrix(1,0,0,1,-8451.68,-3574.77)">
        <g transform="matrix(1,0,0,1,7334.16,3254.74)">
            <g transform="matrix(0.750251,0,0,0.737547,-2502.38,-388.024)">
                <g transform="matrix(0.870059,0,0,0.806947,2396.19,127.083)">
                    <path d="M2827.88,1040.4C2827.88,1039.22 2827,1038.26 2825.93,1038.26L2798.67,1038.26C2797.6,1038.26 2796.72,1039.22 2796.72,1040.4L2796.72,1058.22C2796.72,1059.41 2797.6,1060.37 2798.67,1060.37L2825.93,1060.37C2827,1060.37 2827.88,1059.41 2827.88,1058.22L2827.88,1040.4Z" style="fill:rgb(56,56,56);"/>
                </g>
                <g transform="matrix(1,0,0,1,-114.529,-1.13687e-13)">
                    <path d="M4973.01,984.618L4967.95,984.624C4967.25,984.604 4966.74,985.058 4966.56,985.607C4966.43,985.992 4966.46,986.417 4966.68,986.761C4966.89,987.097 4967.28,987.388 4967.95,987.414C4967.96,987.414 4967.97,987.415 4967.97,987.415L4974.4,987.389C4974.41,987.389 4974.42,987.388 4974.43,987.388C4975.12,987.348 4975.49,986.998 4975.68,986.477C4975.73,986.36 4975.75,986.316 4975.77,986.045C4975.77,986.037 4975.77,986.028 4975.77,986.02L4975.8,979.433C4975.78,977.651 4973.23,977.652 4973.02,979.275C4973.02,979.299 4973.02,979.324 4973.02,979.348L4973.01,984.618Z" style="fill:rgb(56,56,56);"/>
                </g>
                <g transform="matrix(-1,0,0,-1,9800.71,1947.42)">
                    <path d="M4973.01,984.618L4967.95,984.624C4967.25,984.604 4966.74,985.058 4966.56,985.607C4966.43,985.992 4966.46,986.417 4966.68,986.761C4966.89,987.097 4967.28,987.388 4967.95,987.414C4967.96,987.414 4967.97,987.415 4967.97,987.415L4974.4,987.389C4974.41,987.389 4974.42,987.388 4974.43,987.388C4975.12,987.348 4975.49,986.998 4975.68,986.477C4975.73,986.36 4975.75,986.316 4975.77,986.045C4975.77,986.037 4975.77,986.028 4975.77,986.02L4975.8,979.433C4975.78,977.651 4973.23,977.652 4973.02,979.275C4973.02,979.299 4973.02,979.324 4973.02,979.348L4973.01,984.618Z" style="fill:rgb(56,56,56);"/>
                </g>
            </g>
        </g>
    </g>
</svg>
