<?xml version="1.0" encoding="UTF-8" standalone="no"?>
<!DOCTYPE svg PUBLIC "-//W3C//DTD SVG 1.1//EN" "http://www.w3.org/Graphics/SVG/1.1/DTD/svg11.dtd">
<svg width="100%" height="100%" viewBox="0 0 20 23" version="1.1" xmlns="http://www.w3.org/2000/svg" xmlns:xlink="http://www.w3.org/1999/xlink" xml:space="preserve" xmlns:serif="http://www.serif.com/" style="fill-rule:evenodd;clip-rule:evenodd;stroke-linejoin:round;stroke-miterlimit:2;">
    <g transform="matrix(1,0,0,1,-4947.78,-4142.04)">
        <g transform="matrix(1,0,0,1,4923.65,3254.74)">
            <g transform="matrix(-0.401276,0,0,0.401276,138.651,525.895)">
                <g transform="matrix(-1.76645,0,0,2.20108,9028.46,-1209.06)">
                    <path d="M4971.98,967.726C4971.98,966.576 4970.81,965.642 4969.38,965.642L4952.1,965.642C4950.67,965.642 4949.51,966.576 4949.51,967.726C4949.51,968.876 4950.67,969.81 4952.1,969.81L4969.38,969.81C4970.81,969.81 4971.98,968.876 4971.98,967.726Z" style="fill:rgb(47,47,47);"/>
                </g>
                <g transform="matrix(-2.20108,0,0,2.20108,11179.6,-1224.81)">
                    <path d="M4971.98,967.726C4971.98,966.576 4971.04,965.642 4969.89,965.642L4951.59,965.642C4950.44,965.642 4949.51,966.576 4949.51,967.726C4949.51,968.876 4950.44,969.81 4951.59,969.81L4969.89,969.81C4971.04,969.81 4971.98,968.876 4971.98,967.726Z" style="fill:rgb(47,47,47);"/>
                </g>
                <g transform="matrix(-2.20108,0,0,2.20108,11179.6,-1193.71)">
                    <path d="M4971.98,967.726C4971.98,966.576 4971.04,965.642 4969.89,965.642L4951.59,965.642C4950.44,965.642 4949.51,966.576 4949.51,967.726C4949.51,968.876 4950.44,969.81 4951.59,969.81L4969.89,969.81C4971.04,969.81 4971.98,968.876 4971.98,967.726Z" style="fill:rgb(47,47,47);"/>
                </g>
                <g transform="matrix(-1.10054,0,0,2.20108,5732.52,-1178.15)">
                    <path d="M4971.98,967.726C4971.98,966.576 4970.11,965.642 4967.81,965.642L4953.67,965.642C4951.37,965.642 4949.51,966.576 4949.51,967.726C4949.51,968.876 4951.37,969.81 4953.67,969.81L4967.81,969.81C4970.11,969.81 4971.98,968.876 4971.98,967.726Z" style="fill:rgb(47,47,47);"/>
                </g>
            </g>
        </g>
    </g>
</svg>
