<?xml version="1.0" encoding="UTF-8" standalone="no"?>
<!DOCTYPE svg PUBLIC "-//W3C//DTD SVG 1.1//EN" "http://www.w3.org/Graphics/SVG/1.1/DTD/svg11.dtd">
<svg width="100%" height="100%" viewBox="0 0 32 23" version="1.1" xmlns="http://www.w3.org/2000/svg" xmlns:xlink="http://www.w3.org/1999/xlink" xml:space="preserve" xmlns:serif="http://www.serif.com/" style="fill-rule:evenodd;clip-rule:evenodd;stroke-linejoin:round;stroke-miterlimit:2;">
    <g transform="matrix(1,0,0,1,-8357,-3622.51)">
        <g transform="matrix(1,0,0,1,7246.27,3410.75)">
            <g transform="matrix(0.593294,0,0,0.593294,-547.92,157.188)">
                <g id="account" transform="matrix(0.758665,0,0,0.758665,2516.07,0.0305797)">
                    <g transform="matrix(1.06442,0,0,1.06442,-307.392,-1391.38)">
                        <path d="M674.603,1428.08C675.803,1424.01 679.567,1421.04 684.019,1421.04C689.437,1421.04 693.836,1425.44 693.836,1430.85C693.836,1436.27 689.437,1440.67 684.019,1440.67C682.982,1440.67 681.983,1440.51 681.044,1440.21C681.112,1439.7 681.147,1439.18 681.147,1438.65C681.147,1434.02 678.481,1430.01 674.603,1428.08Z" style="fill:rgb(56,56,56);"/>
                    </g>
                    <g transform="matrix(1.06442,0,0,1.06442,-307.392,-1391.38)">
                        <path d="M677.121,1447.53C678.733,1446.12 679.957,1444.27 680.612,1442.17C681.692,1442.5 682.835,1442.67 684.019,1442.67C686.055,1442.67 687.972,1442.15 689.645,1441.25C700.242,1443.52 701.365,1451.87 701.584,1454.62C701.758,1456.81 699.769,1459.71 697.534,1459.71L688.526,1459.71C687.995,1457.18 686.733,1453.76 683.609,1451.02C682.007,1449.61 679.903,1448.36 677.121,1447.53Z" style="fill:rgb(56,56,56);"/>
                    </g>
                </g>
                <g id="account1" serif:id="account" transform="matrix(-0.758665,0,0,0.758665,3129.02,0.0305797)">
                    <g transform="matrix(1.06442,0,0,1.06442,-307.392,-1391.38)">
                        <path d="M674.603,1428.08C675.803,1424.01 679.567,1421.04 684.019,1421.04C689.437,1421.04 693.836,1425.44 693.836,1430.85C693.836,1436.27 689.437,1440.67 684.019,1440.67C682.982,1440.67 681.983,1440.51 681.044,1440.21C681.112,1439.7 681.147,1439.18 681.147,1438.65C681.147,1434.02 678.481,1430.01 674.603,1428.08Z" style="fill:rgb(56,56,56);"/>
                    </g>
                    <g transform="matrix(1.06442,0,0,1.06442,-307.392,-1391.38)">
                        <path d="M677.121,1447.53C678.733,1446.12 679.957,1444.27 680.612,1442.17C681.692,1442.5 682.835,1442.67 684.019,1442.67C686.055,1442.67 687.972,1442.15 689.645,1441.25C700.242,1443.52 701.365,1451.87 701.584,1454.62C701.758,1456.81 699.769,1459.71 697.534,1459.71L688.526,1459.71C687.995,1457.18 686.733,1453.76 683.609,1451.02C682.007,1449.61 679.903,1448.36 677.121,1447.53Z" style="fill:rgb(56,56,56);"/>
                    </g>
                </g>
                <g id="account2" serif:id="account" transform="matrix(0.758665,0,0,0.758665,2503.57,6.3264)">
                    <g transform="matrix(0.617477,0,0,0.617477,214.107,53.5799)">
                        <circle cx="334.563" cy="126.434" r="16.922" style="fill:rgb(56,56,56);"/>
                    </g>
                    <g transform="matrix(1.06442,0,0,1.06442,-291.757,-1399.68)">
                        <path d="M663.601,1448.99C665.299,1449.93 667.252,1450.47 669.33,1450.47C671.366,1450.47 673.283,1449.95 674.956,1449.04C685.553,1451.31 686.676,1459.67 686.894,1462.42C687.068,1464.61 685.08,1467.51 682.845,1467.51L655.815,1467.51C653.58,1467.51 651.592,1464.61 651.766,1462.42C651.984,1459.68 653.1,1451.18 663.601,1448.99Z" style="fill:rgb(56,56,56);"/>
                    </g>
                </g>
            </g>
        </g>
    </g>
</svg>
