<?xml version="1.0" encoding="UTF-8" standalone="no"?>
<!DOCTYPE svg PUBLIC "-//W3C//DTD SVG 1.1//EN" "http://www.w3.org/Graphics/SVG/1.1/DTD/svg11.dtd">
<svg width="100%" height="100%" viewBox="0 0 72 20" version="1.1" xmlns="http://www.w3.org/2000/svg" xmlns:xlink="http://www.w3.org/1999/xlink" xml:space="preserve" xmlns:serif="http://www.serif.com/" style="fill-rule:evenodd;clip-rule:evenodd;stroke-linejoin:round;stroke-miterlimit:2;">
    <g transform="matrix(1,0,0,1,-8364.06,-3700.18)">
        <g transform="matrix(1,0,0,1,7334.16,3254.74)">
            <g transform="matrix(0.571118,0,0,1,502.732,232.887)">
                <g transform="matrix(1.32562,0,0,0.671153,-10152.2,-2267.62)">
                    <rect x="8354.77" y="3695.39" width="94.049" height="29.14" style="fill:rgb(18,94,105);"/>
                </g>
                <g transform="matrix(0.628934,0,0,0.107918,805.598,-174.955)">
                    <g transform="matrix(44.544,0,0,148.261,207.539,3723.21)">
                        <path d="M0.097,-0C0.09,-0 0.085,-0.002 0.081,-0.007C0.076,-0.011 0.074,-0.016 0.074,-0.023L0.074,-0.497C0.074,-0.504 0.076,-0.509 0.081,-0.514C0.085,-0.518 0.09,-0.52 0.097,-0.52L0.142,-0.52C0.149,-0.52 0.154,-0.518 0.159,-0.514C0.163,-0.509 0.165,-0.504 0.165,-0.497L0.165,-0.462C0.18,-0.483 0.2,-0.499 0.223,-0.512C0.246,-0.524 0.274,-0.53 0.307,-0.53C0.382,-0.531 0.436,-0.5 0.467,-0.438C0.482,-0.466 0.505,-0.488 0.534,-0.505C0.563,-0.522 0.597,-0.53 0.634,-0.53C0.669,-0.53 0.7,-0.522 0.729,-0.506C0.757,-0.49 0.779,-0.466 0.796,-0.434C0.812,-0.401 0.82,-0.361 0.82,-0.312L0.82,-0.023C0.82,-0.016 0.818,-0.011 0.814,-0.007C0.809,-0.002 0.804,-0 0.797,-0L0.75,-0C0.743,-0 0.738,-0.002 0.734,-0.007C0.729,-0.011 0.727,-0.016 0.727,-0.023L0.727,-0.303C0.727,-0.34 0.722,-0.37 0.711,-0.391C0.7,-0.412 0.686,-0.427 0.668,-0.436C0.65,-0.445 0.63,-0.449 0.609,-0.449C0.592,-0.449 0.574,-0.445 0.556,-0.436C0.538,-0.427 0.523,-0.412 0.512,-0.391C0.5,-0.37 0.494,-0.34 0.494,-0.303L0.494,-0.023C0.494,-0.016 0.492,-0.011 0.488,-0.007C0.483,-0.002 0.478,-0 0.471,-0L0.424,-0C0.417,-0 0.412,-0.002 0.408,-0.007C0.403,-0.011 0.401,-0.016 0.401,-0.023L0.401,-0.303C0.401,-0.34 0.395,-0.37 0.384,-0.391C0.373,-0.412 0.358,-0.427 0.34,-0.436C0.322,-0.445 0.303,-0.449 0.283,-0.449C0.266,-0.449 0.248,-0.445 0.23,-0.436C0.212,-0.427 0.197,-0.412 0.186,-0.391C0.174,-0.37 0.168,-0.341 0.168,-0.304L0.168,-0.023C0.168,-0.016 0.166,-0.011 0.162,-0.007C0.157,-0.002 0.152,-0 0.145,-0L0.097,-0Z" style="fill:rgb(254,255,254);fill-rule:nonzero;"/>
                    </g>
                    <g transform="matrix(44.544,0,0,148.261,247.362,3723.21)">
                        <path d="M0.219,0.01C0.186,0.01 0.155,0.003 0.128,-0.01C0.101,-0.023 0.079,-0.041 0.062,-0.064C0.045,-0.087 0.037,-0.112 0.037,-0.141C0.037,-0.187 0.056,-0.224 0.093,-0.251C0.13,-0.278 0.179,-0.296 0.239,-0.305L0.388,-0.326L0.388,-0.355C0.388,-0.387 0.379,-0.412 0.361,-0.43C0.342,-0.448 0.312,-0.457 0.271,-0.457C0.242,-0.457 0.218,-0.451 0.199,-0.439C0.18,-0.427 0.167,-0.412 0.16,-0.393C0.156,-0.383 0.149,-0.378 0.139,-0.378L0.094,-0.378C0.087,-0.378 0.081,-0.38 0.078,-0.385C0.074,-0.389 0.072,-0.394 0.072,-0.4C0.072,-0.41 0.076,-0.422 0.084,-0.437C0.091,-0.452 0.103,-0.466 0.119,-0.48C0.135,-0.494 0.156,-0.506 0.181,-0.516C0.206,-0.525 0.236,-0.53 0.272,-0.53C0.312,-0.53 0.346,-0.525 0.373,-0.515C0.4,-0.504 0.422,-0.49 0.438,-0.473C0.453,-0.456 0.464,-0.436 0.472,-0.414C0.478,-0.392 0.482,-0.37 0.482,-0.347L0.482,-0.023C0.482,-0.016 0.48,-0.011 0.476,-0.007C0.471,-0.002 0.466,-0 0.459,-0L0.413,-0C0.406,-0 0.4,-0.002 0.396,-0.007C0.392,-0.011 0.39,-0.016 0.39,-0.023L0.39,-0.066C0.381,-0.054 0.37,-0.042 0.355,-0.031C0.34,-0.019 0.322,-0.009 0.3,-0.002C0.278,0.006 0.251,0.01 0.219,0.01ZM0.24,-0.065C0.267,-0.065 0.292,-0.071 0.315,-0.083C0.338,-0.094 0.356,-0.112 0.369,-0.137C0.382,-0.162 0.388,-0.193 0.388,-0.23L0.388,-0.258L0.272,-0.241C0.225,-0.234 0.189,-0.223 0.165,-0.208C0.141,-0.192 0.129,-0.172 0.129,-0.148C0.129,-0.129 0.134,-0.114 0.146,-0.102C0.157,-0.089 0.171,-0.08 0.188,-0.074C0.204,-0.068 0.222,-0.065 0.24,-0.065Z" style="fill:rgb(254,255,254);fill-rule:nonzero;"/>
                    </g>
                    <g transform="matrix(44.544,0,0,148.261,272.173,3723.21)">
                        <path d="M0.097,-0C0.09,-0 0.085,-0.002 0.081,-0.007C0.076,-0.011 0.074,-0.016 0.074,-0.023L0.074,-0.496C0.074,-0.503 0.076,-0.508 0.081,-0.513C0.085,-0.518 0.09,-0.52 0.097,-0.52L0.143,-0.52C0.15,-0.52 0.155,-0.518 0.16,-0.513C0.165,-0.508 0.167,-0.503 0.167,-0.496L0.167,-0.452C0.18,-0.475 0.199,-0.492 0.222,-0.503C0.245,-0.514 0.274,-0.52 0.307,-0.52L0.346,-0.52C0.353,-0.52 0.358,-0.518 0.363,-0.514C0.367,-0.509 0.369,-0.504 0.369,-0.497L0.369,-0.456C0.369,-0.449 0.367,-0.444 0.363,-0.44C0.358,-0.436 0.353,-0.434 0.346,-0.434L0.286,-0.434C0.25,-0.434 0.222,-0.424 0.201,-0.403C0.18,-0.382 0.17,-0.353 0.17,-0.317L0.17,-0.023C0.17,-0.016 0.168,-0.011 0.163,-0.007C0.158,-0.002 0.153,-0 0.146,-0L0.097,-0Z" style="fill:rgb(254,255,254);fill-rule:nonzero;"/>
                    </g>
                    <g transform="matrix(44.544,0,0,148.261,289.322,3723.21)">
                        <path d="M0.098,-0C0.091,-0 0.086,-0.002 0.082,-0.007C0.077,-0.011 0.075,-0.016 0.075,-0.023L0.075,-0.687C0.075,-0.694 0.077,-0.699 0.082,-0.704C0.086,-0.708 0.091,-0.71 0.098,-0.71L0.145,-0.71C0.152,-0.71 0.157,-0.708 0.162,-0.704C0.166,-0.699 0.168,-0.694 0.168,-0.687L0.168,-0.339L0.365,-0.503C0.373,-0.51 0.379,-0.514 0.384,-0.517C0.388,-0.519 0.395,-0.52 0.405,-0.52L0.458,-0.52C0.464,-0.52 0.469,-0.518 0.473,-0.514C0.477,-0.51 0.479,-0.505 0.479,-0.499C0.479,-0.496 0.478,-0.493 0.477,-0.49C0.475,-0.487 0.472,-0.483 0.467,-0.48L0.236,-0.288L0.492,-0.039C0.5,-0.032 0.504,-0.026 0.504,-0.021C0.504,-0.015 0.502,-0.01 0.498,-0.006C0.494,-0.002 0.489,-0 0.483,-0L0.431,-0C0.421,-0 0.414,-0.001 0.409,-0.004C0.404,-0.006 0.398,-0.01 0.391,-0.017L0.168,-0.23L0.168,-0.023C0.168,-0.016 0.166,-0.011 0.162,-0.007C0.157,-0.002 0.152,-0 0.145,-0L0.098,-0Z" style="fill:rgb(254,255,254);fill-rule:nonzero;"/>
                    </g>
                    <g transform="matrix(44.544,0,0,148.261,312.53,3723.21)">
                        <path d="M0.282,0.01C0.213,0.01 0.158,-0.011 0.117,-0.054C0.076,-0.096 0.054,-0.154 0.05,-0.227C0.049,-0.236 0.049,-0.247 0.049,-0.261C0.049,-0.274 0.049,-0.285 0.05,-0.294C0.053,-0.341 0.064,-0.383 0.083,-0.419C0.102,-0.454 0.129,-0.482 0.163,-0.501C0.196,-0.52 0.236,-0.53 0.281,-0.53C0.332,-0.53 0.374,-0.519 0.409,-0.498C0.443,-0.477 0.469,-0.446 0.487,-0.407C0.505,-0.368 0.514,-0.322 0.514,-0.269L0.514,-0.252C0.514,-0.245 0.512,-0.239 0.508,-0.235C0.503,-0.231 0.498,-0.229 0.491,-0.229L0.145,-0.229L0.145,-0.22C0.146,-0.193 0.152,-0.167 0.163,-0.144C0.174,-0.12 0.189,-0.101 0.21,-0.086C0.23,-0.071 0.254,-0.064 0.281,-0.064C0.305,-0.064 0.325,-0.068 0.341,-0.075C0.357,-0.082 0.37,-0.091 0.38,-0.1C0.39,-0.109 0.397,-0.116 0.4,-0.121C0.406,-0.129 0.411,-0.134 0.414,-0.136C0.417,-0.137 0.423,-0.138 0.43,-0.138L0.479,-0.138C0.485,-0.138 0.49,-0.136 0.495,-0.133C0.499,-0.129 0.501,-0.124 0.5,-0.117C0.499,-0.107 0.494,-0.095 0.484,-0.081C0.474,-0.066 0.46,-0.052 0.442,-0.038C0.423,-0.024 0.401,-0.013 0.374,-0.004C0.347,0.006 0.316,0.01 0.282,0.01ZM0.145,-0.298L0.419,-0.298L0.419,-0.301C0.419,-0.331 0.413,-0.358 0.403,-0.381C0.392,-0.404 0.376,-0.423 0.355,-0.437C0.334,-0.45 0.31,-0.457 0.281,-0.457C0.252,-0.457 0.228,-0.45 0.208,-0.437C0.187,-0.423 0.172,-0.404 0.161,-0.381C0.15,-0.358 0.145,-0.331 0.145,-0.301L0.145,-0.298Z" style="fill:rgb(254,255,254);fill-rule:nonzero;"/>
                    </g>
                    <g transform="matrix(44.544,0,0,148.261,337.697,3723.21)">
                        <path d="M0.264,0.01C0.227,0.01 0.196,0.004 0.169,-0.01C0.142,-0.023 0.121,-0.04 0.104,-0.063C0.087,-0.085 0.074,-0.11 0.066,-0.139C0.057,-0.168 0.052,-0.198 0.051,-0.23C0.05,-0.241 0.05,-0.251 0.05,-0.26C0.05,-0.269 0.05,-0.279 0.051,-0.29C0.052,-0.321 0.057,-0.351 0.066,-0.38C0.074,-0.409 0.087,-0.434 0.104,-0.457C0.121,-0.48 0.142,-0.498 0.169,-0.511C0.196,-0.524 0.227,-0.53 0.264,-0.53C0.303,-0.53 0.336,-0.523 0.362,-0.509C0.388,-0.495 0.409,-0.478 0.426,-0.457L0.426,-0.687C0.426,-0.694 0.428,-0.699 0.433,-0.704C0.437,-0.708 0.442,-0.71 0.449,-0.71L0.497,-0.71C0.504,-0.71 0.509,-0.708 0.514,-0.704C0.518,-0.699 0.52,-0.694 0.52,-0.687L0.52,-0.023C0.52,-0.016 0.518,-0.011 0.514,-0.007C0.509,-0.002 0.504,-0 0.497,-0L0.452,-0C0.445,-0 0.439,-0.002 0.435,-0.007C0.431,-0.011 0.429,-0.016 0.429,-0.023L0.429,-0.065C0.412,-0.044 0.391,-0.026 0.364,-0.012C0.337,0.003 0.304,0.01 0.264,0.01ZM0.285,-0.071C0.318,-0.071 0.345,-0.079 0.365,-0.094C0.385,-0.109 0.4,-0.129 0.41,-0.153C0.42,-0.176 0.425,-0.2 0.426,-0.225C0.427,-0.236 0.427,-0.249 0.427,-0.264C0.427,-0.279 0.427,-0.291 0.426,-0.302C0.425,-0.325 0.42,-0.348 0.41,-0.371C0.399,-0.394 0.384,-0.412 0.364,-0.427C0.343,-0.442 0.317,-0.449 0.285,-0.449C0.251,-0.449 0.224,-0.442 0.204,-0.427C0.184,-0.412 0.17,-0.392 0.161,-0.368C0.152,-0.343 0.147,-0.317 0.146,-0.289C0.145,-0.27 0.145,-0.25 0.146,-0.231C0.147,-0.203 0.152,-0.177 0.161,-0.153C0.17,-0.128 0.184,-0.109 0.204,-0.094C0.224,-0.079 0.251,-0.071 0.285,-0.071Z" style="fill:rgb(254,255,254);fill-rule:nonzero;"/>
                    </g>
                </g>
            </g>
        </g>
    </g>
</svg>
