<?xml version="1.0" encoding="UTF-8" standalone="no"?><!DOCTYPE svg PUBLIC "-//W3C//DTD SVG 1.1//EN" "http://www.w3.org/Graphics/SVG/1.1/DTD/svg11.dtd"><svg width="100%" height="100%" viewBox="0 0 67 60" version="1.1" xmlns="http://www.w3.org/2000/svg" xmlns:xlink="http://www.w3.org/1999/xlink" xml:space="preserve" xmlns:serif="http://www.serif.com/" style="fill-rule:evenodd;clip-rule:evenodd;stroke-linejoin:round;stroke-miterlimit:2;"><g id="print"><path d="M22.15,20.086l-3.988,-0c-3.144,-0 -5.73,2.586 -5.73,5.73l-0,9.537c-0,3.143 2.586,5.73 5.73,5.73l3.814,0c1.059,0 1.916,-0.857 1.916,-1.915l-0,-5.714l19.057,-0l0,5.714c0,1.058 0.858,1.915 1.916,1.915l3.815,0c3.144,0 5.73,-2.587 5.73,-5.73l0,-9.537c0,-3.144 -2.586,-5.73 -5.73,-5.73l-3.988,-0l0,-7.051c0,-1.053 -0.853,-1.907 -1.907,-1.907l-18.728,-0c-1.054,-0 -1.907,0.854 -1.907,1.907l-0,7.051Zm3.814,-0l14.914,-0l-0,-5.143l-14.914,-0l0,5.143Z" style="fill:#1d1d1d;"/><path d="M46.773,31.538c-0,-1.053 -0.854,-1.907 -1.908,-1.907l-22.889,0c-1.053,0 -1.907,0.854 -1.907,1.907l0,15.26c0,1.053 0.854,1.907 1.907,1.907l22.889,0c1.054,0 1.908,-0.854 1.908,-1.907l-0,-15.26Zm-3.815,1.908l-0,11.444l-19.074,-0l-0,-11.444l19.074,-0Z" style="fill:#1d1d1d;"/></g></svg>