<?xml version="1.0" encoding="UTF-8" standalone="no"?>
<!DOCTYPE svg PUBLIC "-//W3C//DTD SVG 1.1//EN" "http://www.w3.org/Graphics/SVG/1.1/DTD/svg11.dtd">
<svg width="100%" height="100%" viewBox="0 0 30 30" version="1.1" xmlns="http://www.w3.org/2000/svg" xmlns:xlink="http://www.w3.org/1999/xlink" xml:space="preserve" xmlns:serif="http://www.serif.com/" style="fill-rule:evenodd;clip-rule:evenodd;stroke-linecap:round;">
    <g transform="matrix(1,0,0,1,-246.134,-326.799)">
        <g transform="matrix(1,0,0,1,12.1098,127.135)">
            <g transform="matrix(0.967742,0,0,0.967742,249.024,214.664)">
                <g transform="matrix(1,0,0,1,-15.5,-15.5)">
                    <g id="Gruppe_65" transform="matrix(1,0,0,1,-1695,-86)">
                        <g id="Ellipse_46" transform="matrix(1,0,0,1,1695,86)">
                            <circle cx="15.5" cy="15.5" r="15.5" style="fill:rgb(147,147,147);"/>
                        </g>
                        <g id="Gruppe_63" transform="matrix(1,0,0,1,1700.23,93.275)">
                            <g id="Ellipse_44" transform="matrix(1,0,0,1,11.645,0)">
                                <circle cx="2.911" cy="2.911" r="2.911" style="fill:white;"/>
                            </g>
                            <g id="Ellipse_45" transform="matrix(1,0,0,1,11.645,11.819)">
                                <circle cx="2.911" cy="2.911" r="2.911" style="fill:white;"/>
                            </g>
                            <g id="Ellipse_47" transform="matrix(1,0,0,1,0,5.997)">
                                <circle cx="3.275" cy="3.275" r="3.275" style="fill:white;"/>
                            </g>
                            <g id="Linie_37" transform="matrix(1,0,0,1,4.512,3.377)">
                                <path d="M0,4.891L8.559,0" style="fill:none;fill-rule:nonzero;stroke:white;stroke-width:1.5px;"/>
                            </g>
                            <g id="Linie_38" transform="matrix(1,0,0,1,4.512,9.49)">
                                <path d="M0,0L8.559,4.891" style="fill:none;fill-rule:nonzero;stroke:white;stroke-width:1.5px;"/>
                            </g>
                        </g>
                    </g>
                </g>
            </g>
        </g>
    </g>
</svg>
