<?xml version="1.0" encoding="UTF-8" standalone="no"?><!DOCTYPE svg PUBLIC "-//W3C//DTD SVG 1.1//EN" "http://www.w3.org/Graphics/SVG/1.1/DTD/svg11.dtd"><svg width="100%" height="100%" viewBox="0 0 46 45" version="1.1" xmlns="http://www.w3.org/2000/svg" xmlns:xlink="http://www.w3.org/1999/xlink" xml:space="preserve" xmlns:serif="http://www.serif.com/" style="fill-rule:evenodd;clip-rule:evenodd;stroke-linejoin:round;stroke-miterlimit:2;"><path id="redo" d="M16.332,0.276c7.308,0.455 11.627,4.192 22.856,15.403c12.134,12.113 5.161,29.229 -12.115,28.953c-18.18,-0.291 -26.911,-10.812 -26.801,-28.645c0.046,-7.321 6.911,-16.282 16.06,-15.711Z" style="fill:url(#_Linear1);"/><clipPath id="_clip2"><path d="M16.332,0.276c7.308,0.455 11.627,4.192 22.856,15.403c12.134,12.113 5.161,29.229 -12.115,28.953c-18.18,-0.291 -26.911,-10.812 -26.801,-28.645c0.046,-7.321 6.911,-16.282 16.06,-15.711Z"/></clipPath><g clip-path="url(#_clip2)"><path d="M29.243,27.039c-3.831,-7.865 -13.046,-6.596 -16.373,-3.478c-0.705,0.661 -1.813,0.625 -2.474,-0.079c-0.66,-0.705 -0.624,-1.813 0.08,-2.474c4.411,-4.135 16.613,-6 21.792,4.252l0.52,-2.256c0.218,-0.942 1.158,-1.529 2.099,-1.312c0.941,0.217 1.529,1.158 1.312,2.099l-2.029,8.787l-9.07,-3.332c-0.907,-0.333 -1.373,-1.339 -1.04,-2.246c0.333,-0.906 1.34,-1.372 2.246,-1.039l2.937,1.078Z" style="fill:#fff;fill-opacity:0.62;"/></g><path id="redo1" serif:id="redo" d="M16.329,0.276c7.308,0.455 11.628,4.192 22.857,15.403c12.133,12.113 5.16,29.229 -12.116,28.953c-18.179,-0.291 -26.911,-10.812 -26.801,-28.645c0.046,-7.321 6.911,-16.282 16.06,-15.711Z" style="fill:url(#_Radial3);"/><path d="M15.585,0c2.113,0.02 4.231,0.409 6.211,1.179c4.791,1.862 8.589,5.591 12.335,9.18c4.438,4.253 9.181,8.486 10.792,14.306c1.507,5.447 -0.088,11.666 -4.204,15.493c-4.068,3.782 -9.972,5.002 -15.751,4.642c-8.38,-0.521 -16.939,-3.904 -21.357,-12.01c-2.837,-5.205 -3.789,-11.313 -3.584,-17.156c0.275,-7.853 7.033,-15.456 15.236,-15.632c0.108,-0.002 0.215,-0.002 0.322,-0.002Zm-0.21,0.5c-7.903,0.106 -14.835,7.754 -14.856,15.697c-0.001,0.342 0.001,0.685 0.007,1.028c0.128,7.423 1.862,15.205 7.54,20.588c1.05,0.996 2.206,1.876 3.438,2.632c5.265,3.232 11.608,4.317 17.718,3.878c7.646,-0.549 15.078,-5.988 15.756,-13.96c0.449,-5.272 -2.066,-10.52 -5.829,-14.366c-3.966,-3.994 -7.884,-8.069 -12.368,-11.387c-3.187,-2.359 -6.914,-3.999 -10.991,-4.107c-0.138,-0.003 -0.276,-0.003 -0.415,-0.003Z" style="fill:url(#_Linear4);"/><defs><linearGradient id="_Linear1" x1="0" y1="0" x2="1" y2="0" gradientUnits="userSpaceOnUse" gradientTransform="matrix(-142.668,246.184,-246.184,-142.668,182.57,-125.183)"><stop offset="0" style="stop-color:#fff;stop-opacity:1"/><stop offset="0.42" style="stop-color:#ead1cd;stop-opacity:1"/><stop offset="1" style="stop-color:#be6f61;stop-opacity:1"/></linearGradient><radialGradient id="_Radial3" cx="0" cy="0" r="1" gradientUnits="userSpaceOnUse" gradientTransform="matrix(-17.4368,15.5545,-19.3742,-21.7187,19.7566,20.2717)"><stop offset="0" style="stop-color:#fff;stop-opacity:0"/><stop offset="0.42" style="stop-color:#aeaeae;stop-opacity:0.06"/><stop offset="1" style="stop-color:#000001;stop-opacity:0.2"/></radialGradient><linearGradient id="_Linear4" x1="0" y1="0" x2="1" y2="0" gradientUnits="userSpaceOnUse" gradientTransform="matrix(27.8396,40.0996,-40.0996,27.8396,13.0523,0.249737)"><stop offset="0" style="stop-color:#fefffe;stop-opacity:0.68"/><stop offset="0.5" style="stop-color:#f7f7f7;stop-opacity:0.41"/><stop offset="1" style="stop-color:#000;stop-opacity:1"/></linearGradient></defs></svg>