<?xml version="1.0" encoding="UTF-8" standalone="no"?><!DOCTYPE svg PUBLIC "-//W3C//DTD SVG 1.1//EN" "http://www.w3.org/Graphics/SVG/1.1/DTD/svg11.dtd"><svg width="100%" height="100%" viewBox="0 0 42 49" version="1.1" xmlns="http://www.w3.org/2000/svg" xmlns:xlink="http://www.w3.org/1999/xlink" xml:space="preserve" xmlns:serif="http://www.serif.com/" style="fill-rule:evenodd;clip-rule:evenodd;stroke-linejoin:round;stroke-miterlimit:2;"><path d="M24.901,0c6.981,0.088 13.783,4.296 15.82,11.237c3.58,12.194 -2.074,25.857 -13.736,33.529c-5.712,3.758 -13.448,5.513 -19.14,0.608c-3.704,-3.193 -5.598,-7.977 -6.824,-12.642c-1.969,-7.489 -1.294,-15.754 3.824,-22.023c3.834,-4.696 9.261,-7.901 14.933,-9.9c0.34,-0.12 0.685,-0.225 1.033,-0.317c1.33,-0.349 2.704,-0.494 4.09,-0.492Zm-0.373,0.802c-3.395,0.07 -6.624,1.472 -9.681,3.072c-5.579,2.918 -10.667,7.365 -12.861,13.43c-2.599,7.18 -1.016,15.705 2.472,22.36c2.275,4.339 6.532,8.001 11.702,7.992c6.684,-0.011 12.806,-4.564 17.33,-9.712c4.149,-4.721 7.125,-10.581 7.576,-16.781c0.491,-6.757 -1.356,-14.026 -6.954,-17.648c-2.726,-1.764 -5.972,-2.674 -9.217,-2.715c-0.184,0 -0.183,0 -0.367,0.002Z" style="fill:url(#_Radial1);"/><path id="search" d="M40.081,10.515c2.245,6.969 3.295,17.915 -7.768,29.29c-9.665,9.937 -23.544,13.096 -29.598,-3.086c-6.371,-17.03 0.233,-29.002 16.873,-35.414c6.831,-2.632 17.681,0.485 20.493,9.21Z" style="fill:url(#_Linear2);"/><g><clipPath id="_clip3"><path d="M40.081,10.515c2.245,6.969 3.295,17.915 -7.768,29.29c-9.665,9.937 -23.544,13.096 -29.598,-3.086c-6.371,-17.03 0.233,-29.002 16.873,-35.414c6.831,-2.632 17.681,0.485 20.493,9.21Z"/></clipPath><g clip-path="url(#_clip3)"><path d="M21.976,30.259c-0.429,0.168 -0.868,0.307 -1.316,0.414c-0.843,0.2 -1.712,0.286 -2.578,0.259c-1.235,-0.039 -2.461,-0.314 -3.593,-0.81c-1.186,-0.519 -2.265,-1.277 -3.159,-2.214c-0.867,-0.91 -1.558,-1.987 -2.019,-3.156c-0.349,-0.884 -0.566,-1.819 -0.645,-2.766c-0.083,-1.009 -0.011,-2.031 0.217,-3.017c0.237,-1.026 0.643,-2.011 1.195,-2.908c0.626,-1.015 1.438,-1.914 2.385,-2.64c1.036,-0.795 2.23,-1.379 3.495,-1.704c1.198,-0.309 2.455,-0.386 3.682,-0.229c0.917,0.116 1.818,0.365 2.665,0.736c1.186,0.519 2.265,1.277 3.158,2.214c0.868,0.91 1.558,1.986 2.02,3.156c0.364,0.923 0.585,1.901 0.654,2.89c0.076,1.089 -0.029,2.191 -0.315,3.245c-0.212,0.785 -0.525,1.543 -0.926,2.251c-0.204,0.359 -0.43,0.703 -0.676,1.033l3.185,3.648c0.217,0.25 0.389,0.536 0.502,0.848c0.184,0.51 0.205,1.073 0.063,1.596c-0.071,0.258 -0.181,0.505 -0.325,0.73c-0.157,0.244 -0.354,0.46 -0.581,0.64c-0.231,0.185 -0.494,0.329 -0.773,0.426c-0.311,0.108 -0.642,0.157 -0.971,0.144c-0.34,-0.014 -0.676,-0.092 -0.985,-0.232c-0.342,-0.154 -0.644,-0.381 -0.893,-0.661l-3.466,-3.893Zm-3.579,-14.85c3.181,0 5.764,2.583 5.764,5.764c0,3.181 -2.583,5.764 -5.764,5.764c-3.181,0 -5.764,-2.583 -5.764,-5.764c0,-3.181 2.583,-5.764 5.764,-5.764Z" style="fill:#fefffe;"/><path d="M21.516,31.998c-0.169,0.049 -0.339,0.094 -0.51,0.134c-0.971,0.231 -1.973,0.33 -2.971,0.299c-1.426,-0.045 -2.841,-0.363 -4.147,-0.935c-1.368,-0.598 -2.612,-1.472 -3.644,-2.553c-1,-1.05 -1.797,-2.292 -2.328,-3.64c-0.403,-1.02 -0.654,-2.099 -0.745,-3.194c-0.096,-1.163 -0.012,-2.341 0.25,-3.478c0.274,-1.184 0.742,-2.321 1.38,-3.357c0.722,-1.17 1.658,-2.207 2.749,-3.043c1.196,-0.918 2.574,-1.592 4.033,-1.966c1.382,-0.357 2.832,-0.446 4.245,-0.265c1.06,0.134 2.1,0.421 3.078,0.85c1.368,0.598 2.613,1.472 3.642,2.553c1.002,1.049 1.797,2.291 2.33,3.641c0.421,1.065 0.676,2.194 0.755,3.336c0.088,1.255 -0.034,2.526 -0.363,3.74c-0.245,0.906 -0.606,1.782 -1.07,2.601c-0.032,0.056 -0.064,0.112 -0.097,0.168l2.435,2.789c0.337,0.389 0.604,0.835 0.78,1.322c0.288,0.798 0.322,1.679 0.098,2.503c-0.111,0.403 -0.283,0.789 -0.51,1.144c-0.246,0.382 -0.554,0.721 -0.904,0.999c-0.364,0.291 -0.779,0.519 -1.219,0.672c-0.488,0.169 -1.006,0.246 -1.525,0.226c-0.532,-0.022 -1.058,-0.145 -1.539,-0.363c-0.535,-0.241 -1.008,-0.594 -1.397,-1.032l-2.806,-3.151Zm0.46,-1.739c-0.429,0.168 -0.868,0.307 -1.316,0.414c-0.843,0.2 -1.712,0.286 -2.578,0.259c-1.235,-0.039 -2.461,-0.314 -3.593,-0.81c-1.186,-0.519 -2.265,-1.277 -3.159,-2.214c-0.867,-0.91 -1.558,-1.987 -2.019,-3.156c-0.349,-0.884 -0.566,-1.819 -0.645,-2.766c-0.083,-1.009 -0.011,-2.031 0.217,-3.017c0.237,-1.026 0.643,-2.011 1.195,-2.908c0.626,-1.015 1.438,-1.914 2.385,-2.64c1.036,-0.795 2.23,-1.379 3.495,-1.704c1.198,-0.309 2.455,-0.386 3.682,-0.229c0.917,0.116 1.818,0.365 2.665,0.736c1.186,0.519 2.265,1.277 3.158,2.214c0.868,0.91 1.558,1.986 2.02,3.156c0.364,0.923 0.585,1.901 0.654,2.89c0.076,1.089 -0.029,2.191 -0.315,3.245c-0.212,0.785 -0.525,1.543 -0.926,2.251c-0.204,0.359 -0.43,0.703 -0.676,1.033l3.185,3.648c0.217,0.25 0.389,0.536 0.502,0.848c0.184,0.51 0.205,1.073 0.063,1.596c-0.071,0.258 -0.181,0.505 -0.325,0.73c-0.157,0.244 -0.354,0.46 -0.581,0.64c-0.231,0.185 -0.494,0.329 -0.773,0.426c-0.311,0.108 -0.642,0.157 -0.971,0.144c-0.34,-0.014 -0.676,-0.092 -0.985,-0.232c-0.342,-0.154 -0.644,-0.381 -0.893,-0.661l-3.466,-3.893Zm-3.579,-14.85c3.181,0 5.764,2.583 5.764,5.764c0,3.181 -2.583,5.764 -5.764,5.764c-3.181,0 -5.764,-2.583 -5.764,-5.764c0,-3.181 2.583,-5.764 5.764,-5.764Zm0,1.5c2.353,-0 4.264,1.911 4.264,4.264c0,2.353 -1.911,4.264 -4.264,4.264c-2.353,0 -4.264,-1.911 -4.264,-4.264c0,-2.353 1.911,-4.264 4.264,-4.264Z" style="fill:#5a3934;"/></g></g><path id="search1" serif:id="search" d="M40.081,10.515c2.245,6.969 3.295,17.915 -7.768,29.29c-9.665,9.937 -23.544,13.096 -29.598,-3.086c-6.371,-17.03 0.233,-29.002 16.873,-35.414c6.831,-2.632 17.681,0.485 20.493,9.21Z" style="fill:url(#_Radial4);"/><path d="M34.065,27.331c2.458,-0.588 4.133,-7.799 1.126,-15.39c-3.005,-7.588 -8.214,-9.498 -10.151,-6.902c-1.938,2.598 -2.739,5.863 0.491,11.695c3.23,5.832 6.076,11.186 8.534,10.597Z" style="fill:#fff;fill-opacity:0.52;"/><defs><radialGradient id="_Radial1" cx="0" cy="0" r="1" gradientUnits="userSpaceOnUse" gradientTransform="matrix(-18.1262,-41.9372,41.9372,-18.1262,29.7592,47.6563)"><stop offset="0" style="stop-color:#a6a8a8;stop-opacity:1"/><stop offset="0.68" style="stop-color:#f4f5f5;stop-opacity:1"/><stop offset="1" style="stop-color:#fff;stop-opacity:1"/></radialGradient><linearGradient id="_Linear2" x1="0" y1="0" x2="1" y2="0" gradientUnits="userSpaceOnUse" gradientTransform="matrix(45.9352,-55.8712,55.8712,45.9352,8.63269,44.0413)"><stop offset="0" style="stop-color:#e36957;stop-opacity:1"/><stop offset="1" style="stop-color:#fff;stop-opacity:1"/></linearGradient><radialGradient id="_Radial4" cx="0" cy="0" r="1" gradientUnits="userSpaceOnUse" gradientTransform="matrix(-11.1213,23.9179,-18.1047,-8.41829,20.9275,21.1729)"><stop offset="0" style="stop-color:#fff;stop-opacity:0"/><stop offset="0.48" style="stop-color:#bbbfbf;stop-opacity:0.05"/><stop offset="1" style="stop-color:#000d10;stop-opacity:0.2"/></radialGradient></defs></svg>