<?xml version="1.0" encoding="UTF-8" standalone="no"?><!DOCTYPE svg PUBLIC "-//W3C//DTD SVG 1.1//EN" "http://www.w3.org/Graphics/SVG/1.1/DTD/svg11.dtd"><svg width="100%" height="100%" viewBox="0 0 42 49" version="1.1" xmlns="http://www.w3.org/2000/svg" xmlns:xlink="http://www.w3.org/1999/xlink" xml:space="preserve" xmlns:serif="http://www.serif.com/" style="fill-rule:evenodd;clip-rule:evenodd;stroke-linejoin:round;stroke-miterlimit:2;"><path id="search" d="M40.081,10.515c2.245,6.969 3.295,17.915 -7.768,29.29c-9.665,9.937 -23.544,13.096 -29.598,-3.086c-6.371,-17.03 0.233,-29.002 16.873,-35.414c6.831,-2.632 17.681,0.485 20.493,9.21Z" style="fill:url(#_Radial1);"/><clipPath id="_clip2"><path d="M40.081,10.515c2.245,6.969 3.295,17.915 -7.768,29.29c-9.665,9.937 -23.544,13.096 -29.598,-3.086c-6.371,-17.03 0.233,-29.002 16.873,-35.414c6.831,-2.632 17.681,0.485 20.493,9.21Z"/></clipPath><g clip-path="url(#_clip2)"><path d="M21.976,30.259c-0.429,0.168 -0.868,0.307 -1.316,0.414c-0.843,0.2 -1.712,0.286 -2.578,0.259c-1.235,-0.039 -2.461,-0.314 -3.593,-0.81c-1.186,-0.519 -2.265,-1.277 -3.159,-2.214c-0.867,-0.91 -1.558,-1.987 -2.019,-3.156c-0.349,-0.884 -0.566,-1.819 -0.645,-2.766c-0.083,-1.009 -0.011,-2.031 0.217,-3.017c0.237,-1.026 0.643,-2.011 1.195,-2.908c0.626,-1.015 1.438,-1.914 2.385,-2.64c1.036,-0.795 2.23,-1.379 3.495,-1.704c1.198,-0.309 2.455,-0.386 3.682,-0.229c0.917,0.116 1.818,0.365 2.665,0.736c1.186,0.519 2.265,1.277 3.158,2.214c0.868,0.91 1.558,1.986 2.02,3.156c0.364,0.923 0.585,1.901 0.654,2.89c0.076,1.089 -0.029,2.191 -0.315,3.245c-0.212,0.785 -0.525,1.543 -0.926,2.251c-0.204,0.359 -0.43,0.703 -0.676,1.033l3.185,3.648c0.217,0.25 0.389,0.536 0.502,0.848c0.184,0.51 0.205,1.073 0.063,1.596c-0.071,0.258 -0.181,0.505 -0.325,0.73c-0.157,0.244 -0.354,0.46 -0.581,0.64c-0.231,0.185 -0.494,0.329 -0.773,0.426c-0.311,0.108 -0.642,0.157 -0.971,0.144c-0.34,-0.014 -0.676,-0.092 -0.985,-0.232c-0.342,-0.154 -0.644,-0.381 -0.893,-0.661l-3.466,-3.893Zm-3.579,-14.85c3.181,0 5.764,2.583 5.764,5.764c0,3.181 -2.583,5.764 -5.764,5.764c-3.181,0 -5.764,-2.583 -5.764,-5.764c0,-3.181 2.583,-5.764 5.764,-5.764Z" style="fill:#fefffe;"/></g><path id="search1" serif:id="search" d="M40.081,10.515c2.245,6.969 3.295,17.915 -7.768,29.29c-9.665,9.937 -23.544,13.096 -29.598,-3.086c-6.371,-17.03 0.233,-29.002 16.873,-35.414c6.831,-2.632 17.681,0.485 20.493,9.21Z" style="fill:url(#_Radial3);"/><path d="M24.901,0c6.981,0.088 13.783,4.296 15.82,11.237c3.58,12.194 -2.074,25.857 -13.736,33.529c-5.712,3.758 -13.448,5.513 -19.14,0.608c-3.704,-3.193 -5.598,-7.977 -6.824,-12.642c-1.969,-7.489 -1.294,-15.754 3.824,-22.023c3.834,-4.696 9.261,-7.901 14.933,-9.9c0.34,-0.12 0.685,-0.225 1.033,-0.317c1.33,-0.349 2.704,-0.494 4.09,-0.492Zm-0.373,0.802c-3.395,0.07 -6.624,1.472 -9.681,3.072c-5.579,2.918 -10.667,7.365 -12.861,13.43c-2.599,7.18 -1.016,15.705 2.472,22.36c2.275,4.339 6.532,8.001 11.702,7.992c6.684,-0.011 12.806,-4.564 17.33,-9.712c4.149,-4.721 7.125,-10.581 7.576,-16.781c0.491,-6.757 -1.356,-14.026 -6.954,-17.648c-2.726,-1.764 -5.972,-2.674 -9.217,-2.715c-0.184,0 -0.183,0 -0.367,0.002Z" style="fill:url(#_Radial4);"/><defs><radialGradient id="_Radial1" cx="0" cy="0" r="1" gradientUnits="userSpaceOnUse" gradientTransform="matrix(-86.2662,45.4318,-45.4318,-86.2662,67.4598,15.636)"><stop offset="0" style="stop-color:#fff;stop-opacity:1"/><stop offset="1" style="stop-color:#9bcfd3;stop-opacity:1"/></radialGradient><radialGradient id="_Radial3" cx="0" cy="0" r="1" gradientUnits="userSpaceOnUse" gradientTransform="matrix(-11.1213,23.9179,-18.1047,-8.41829,20.9275,21.1729)"><stop offset="0" style="stop-color:#fff;stop-opacity:0"/><stop offset="0.48" style="stop-color:#bbbfbf;stop-opacity:0.05"/><stop offset="1" style="stop-color:#000d10;stop-opacity:0.2"/></radialGradient><radialGradient id="_Radial4" cx="0" cy="0" r="1" gradientUnits="userSpaceOnUse" gradientTransform="matrix(-18.1262,-41.9372,41.9372,-18.1262,29.7592,47.6563)"><stop offset="0" style="stop-color:#a6a8a8;stop-opacity:1"/><stop offset="0.68" style="stop-color:#f4f5f5;stop-opacity:1"/><stop offset="1" style="stop-color:#fff;stop-opacity:1"/></radialGradient></defs></svg>