<?xml version="1.0" encoding="UTF-8" standalone="no"?><!DOCTYPE svg PUBLIC "-//W3C//DTD SVG 1.1//EN" "http://www.w3.org/Graphics/SVG/1.1/DTD/svg11.dtd"><svg width="100%" height="100%" viewBox="0 0 36 25" version="1.1" xmlns="http://www.w3.org/2000/svg" xmlns:xlink="http://www.w3.org/1999/xlink" xml:space="preserve" xmlns:serif="http://www.serif.com/" style="fill-rule:evenodd;clip-rule:evenodd;stroke-linejoin:round;stroke-miterlimit:2;"><path id="table" d="M34.383,0c0.445,0 0.807,0.362 0.807,0.807c0,0.446 -0.362,0.808 -0.807,0.808l-6.161,0l0,2.143l6.161,0c0.445,0 0.807,0.362 0.807,0.807c0,0.446 -0.362,0.808 -0.807,0.808l-6.161,0l0,2.43l6.161,0c0.445,0 0.807,0.362 0.807,0.808c0,0.445 -0.362,0.807 -0.807,0.807l-6.161,0l0,13.935l6.161,0c0.445,0 0.807,0.362 0.807,0.807c0,0.446 -0.362,0.808 -0.807,0.808l-6.741,0c-0.072,0.021 -0.148,0.032 -0.227,0.032c-0.079,0 -0.155,-0.011 -0.227,-0.032l-5.239,0c-0.072,0.021 -0.148,0.032 -0.227,0.032c-0.078,0 -0.155,-0.011 -0.226,-0.032l-5.226,0c-0.072,0.021 -0.148,0.032 -0.227,0.032c-0.079,0 -0.155,-0.011 -0.227,-0.032l-6.051,0c-0.071,0.021 -0.148,0.032 -0.226,0.032c-0.079,0 -0.155,-0.011 -0.227,-0.032l-8.278,0c-0.072,0.021 -0.148,0.032 -0.227,0.032c-0.445,0 -0.807,-0.362 -0.807,-0.807l0,-23.375c0,-0.001 0,-0.003 0,-0.005c0,-0.002 0,-0.004 0,-0.006c0,-0.445 0.362,-0.807 0.807,-0.807l33.576,0Zm-32.768,9.418l0,13.935l7.116,0l0,-13.935l-7.116,0Zm8.731,0l0,13.935l4.89,0l0,-13.935l-4.89,0Zm6.504,0l0,13.935l4.065,0l0,-13.935l-4.065,0Zm5.68,0l0,13.935l4.077,0l0,-13.935l-4.077,0Zm-20.915,-4.045l0,2.43l7.116,0l0,-2.43l-7.116,0Zm8.731,0l0,2.43l4.89,0l0,-2.43l-4.89,0Zm6.504,0l0,2.43l4.065,0l0,-2.43l-4.065,0Zm5.68,0l0,2.43l4.077,0l0,-2.43l-4.077,0Zm-20.915,-3.758l0,2.143l7.116,0l0,-2.143l-7.116,0Zm8.731,0l0,2.143l4.89,0l0,-2.143l-4.89,0Zm6.504,0l0,2.143l4.065,0l0,-2.143l-4.065,0Zm5.68,0l0,2.143l4.077,0l0,-2.143l-4.077,0Z" style="fill:#131313;"/><path d="M34.424,0.001l0.041,0.003l0.041,0.005l0.039,0.007l0.039,0.009l0.039,0.011l0.037,0.013l0.037,0.014l0.036,0.017l0.034,0.018l0.034,0.019l0.033,0.021l0.032,0.022l0.03,0.024l0.029,0.026l0.028,0.027l0.027,0.028l0.026,0.029l0.023,0.03l0.023,0.032l0.021,0.033l0.019,0.034l0.018,0.034l0.016,0.036l0.015,0.037l0.013,0.037l0.011,0.039l0.009,0.039l0.007,0.039l0.005,0.041l0.003,0.041l0.001,0.041l-0.001,0.042l-0.003,0.041l-0.005,0.04l-0.007,0.04l-0.009,0.039l-0.011,0.038l-0.013,0.038l-0.015,0.036l-0.016,0.036l-0.018,0.035l-0.019,0.034l-0.021,0.033l-0.023,0.031l-0.023,0.031l-0.026,0.029l-0.027,0.028l-0.028,0.027l-0.029,0.025l-0.03,0.024l-0.032,0.023l-0.033,0.021l-0.034,0.019l-0.034,0.018l-0.036,0.016l-0.037,0.015l-0.037,0.012l-0.039,0.011l-0.039,0.009l-0.04,0.007l-0.04,0.006l-0.041,0.003l-0.041,0.001l-6.161,0l0,2.143l6.161,0l0.041,0.001l0.041,0.003l0.041,0.005l0.039,0.007l0.039,0.009l0.039,0.011l0.037,0.013l0.037,0.014l0.036,0.017l0.034,0.018l0.034,0.019l0.033,0.021l0.032,0.022l0.03,0.024l0.029,0.026l0.028,0.027l0.027,0.028l0.026,0.029l0.023,0.03l0.023,0.032l0.021,0.033l0.019,0.034l0.018,0.034l0.016,0.036l0.015,0.037l0.013,0.037l0.011,0.039l0.009,0.039l0.007,0.039l0.005,0.041l0.003,0.041l0.001,0.041l-0.001,0.042l-0.003,0.041l-0.005,0.04l-0.007,0.04l-0.009,0.039l-0.011,0.038l-0.013,0.038l-0.015,0.036l-0.016,0.036l-0.018,0.035l-0.019,0.034l-0.021,0.033l-0.023,0.031l-0.023,0.031l-0.026,0.029l-0.027,0.028l-0.028,0.027l-0.029,0.025l-0.03,0.024l-0.032,0.023l-0.033,0.021l-0.034,0.019l-0.034,0.018l-0.036,0.016l-0.037,0.015l-0.037,0.012l-0.039,0.011l-0.039,0.009l-0.039,0.007l-0.041,0.006l-0.041,0.003l-0.041,0.001l-6.161,0l0,2.43l6.161,0l0.041,0.001l0.041,0.003l0.041,0.006l0.039,0.007l0.039,0.009l0.039,0.011l0.037,0.012l0.037,0.015l0.036,0.016l0.034,0.018l0.034,0.019l0.033,0.021l0.032,0.023l0.03,0.024l0.029,0.025l0.028,0.027l0.027,0.028l0.026,0.029l0.023,0.031l0.023,0.031l0.021,0.033l0.019,0.034l0.018,0.035l0.016,0.035l0.015,0.037l0.013,0.038l0.011,0.038l0.009,0.039l0.007,0.04l0.005,0.04l0.003,0.041l0.001,0.042l-0.001,0.041l-0.003,0.041l-0.005,0.04l-0.007,0.04l-0.009,0.039l-0.011,0.039l-0.013,0.037l-0.015,0.037l-0.016,0.035l-0.018,0.035l-0.019,0.034l-0.021,0.033l-0.023,0.031l-0.023,0.031l-0.026,0.029l-0.027,0.028l-0.028,0.027l-0.029,0.025l-0.03,0.024l-0.032,0.023l-0.033,0.021l-0.034,0.019l-0.034,0.018l-0.036,0.016l-0.037,0.015l-0.037,0.013l-0.039,0.01l-0.039,0.009l-0.04,0.008l-0.04,0.005l-0.041,0.003l-0.041,0.001l-6.161,0l0,13.935l6.161,0l0.041,0.001l0.041,0.003l0.041,0.005l0.039,0.007l0.039,0.009l0.039,0.011l0.037,0.013l0.037,0.014l0.036,0.017l0.034,0.017l0.034,0.02l0.033,0.021l0.032,0.022l0.03,0.024l0.029,0.026l0.028,0.027l0.027,0.028l0.026,0.029l0.023,0.03l0.023,0.032l0.021,0.033l0.019,0.034l0.018,0.034l0.016,0.036l0.015,0.037l0.013,0.037l0.011,0.039l0.009,0.039l0.007,0.039l0.005,0.041l0.003,0.041l0.001,0.041l-0.001,0.042l-0.003,0.041l-0.005,0.04l-0.007,0.04l-0.009,0.039l-0.011,0.038l-0.013,0.038l-0.015,0.036l-0.016,0.036l-0.018,0.035l-0.019,0.034l-0.021,0.033l-0.023,0.031l-0.023,0.031l-0.026,0.029l-0.027,0.028l-0.028,0.027l-0.029,0.025l-0.03,0.024l-0.032,0.023l-0.033,0.021l-0.034,0.019l-0.034,0.018l-0.036,0.016l-0.037,0.015l-0.037,0.012l-0.039,0.011l-0.039,0.009l-0.04,0.007l-0.04,0.006l-0.041,0.003l-0.041,0.001l-6.741,0l-0.028,0.007l-0.027,0.007l-0.028,0.005l-0.028,0.005l-0.029,0.003l-0.029,0.003l-0.029,0.001l-0.029,0.001l-0.03,-0.001l-0.029,-0.001l-0.029,-0.003l-0.028,-0.003l-0.028,-0.005l-0.028,-0.005l-0.028,-0.007l-0.027,-0.007l-5.239,0l-0.027,0.007l-0.028,0.007l-0.028,0.005l-0.028,0.005l-0.028,0.003l-0.029,0.003l-0.029,0.001l-0.03,0.001l-0.029,-0.001l-0.029,-0.001l-0.029,-0.003l-0.029,-0.003l-0.028,-0.005l-0.028,-0.005l-0.027,-0.007l-0.027,-0.007l-5.226,0l-0.027,0.007l-0.028,0.007l-0.028,0.005l-0.028,0.005l-0.029,0.003l-0.028,0.003l-0.03,0.001l-0.029,0.001l-0.029,-0.001l-0.03,-0.001l-0.028,-0.003l-0.029,-0.003l-0.028,-0.005l-0.028,-0.005l-0.028,-0.007l-0.027,-0.007l-6.051,0l-0.027,0.007l-0.027,0.007l-0.028,0.005l-0.028,0.005l-0.029,0.003l-0.029,0.003l-0.029,0.001l-0.029,0.001l-0.03,-0.001l-0.029,-0.001l-0.029,-0.003l-0.028,-0.003l-0.028,-0.005l-0.028,-0.005l-0.028,-0.007l-0.027,-0.007l-8.278,0l-0.027,0.007l-0.028,0.007l-0.028,0.005l-0.028,0.005l-0.028,0.003l-0.029,0.003l-0.029,0.001l-0.03,0.001l-0.041,-0.001l-0.041,-0.003l-0.041,-0.005l-0.039,-0.007l-0.039,-0.009l-0.039,-0.011l-0.037,-0.013l-0.037,-0.014l-0.036,-0.017l-0.034,-0.018l-0.034,-0.019l-0.033,-0.021l-0.032,-0.022l-0.03,-0.024l-0.029,-0.026l-0.028,-0.027l-0.027,-0.028l-0.026,-0.029l-0.024,-0.03l-0.022,-0.032l-0.021,-0.033l-0.019,-0.034l-0.018,-0.034l-0.017,-0.036l-0.014,-0.037l-0.013,-0.037l-0.011,-0.039l-0.009,-0.039l-0.007,-0.039l-0.005,-0.041l-0.003,-0.041l-0.001,-0.041l0,-23.375l0,-0.005l0,-0.006l0.001,-0.041l0.003,-0.041l0.005,-0.041l0.007,-0.039l0.009,-0.039l0.011,-0.039l0.013,-0.037l0.014,-0.037l0.017,-0.036l0.018,-0.034l0.019,-0.034l0.021,-0.033l0.022,-0.032l0.024,-0.03l0.026,-0.029l0.027,-0.028l0.028,-0.027l0.029,-0.026l0.03,-0.024l0.032,-0.022l0.033,-0.021l0.034,-0.019l0.034,-0.018l0.036,-0.017l0.037,-0.014l0.037,-0.013l0.039,-0.011l0.039,-0.009l0.039,-0.007l0.041,-0.005l0.041,-0.003l0.041,-0.001l33.576,0l0.041,0.001Zm-32.809,9.417l0,13.935l7.116,0l0,-13.935l-7.116,0Zm8.731,0l0,13.935l4.89,0l0,-13.935l-4.89,0Zm6.504,0l0,13.935l4.065,0l0,-13.935l-4.065,0Zm5.68,0l0,13.935l4.077,0l0,-13.935l-4.077,0Zm-20.915,-4.045l0,2.43l7.116,0l0,-2.43l-7.116,0Zm8.731,0l0,2.43l4.89,0l0,-2.43l-4.89,0Zm6.504,0l0,2.43l4.065,0l0,-2.43l-4.065,0Zm5.68,0l0,2.43l4.077,0l0,-2.43l-4.077,0Zm-20.915,-3.758l0,2.143l7.116,0l0,-2.143l-7.116,0Zm8.731,0l0,2.143l4.89,0l0,-2.143l-4.89,0Zm6.504,0l0,2.143l4.065,0l0,-2.143l-4.065,0Zm5.68,0l0,2.143l4.077,0l0,-2.143l-4.077,0Z" style="fill:#131313;"/></svg>