<?xml version="1.0" encoding="UTF-8" standalone="no"?><!DOCTYPE svg PUBLIC "-//W3C//DTD SVG 1.1//EN" "http://www.w3.org/Graphics/SVG/1.1/DTD/svg11.dtd"><svg width="100%" height="100%" viewBox="0 0 115 117" version="1.1" xmlns="http://www.w3.org/2000/svg" xmlns:xlink="http://www.w3.org/1999/xlink" xml:space="preserve" xmlns:serif="http://www.serif.com/" style="fill-rule:evenodd;clip-rule:evenodd;stroke-linejoin:round;stroke-miterlimit:2;"><g id="toolbar"><path d="M90.195,0.001c0.594,0.013 1.184,0.061 1.772,0.144c4.198,0.589 7.015,4.737 9.535,8.592c8.467,12.957 11.722,28.919 12.575,45.321c0.579,11.15 -0.798,22.769 -6.688,32.582c-6.565,10.94 -17.87,18.583 -29.474,23.634c-14.826,6.453 -31.782,8.206 -47.402,3.783c-11.421,-3.234 -22.083,-10.365 -27.147,-21.144c-2.78,-5.919 -3.763,-12.602 -3.225,-19.171c0.402,-4.91 1.944,-9.972 5.592,-13.455c6.114,-5.837 15.863,-6.551 24.429,-8.223c11.452,-2.273 22.652,-6.324 31.075,-14.699c7.542,-7.499 13.041,-17.716 17.59,-27.39c0.287,-0.606 0.578,-1.21 0.881,-1.808c0.239,-0.471 0.484,-0.939 0.74,-1.4c1.875,-3.381 4.722,-6.641 9.291,-6.765c0.152,-0.002 0.304,-0.003 0.456,-0.001Zm-0.298,0.891c-1.576,0.024 -3.143,0.406 -4.464,1.262c-3.305,2.141 -4.817,6.059 -6.391,9.474c-1.911,4.147 -4.421,8.767 -6.728,12.709c-6.37,10.887 -15.675,20.069 -27.595,24.678c-9.663,3.736 -20.402,4.154 -30.179,7.368c-4.297,1.413 -8.442,3.808 -10.819,7.883c-1.942,3.328 -2.618,7.251 -2.781,11.018c-0.306,7.059 1.215,14.244 4.845,20.26c6.953,11.521 21.081,17.847 33.999,19.475c16.057,2.023 32.666,-1.917 46.83,-10.202c10.751,-6.289 20.073,-15.391 24.037,-27.483c4.354,-13.284 2.767,-27.799 0.241,-41.342c-1.967,-10.546 -5.714,-21.167 -12.076,-29.525c-1.848,-2.428 -3.927,-4.981 -6.813,-5.415c-0.697,-0.105 -1.4,-0.161 -2.106,-0.16Z" style="fill:url(#_Radial1);"/><path d="M63.886,35.717c17.966,-19.465 14.447,-37.697 28.701,-35.127c6.014,1.085 16.421,20.423 18.927,33.407c7.12,36.884 1.054,58.382 -30.101,73.853c-34.303,17.036 -80.324,5.146 -80.506,-30.775c-0.176,-34.832 37.002,-13.213 62.979,-41.358Z" style="fill:url(#_Linear2);"/><path d="M63.886,35.717c17.966,-19.465 14.447,-37.697 28.701,-35.127c6.014,1.085 16.421,20.423 18.927,33.407c7.12,36.884 1.054,58.382 -30.101,73.853c-34.303,17.036 -80.324,5.146 -80.506,-30.775c-0.176,-34.832 37.002,-13.213 62.979,-41.358Z" style="fill:url(#_Radial3);"/><g id="Pfad_47"><path d="M78.406,99.985l-2,0l0,-16.681c-0.124,0.054 -0.261,0.084 -0.404,0.084c-0.024,0 -0.047,-0.001 -0.071,-0.003l-6.1,0l-0.9,6.1c-0.057,0.284 -0.196,0.544 -0.4,0.75c-0.197,0.199 -0.469,0.308 -0.75,0.3l-1.7,0c-0.287,0.005 -0.565,-0.102 -0.775,-0.3c-0.211,-0.187 -0.315,-0.47 -0.275,-0.75l0.95,-6.1l-7.5,0l-0.9,6.1c-0.057,0.284 -0.196,0.544 -0.4,0.75c-0.197,0.199 -0.469,0.308 -0.75,0.3l-1.7,0c-0.287,0.005 -0.565,-0.102 -0.775,-0.3c-0.211,-0.187 -0.315,-0.47 -0.275,-0.75l0.95,-6.1l-5,0c-0.303,0.011 -0.599,-0.096 -0.825,-0.3c-0.219,-0.206 -0.338,-0.499 -0.325,-0.8l0,-1.6c-0.013,-0.301 0.106,-0.593 0.325,-0.8c0.226,-0.203 0.522,-0.311 0.825,-0.3l5.55,0l1.3,-8.9l-5.55,0c-0.303,0.011 -0.599,-0.096 -0.825,-0.3c-0.219,-0.206 -0.338,-0.499 -0.325,-0.8l0,-1.6c-0.013,-0.301 0.106,-0.593 0.325,-0.8c0.226,-0.203 0.522,-0.311 0.825,-0.3l6.15,0l0.9,-6.1c0.058,-0.283 0.197,-0.544 0.4,-0.75c0.198,-0.199 0.47,-0.307 0.75,-0.3l1.7,0c0.281,-0.007 0.553,0.101 0.75,0.3c0.199,0.196 0.292,0.475 0.25,0.75l-0.9,6.1l7.5,0l0.9,-6.1c0.058,-0.283 0.197,-0.544 0.4,-0.75c0.198,-0.199 0.47,-0.307 0.75,-0.3l1.7,0c0.281,-0.007 0.553,0.101 0.75,0.3c0.199,0.196 0.292,0.475 0.25,0.75l-0.9,6.1l4.125,0l0,-15.9l2,0l0,49Zm-2,-20.319l0,-8.981l-4.675,-0l-1.3,8.9l5.5,-0c0.024,-0.001 0.047,-0.002 0.071,-0.002c0.143,-0 0.28,0.03 0.404,0.083Zm-8.575,-8.981l-7.45,-0l-1.3,8.9l7.45,-0l1.3,-8.9Z" style="fill:#fff;fill-rule:nonzero;"/><path d="M74.906,65.385l0,-14.4c-0,-0.828 0.672,-1.5 1.5,-1.5l2,0c0.828,-0 1.5,0.672 1.5,1.5l-0,49c-0,0.828 -0.672,1.5 -1.5,1.5l-2,-0c-0.828,-0 -1.5,-0.672 -1.5,-1.5l0,-15.1l-3.78,-0l-0.711,4.819c-0.004,0.025 -0.008,0.051 -0.013,0.076c-0.115,0.572 -0.394,1.096 -0.805,1.51c-0.488,0.494 -1.162,0.764 -1.859,0.744l0.043,0.001c0,-0 -1.7,-0 -1.674,-0c-0.677,0.012 -1.333,-0.241 -1.829,-0.707c-0.564,-0.52 -0.841,-1.291 -0.732,-2.055l0.683,-4.388l-4.453,-0l-0.711,4.819c-0.004,0.025 -0.008,0.051 -0.013,0.076c-0.115,0.572 -0.394,1.096 -0.805,1.51c-0.488,0.494 -1.162,0.764 -1.859,0.744l0.043,0.001c-0,-0 -1.7,-0 -1.674,-0c-0.677,0.012 -1.333,-0.241 -1.829,-0.707c-0.564,-0.52 -0.841,-1.291 -0.732,-2.055l0.683,-4.388l-3.248,-0l0.054,-0.001c-0.692,0.025 -1.368,-0.22 -1.884,-0.686c-0.008,-0.006 -0.015,-0.013 -0.023,-0.02c-0.536,-0.504 -0.827,-1.221 -0.796,-1.958l-0.001,0.065l-0,-1.6l0.001,0.065c-0.031,-0.736 0.259,-1.449 0.794,-1.955c0.009,-0.009 0.018,-0.017 0.028,-0.026c0.515,-0.463 1.19,-0.708 1.881,-0.683l-0.054,-0.001l4.253,0l0.862,-5.9l-3.815,0l0.054,-0.001c-0.692,0.025 -1.368,-0.22 -1.884,-0.686c-0.008,-0.006 -0.015,-0.013 -0.023,-0.02c-0.536,-0.504 -0.827,-1.221 -0.796,-1.958l-0.001,0.065l-0,-1.6l0.001,0.065c-0.031,-0.736 0.259,-1.449 0.794,-1.955c0.009,-0.009 0.018,-0.017 0.028,-0.026c0.515,-0.463 1.19,-0.708 1.881,-0.683l-0.054,-0.001l4.855,0l0.711,-4.819c0.004,-0.027 0.009,-0.055 0.015,-0.082c0.116,-0.567 0.394,-1.089 0.806,-1.507c0.488,-0.491 1.159,-0.759 1.813,-0.742c-0,0 1.7,0 1.663,0c0.694,-0.017 1.366,0.253 1.84,0.731c0.542,0.535 0.794,1.296 0.681,2.038l-0.646,4.381l4.467,0l0.711,-4.819c0.004,-0.027 0.009,-0.055 0.015,-0.082c0.116,-0.567 0.394,-1.089 0.806,-1.507c0.488,-0.491 1.159,-0.759 1.813,-0.742c0,0 1.7,0 1.663,0c0.694,-0.017 1.366,0.253 1.84,0.731c0.542,0.535 0.794,1.296 0.681,2.038l-0.646,4.381l0.887,0Zm3.5,34.6l-2,0l0,-16.681c-0.124,0.054 -0.261,0.084 -0.404,0.084c-0.024,0 -0.047,-0.001 -0.071,-0.003l-6.1,0l-0.9,6.1c-0.057,0.284 -0.196,0.544 -0.4,0.75c-0.197,0.199 -0.469,0.308 -0.75,0.3l-1.7,0c-0.287,0.005 -0.565,-0.102 -0.775,-0.3c-0.211,-0.187 -0.315,-0.47 -0.275,-0.75l0.95,-6.1l-7.5,0l-0.9,6.1c-0.057,0.284 -0.196,0.544 -0.4,0.75c-0.197,0.199 -0.469,0.308 -0.75,0.3l-1.7,0c-0.287,0.005 -0.565,-0.102 -0.775,-0.3c-0.211,-0.187 -0.315,-0.47 -0.275,-0.75l0.95,-6.1l-5,0c-0.303,0.011 -0.599,-0.096 -0.825,-0.3c-0.219,-0.206 -0.338,-0.499 -0.325,-0.8l0,-1.6c-0.013,-0.301 0.106,-0.593 0.325,-0.8c0.226,-0.203 0.522,-0.311 0.825,-0.3l5.55,0l1.3,-8.9l-5.55,0c-0.303,0.011 -0.599,-0.096 -0.825,-0.3c-0.219,-0.206 -0.338,-0.499 -0.325,-0.8l0,-1.6c-0.013,-0.301 0.106,-0.593 0.325,-0.8c0.226,-0.203 0.522,-0.311 0.825,-0.3l6.15,0l0.9,-6.1c0.058,-0.283 0.197,-0.544 0.4,-0.75c0.198,-0.199 0.47,-0.307 0.75,-0.3l1.7,0c0.281,-0.007 0.553,0.101 0.75,0.3c0.199,0.196 0.292,0.475 0.25,0.75l-0.9,6.1l7.5,0l0.9,-6.1c0.058,-0.283 0.197,-0.544 0.4,-0.75c0.198,-0.199 0.47,-0.307 0.75,-0.3l1.7,0c0.281,-0.007 0.553,0.101 0.75,0.3c0.199,0.196 0.292,0.475 0.25,0.75l-0.9,6.1l4.125,0l0,-15.9l2,0l0,49Zm-25.479,-8.659l0.034,0.032l-0.034,-0.032Zm23.479,-11.66c-0.124,-0.053 -0.261,-0.083 -0.404,-0.083c-0.024,0 -0.047,0.001 -0.071,0.002l-5.5,0l1.3,-8.9l4.675,0l0,8.981Zm-8.575,-8.981l-7.45,0l-1.3,8.9l7.45,0l1.3,-8.9Zm5.197,1.5l-0.862,5.9l2.74,0l0,-5.9l-1.878,0Zm-11.35,0l-0.862,5.9l4.418,0l0.862,-5.9l-4.418,0Z" style="fill:#486866;"/></g><path d="M92.329,9.389c2.592,-0.743 10.664,9.473 13.502,19.381c2.837,9.907 1.244,12.674 -1.348,13.417c-2.593,0.742 -5.209,-0.819 -8.047,-10.727c-2.837,-9.907 -6.7,-21.329 -4.107,-22.071Z" style="fill:#fff;fill-opacity:0.36;"/><path d="M100.868,84.073c2.65,0.504 7.244,-2.352 8.639,-7.645c1.394,-5.293 0.276,-10.105 -2.374,-10.609c-2.649,-0.503 -5.574,3.217 -6.452,7.837c-0.878,4.62 -2.462,9.914 0.187,10.417Z" style="fill:#fff;fill-opacity:0.36;"/></g><defs><radialGradient id="_Radial1" cx="0" cy="0" r="1" gradientUnits="userSpaceOnUse" gradientTransform="matrix(51.1389,55.8786,-55.9066,51.1133,50.0472,39.3862)"><stop offset="0" style="stop-color:#fefffe;stop-opacity:1"/><stop offset="1" style="stop-color:#a9a9a9;stop-opacity:1"/></radialGradient><linearGradient id="_Linear2" x1="0" y1="0" x2="1" y2="0" gradientUnits="userSpaceOnUse" gradientTransform="matrix(-160.238,251.981,-251.981,-160.238,188.966,-139.6)"><stop offset="0" style="stop-color:#fff;stop-opacity:1"/><stop offset="0.42" style="stop-color:#dff0f1;stop-opacity:1"/><stop offset="1" style="stop-color:#b7fffe;stop-opacity:1"/></linearGradient><radialGradient id="_Radial3" cx="0" cy="0" r="1" gradientUnits="userSpaceOnUse" gradientTransform="matrix(-63.7688,56.3133,-36.8538,-41.7329,70.4315,58.2525)"><stop offset="0" style="stop-color:#fff;stop-opacity:0"/><stop offset="0.42" style="stop-color:#aeaeae;stop-opacity:0.06"/><stop offset="1" style="stop-color:#000001;stop-opacity:0.2"/></radialGradient></defs></svg>