<?xml version="1.0" encoding="UTF-8" standalone="no"?><!DOCTYPE svg PUBLIC "-//W3C//DTD SVG 1.1//EN" "http://www.w3.org/Graphics/SVG/1.1/DTD/svg11.dtd"><svg width="100%" height="100%" viewBox="0 0 115 117" version="1.1" xmlns="http://www.w3.org/2000/svg" xmlns:xlink="http://www.w3.org/1999/xlink" xml:space="preserve" xmlns:serif="http://www.serif.com/" style="fill-rule:evenodd;clip-rule:evenodd;stroke-linejoin:round;stroke-miterlimit:2;"><g id="toolbar"><path d="M63.886,35.717c17.966,-19.465 14.447,-37.697 28.701,-35.127c6.014,1.085 16.421,20.423 18.927,33.407c7.12,36.884 1.054,58.382 -30.101,73.853c-34.303,17.036 -80.324,5.146 -80.506,-30.775c-0.176,-34.832 37.002,-13.213 62.979,-41.358Z" style="fill:url(#_Linear1);"/><path d="M63.886,35.717c17.966,-19.465 14.447,-37.697 28.701,-35.127c6.014,1.085 16.421,20.423 18.927,33.407c7.12,36.884 1.054,58.382 -30.101,73.853c-34.303,17.036 -80.324,5.146 -80.506,-30.775c-0.176,-34.832 37.002,-13.213 62.979,-41.358Z" style="fill:url(#_Radial2);"/><path d="M90.195,0.001c0.594,0.013 1.184,0.061 1.772,0.144c4.198,0.589 7.015,4.737 9.535,8.592c8.467,12.957 11.722,28.919 12.575,45.321c0.579,11.15 -0.798,22.769 -6.688,32.582c-6.565,10.94 -17.87,18.583 -29.474,23.634c-14.826,6.453 -31.782,8.206 -47.402,3.783c-11.421,-3.234 -22.083,-10.365 -27.147,-21.144c-2.78,-5.919 -3.763,-12.602 -3.225,-19.171c0.402,-4.91 1.944,-9.972 5.592,-13.455c6.114,-5.837 15.863,-6.551 24.429,-8.223c11.452,-2.273 22.652,-6.324 31.075,-14.699c7.542,-7.499 13.041,-17.716 17.59,-27.39c0.287,-0.606 0.578,-1.21 0.881,-1.808c0.239,-0.471 0.484,-0.939 0.74,-1.4c1.875,-3.381 4.722,-6.641 9.291,-6.765c0.152,-0.002 0.304,-0.003 0.456,-0.001Zm-0.298,0.891c-1.576,0.024 -3.143,0.406 -4.464,1.262c-3.305,2.141 -4.817,6.059 -6.391,9.474c-1.911,4.147 -4.421,8.767 -6.728,12.709c-6.37,10.887 -15.675,20.069 -27.595,24.678c-9.663,3.736 -20.402,4.154 -30.179,7.368c-4.297,1.413 -8.442,3.808 -10.819,7.883c-1.942,3.328 -2.618,7.251 -2.781,11.018c-0.306,7.059 1.215,14.244 4.845,20.26c6.953,11.521 21.081,17.847 33.999,19.475c16.057,2.023 32.666,-1.917 46.83,-10.202c10.751,-6.289 20.073,-15.391 24.037,-27.483c4.354,-13.284 2.767,-27.799 0.241,-41.342c-1.967,-10.546 -5.714,-21.167 -12.076,-29.525c-1.848,-2.428 -3.927,-4.981 -6.813,-5.415c-0.697,-0.105 -1.4,-0.161 -2.106,-0.16Z" style="fill:url(#_Radial3);"/><path id="Pfad_47" d="M78.406,99.985l-2,0l0,-16.681c-0.124,0.054 -0.261,0.084 -0.404,0.084c-0.024,0 -0.047,-0.001 -0.071,-0.003l-6.1,0l-0.9,6.1c-0.057,0.284 -0.196,0.544 -0.4,0.75c-0.197,0.199 -0.469,0.308 -0.75,0.3l-1.7,0c-0.287,0.005 -0.565,-0.102 -0.775,-0.3c-0.211,-0.187 -0.315,-0.47 -0.275,-0.75l0.95,-6.1l-7.5,0l-0.9,6.1c-0.057,0.284 -0.196,0.544 -0.4,0.75c-0.197,0.199 -0.469,0.308 -0.75,0.3l-1.7,0c-0.287,0.005 -0.565,-0.102 -0.775,-0.3c-0.211,-0.187 -0.315,-0.47 -0.275,-0.75l0.95,-6.1l-5,0c-0.303,0.011 -0.599,-0.096 -0.825,-0.3c-0.219,-0.206 -0.338,-0.499 -0.325,-0.8l0,-1.6c-0.013,-0.301 0.106,-0.593 0.325,-0.8c0.226,-0.203 0.522,-0.311 0.825,-0.3l5.55,0l1.3,-8.9l-5.55,0c-0.303,0.011 -0.599,-0.096 -0.825,-0.3c-0.219,-0.206 -0.338,-0.499 -0.325,-0.8l0,-1.6c-0.013,-0.301 0.106,-0.593 0.325,-0.8c0.226,-0.203 0.522,-0.311 0.825,-0.3l6.15,0l0.9,-6.1c0.058,-0.283 0.197,-0.544 0.4,-0.75c0.198,-0.199 0.47,-0.307 0.75,-0.3l1.7,0c0.281,-0.007 0.553,0.101 0.75,0.3c0.199,0.196 0.292,0.475 0.25,0.75l-0.9,6.1l7.5,0l0.9,-6.1c0.058,-0.283 0.197,-0.544 0.4,-0.75c0.198,-0.199 0.47,-0.307 0.75,-0.3l1.7,0c0.281,-0.007 0.553,0.101 0.75,0.3c0.199,0.196 0.292,0.475 0.25,0.75l-0.9,6.1l4.125,0l0,-15.9l2,0l0,49Zm-2,-20.319l0,-8.981l-4.675,0l-1.3,8.9l5.5,0c0.024,-0.001 0.047,-0.002 0.071,-0.002c0.143,0 0.28,0.03 0.404,0.083Zm-8.575,-8.981l-7.45,0l-1.3,8.9l7.45,0l1.3,-8.9Z" style="fill:#fff;fill-rule:nonzero;"/></g><defs><linearGradient id="_Linear1" x1="0" y1="0" x2="1" y2="0" gradientUnits="userSpaceOnUse" gradientTransform="matrix(-160.238,251.981,-251.981,-160.238,188.966,-139.6)"><stop offset="0" style="stop-color:#fff;stop-opacity:1"/><stop offset="0.42" style="stop-color:#dff0f1;stop-opacity:1"/><stop offset="1" style="stop-color:#9bcfd3;stop-opacity:1"/></linearGradient><radialGradient id="_Radial2" cx="0" cy="0" r="1" gradientUnits="userSpaceOnUse" gradientTransform="matrix(-63.7688,56.3133,-36.8538,-41.7329,70.4315,58.2525)"><stop offset="0" style="stop-color:#fff;stop-opacity:0"/><stop offset="0.42" style="stop-color:#aeaeae;stop-opacity:0.06"/><stop offset="1" style="stop-color:#000001;stop-opacity:0.2"/></radialGradient><radialGradient id="_Radial3" cx="0" cy="0" r="1" gradientUnits="userSpaceOnUse" gradientTransform="matrix(51.1389,55.8786,-55.9066,51.1133,50.0472,39.3862)"><stop offset="0" style="stop-color:#fefffe;stop-opacity:1"/><stop offset="1" style="stop-color:#a9a9a9;stop-opacity:1"/></radialGradient></defs></svg>