<?xml version="1.0" encoding="UTF-8" standalone="no"?><!DOCTYPE svg PUBLIC "-//W3C//DTD SVG 1.1//EN" "http://www.w3.org/Graphics/SVG/1.1/DTD/svg11.dtd"><svg width="100%" height="100%" viewBox="0 0 70 65" version="1.1" xmlns="http://www.w3.org/2000/svg" xmlns:xlink="http://www.w3.org/1999/xlink" xml:space="preserve" xmlns:serif="http://www.serif.com/" style="fill-rule:evenodd;clip-rule:evenodd;stroke-linejoin:round;stroke-miterlimit:2;"><path id="undo" d="M29.962,39.991c-17.56,-11.835 -30.738,-3.308 -29.594,-22.918c0.854,-14.653 28.934,-22.371 49.085,-12.261c16.669,8.365 26.455,38.462 15.585,51.905c-17.772,21.981 -23.26,-8.762 -35.076,-16.726Z" style="fill:url(#_Linear1);"/><clipPath id="_clip2"><path d="M29.962,39.991c-17.56,-11.835 -30.738,-3.308 -29.594,-22.918c0.854,-14.653 28.934,-22.371 49.085,-12.261c16.669,8.365 26.455,38.462 15.585,51.905c-17.772,21.981 -23.26,-8.762 -35.076,-16.726Z"/></clipPath><g clip-path="url(#_clip2)"><path d="M28.752,19.873l5.092,2.804c0.846,0.466 1.155,1.531 0.689,2.377c-0.466,0.846 -1.531,1.155 -2.377,0.689l-10.546,-5.806l6.579,-9.056c0.568,-0.782 1.663,-0.955 2.445,-0.387c0.781,0.567 0.954,1.663 0.387,2.444l-2.429,3.343c14.254,-3.74 22.726,9.574 22.433,17.291c-0.037,0.965 -0.85,1.719 -1.815,1.682c-0.966,-0.037 -1.719,-0.85 -1.683,-1.815c0.241,-6.316 -6.919,-17.192 -18.775,-13.566Z" style="fill:#fff;"/></g><path id="undo1" serif:id="undo" d="M29.959,39.991c-17.56,-11.835 -30.738,-3.308 -29.594,-22.918c0.854,-14.653 28.935,-22.371 49.085,-12.261c16.669,8.365 26.455,38.462 15.585,51.905c-17.772,21.981 -23.26,-8.762 -35.076,-16.726Z" style="fill:url(#_Radial3);"/><path d="M29.564,0c9.593,0.09 19.508,2.7 26.455,9.199c9.292,8.692 14.481,22.104 13.765,34.47c-0.423,7.305 -3.939,14.491 -10.571,19.034c-2.498,1.711 -5.798,2.625 -8.723,1.386c-5.919,-2.505 -9.184,-9.61 -12.982,-15.25c-2.806,-4.14 -5.929,-7.838 -10.699,-10.532c-5.846,-3.302 -12.587,-4.51 -18.984,-6.732c-2.245,-0.779 -4.471,-1.938 -5.846,-3.989c-2.091,-3.119 -2.191,-7.229 -1.797,-11.049c0.795,-7.688 9.049,-13.029 17.889,-15.214c3.754,-0.928 7.631,-1.337 11.493,-1.323Zm-0.508,0.45c-8.761,0.056 -17.949,2.151 -24.038,7.894c-3.601,3.396 -5.024,8.427 -4.325,14.024c0.293,2.35 1.094,4.758 2.889,6.392c3.189,2.905 7.929,3.375 12.218,4.589c6.923,1.993 13.9,4.888 18.625,10.552c4.508,5.403 7.464,12.098 12.323,16.964c2.037,2.04 4.656,3.711 7.626,3.359c4.523,-0.537 8.134,-4.499 10.855,-8.121c4.202,-5.592 4.816,-13.336 3.65,-20.682c-2.027,-12.769 -8.827,-25.501 -20.713,-30.976c-5.958,-2.745 -12.626,-4.001 -19.11,-3.995Z" style="fill:url(#_Linear4);"/><defs><linearGradient id="_Linear1" x1="0" y1="0" x2="1" y2="0" gradientUnits="userSpaceOnUse" gradientTransform="matrix(200.703,-256.219,256.219,200.703,19.1127,162.595)"><stop offset="0" style="stop-color:#be6f61;stop-opacity:1"/><stop offset="0.58" style="stop-color:#ead1cd;stop-opacity:1"/><stop offset="1" style="stop-color:#fff;stop-opacity:1"/></linearGradient><radialGradient id="_Radial3" cx="0" cy="0" r="1" gradientUnits="userSpaceOnUse" gradientTransform="matrix(18.1609,42.8004,-42.8004,18.1609,34.9602,23.8696)"><stop offset="0" style="stop-color:#fefffe;stop-opacity:0"/><stop offset="1" style="stop-color:#010001;stop-opacity:0.47"/></radialGradient><linearGradient id="_Linear4" x1="0" y1="0" x2="1" y2="0" gradientUnits="userSpaceOnUse" gradientTransform="matrix(-36.4503,-55.4287,55.4287,-36.4503,58.3609,64.271)"><stop offset="0" style="stop-color:#010001;stop-opacity:1"/><stop offset="1" style="stop-color:#fefffe;stop-opacity:0.5"/></linearGradient></defs></svg>