<?xml version="1.0" encoding="UTF-8" standalone="no"?><!DOCTYPE svg PUBLIC "-//W3C//DTD SVG 1.1//EN" "http://www.w3.org/Graphics/SVG/1.1/DTD/svg11.dtd"><svg width="100%" height="100%" viewBox="0 0 33 33" version="1.1" xmlns="http://www.w3.org/2000/svg" xmlns:xlink="http://www.w3.org/1999/xlink" xml:space="preserve" xmlns:serif="http://www.serif.com/" style="fill-rule:evenodd;clip-rule:evenodd;stroke-linejoin:round;stroke-miterlimit:2;"><circle cx="16.432" cy="16.432" r="16.432" style="fill:#6e6e6e;"/><path d="M14.655,16.469l-4.959,-4.904c-0.491,-0.485 -0.495,-1.277 -0.01,-1.767c0.485,-0.491 1.277,-0.495 1.768,-0.01l4.978,4.923l4.979,-4.923c0.49,-0.485 1.282,-0.481 1.767,0.01c0.486,0.49 0.481,1.282 -0.009,1.767l-4.959,4.904l4.959,4.904c0.49,0.485 0.495,1.277 0.009,1.768c-0.485,0.491 -1.277,0.495 -1.767,0.01l-4.979,-4.924l-4.978,4.924c-0.491,0.485 -1.283,0.481 -1.768,-0.01c-0.485,-0.491 -0.481,-1.283 0.01,-1.768l4.959,-4.904Z" style="fill:#fff;"/></svg>