<?xml version="1.0" encoding="UTF-8" standalone="no"?><!DOCTYPE svg PUBLIC "-//W3C//DTD SVG 1.1//EN" "http://www.w3.org/Graphics/SVG/1.1/DTD/svg11.dtd"><svg width="100%" height="100%" viewBox="0 0 1920 1080" version="1.1" xmlns="http://www.w3.org/2000/svg" xmlns:xlink="http://www.w3.org/1999/xlink" xml:space="preserve" xmlns:serif="http://www.serif.com/" style="fill-rule:evenodd;clip-rule:evenodd;stroke-linejoin:round;stroke-miterlimit:2;"><rect id="ArtBoard1" x="0" y="0" width="1920" height="1080" style="fill:none;"/><clipPath id="_clip1"><rect id="ArtBoard11" serif:id="ArtBoard1" x="0" y="0" width="1920" height="1080"/></clipPath><g clip-path="url(#_clip1)"><path d="M436.037,799.365c184.416,130.786 -70.662,245.741 -166.832,381.345c-96.169,135.604 2.755,240.835 -181.661,110.048c-184.416,-130.787 -256.062,-347.062 -159.892,-482.666c96.169,-135.603 323.969,-139.514 508.385,-8.727Z" style="fill:#f51aa4;"/><path d="M1548.17,497.437c23.227,-224.889 412.19,-112 563.243,-42.576c151.054,69.424 236.169,-47.259 141.754,158.168c-94.414,205.428 -182.111,440.529 -333.165,371.105c-151.054,-69.425 -391.18,-299.363 -371.832,-486.697Z" style="fill:#59dbd4;"/><path d="M1122.83,621.247c62.604,-41.494 96.115,-27.601 131.052,-11.544c34.938,16.057 52.369,61.026 29.888,109.94c-22.481,48.914 -115.447,5.675 -150.385,-10.382c-34.937,-16.058 -47.388,-63.601 -10.555,-88.014Z" style="fill:#a300cc;"/><path d="M879.629,846.882c65.051,-9.314 108.904,36.804 97.24,67.668c-10.811,28.61 -32.751,44.397 -74.281,54.834c-41.529,10.437 -65.267,-3.2 -72.722,-32.862c-7.454,-29.663 11.492,-84.16 49.763,-89.64Z" style="fill:#d12300;"/><path d="M454.652,332.092c56.033,266.536 -341.154,117.467 -532.358,-124.1c-49.044,-61.962 106.108,-317.968 212.728,-332.947c106.619,-14.978 433.245,-140.814 458.38,228.76c9.75,143.361 -157.197,140.535 -138.75,228.287Z" style="fill:#ff7f0f;"/><path d="M423.171,399.847c-10.231,85.377 -202.06,35.814 -306.802,-46.21c-49.012,-38.382 19.938,-13.601 104.493,-6.931c103.805,8.189 210.715,-16.997 202.309,53.141Z" style="fill:#fff;fill-opacity:0.1;"/><path d="M958.447,70.223c-127.086,-178.114 2.723,-210.603 27.663,-510.619c6.397,-76.954 175.479,-143.101 241.533,-111.873c66.053,31.229 311.113,54.219 127.372,400.749c-71.275,134.422 -285.478,377.439 -396.568,221.743Z" style="fill:#5cff8d;"/><path d="M298.452,747.083c73.738,31.403 135.021,72.505 123.868,98.694c-11.153,26.189 -66.289,-20.462 -140.028,-51.864c-73.739,-31.403 -148.807,-30.086 -137.654,-56.276c11.154,-26.189 80.075,-21.957 153.814,9.446Z" style="fill:#fff;fill-opacity:0.13;"/><path d="M1043.96,103.903c-28.732,-1.639 -64.408,-17.514 -62.788,-45.934c1.621,-28.419 35.621,-5.112 64.353,-3.474c28.732,1.638 72.957,-18.523 71.336,9.896c-1.62,28.419 -44.169,41.15 -72.901,39.512Z" style="fill:#fff;fill-opacity:0.3;"/><path d="M1588.84,438.071c16.714,-23.428 57.606,-42.214 80.779,-25.682c23.172,16.532 -14.68,32.855 -31.394,56.283c-16.714,23.428 -23.255,71.589 -46.428,55.057c-23.173,-16.532 -19.671,-62.231 -2.957,-85.658Z" style="fill:#fff;fill-opacity:0.17;"/><path d="M1200.63,604.033c17.719,1.015 50.264,15.353 35.716,38.75c-8.235,13.245 -24.945,4.677 -39.163,0.958c-14.218,-3.719 -52.092,9.327 -54.251,-4.363c-4.2,-26.643 39.979,-36.361 57.698,-35.345Z" style="fill:#fff;fill-opacity:0.12;"/><path d="M881.572,858.96c15.185,-4.833 46.514,-2.23 44.077,19.265c-1.379,12.17 -16.988,11.022 -32.174,15.855c-15.185,4.833 -32.357,16.604 -39.201,7.894c-13.321,-16.952 12.113,-38.181 27.298,-43.014Z" style="fill:#fff;fill-opacity:0.12;"/><path d="M450.692,853.459c28.281,3.233 40.622,53.195 12.341,49.962c-28.281,-3.233 -40.622,-53.195 -12.341,-49.962Z" style="fill:#fff;fill-opacity:0.13;"/><path d="M1597.78,551.056c28.281,3.233 40.622,53.195 12.341,49.962c-28.281,-3.233 -40.622,-53.194 -12.341,-49.962Z" style="fill:#fff;fill-opacity:0.13;"/></g></svg>